{"glyphs":{"0":{"ha":833,"x_min":0,"x_max":0,"o":"m 417 -22 b 764 492 632 -22 764 176 b 417 1008 764 810 632 1008 b 69 492 201 1008 69 810 b 417 -22 69 176 201 -22 z m 194 492 b 417 892 194 738 279 892 b 546 832 467 892 511 871 l 229 256 b 194 492 207 319 194 399 z m 417 94 b 288 154 365 94 322 115 l 604 729 b 639 492 626 667 639 586 b 417 94 639 249 554 94 z "},"1":{"ha":833,"x_min":0,"x_max":0,"o":"m 83 0 l 750 0 l 750 117 l 514 117 l 514 986 l 417 986 b 269 833 417 875 375 833 l 136 833 l 136 731 l 394 731 l 394 117 l 83 117 z "},"2":{"ha":833,"x_min":0,"x_max":0,"o":"m 69 0 l 764 0 l 764 117 l 217 117 b 492 389 222 192 314 294 b 763 722 696 497 763 572 b 440 1008 763 892 643 1008 b 75 692 226 1008 97 885 l 200 683 b 440 892 221 817 301 892 b 638 719 571 892 638 821 b 447 503 638 619 583 575 b 69 0 151 346 69 208 z "},"3":{"ha":833,"x_min":0,"x_max":0,"o":"m 408 -22 b 764 275 614 -22 764 86 b 558 531 764 401 686 496 b 729 742 671 565 729 636 b 415 1008 729 906 607 1008 b 92 760 224 1008 110 907 l 217 751 b 415 892 229 839 290 892 b 604 736 538 892 604 838 b 415 582 604 624 518 582 l 338 582 l 338 465 l 415 465 b 639 275 543 465 639 406 b 408 94 639 142 528 94 b 193 263 290 94 204 142 l 69 254 b 408 -22 78 92 194 -22 z "},"4":{"ha":833,"x_min":0,"x_max":0,"o":"m 539 0 l 658 0 l 658 214 l 778 214 l 778 331 l 658 331 l 658 986 l 531 986 l 56 322 l 56 214 l 539 214 z m 178 331 l 539 819 l 539 331 z "},"5":{"ha":833,"x_min":0,"x_max":0,"o":"m 414 -22 b 750 317 610 -22 750 118 b 433 656 750 514 622 656 b 239 572 364 656 288 628 l 275 869 l 690 869 l 690 986 l 165 986 l 100 432 l 228 432 b 417 542 260 501 339 542 b 625 317 547 542 625 456 b 414 94 625 178 542 94 b 208 263 300 94 222 151 l 83 254 b 414 -22 97 90 222 -22 z "},"6":{"ha":833,"x_min":0,"x_max":0,"o":"m 419 -22 b 764 328 624 -22 764 111 b 442 664 764 531 636 664 b 194 538 329 664 242 610 b 458 892 214 775 308 892 b 639 764 567 892 617 842 l 764 775 b 458 1008 725 914 633 1008 b 69 417 167 1008 69 742 b 419 -22 69 135 197 -22 z m 422 94 b 200 328 286 94 200 192 b 433 550 200 464 300 550 b 639 328 557 550 639 464 b 422 94 639 181 551 94 z "},"7":{"ha":833,"x_min":0,"x_max":0,"o":"m 267 0 l 394 0 b 750 878 394 333 501 594 l 750 986 l 83 986 l 83 869 l 619 869 b 267 0 400 617 267 306 z "},"8":{"ha":833,"x_min":0,"x_max":0,"o":"m 417 -22 b 764 271 613 -22 764 79 b 574 531 764 399 690 489 b 717 738 661 567 717 632 b 417 1008 717 893 592 1008 b 117 738 242 1008 117 893 b 260 531 117 632 172 567 b 69 271 143 489 69 399 b 417 -22 69 79 221 -22 z m 417 579 b 242 738 311 579 242 632 b 417 892 242 832 308 892 b 592 738 525 892 592 832 b 417 579 592 632 522 579 z m 417 94 b 194 278 288 94 194 153 b 417 468 194 393 269 468 b 639 278 564 468 639 393 b 417 94 639 153 546 94 z "},"9":{"ha":833,"x_min":0,"x_max":0,"o":"m 414 1008 b 69 658 210 1008 69 875 b 392 322 69 456 197 322 b 639 449 504 322 592 376 b 375 94 619 211 525 94 b 194 222 267 94 217 144 l 69 211 b 375 -22 108 72 200 -22 b 764 569 667 -22 764 244 b 414 1008 764 851 636 1008 z m 411 892 b 633 658 547 892 633 794 b 400 436 633 522 533 436 b 194 658 276 436 194 522 b 411 892 194 806 282 892 z "},"A":{"ha":833,"x_min":0,"x_max":0,"o":"m 36 0 l 164 0 l 244 281 l 589 281 l 669 0 l 797 0 l 497 986 l 336 986 z m 417 878 l 556 397 l 278 397 z "},"Á":{"ha":833,"x_min":0,"x_max":0,"o":"m 364 1083 l 461 1083 l 586 1261 l 456 1261 z m 36 0 l 164 0 l 244 281 l 589 281 l 669 0 l 797 0 l 497 986 l 336 986 z m 417 878 l 556 397 l 278 397 z "},"Ă":{"ha":833,"x_min":0,"x_max":0,"o":"m 417 1088 b 611 1265 531 1088 606 1157 l 531 1265 b 417 1174 522 1201 481 1174 b 303 1265 353 1174 311 1201 l 222 1265 b 417 1088 228 1157 303 1088 z m 36 0 l 164 0 l 244 281 l 589 281 l 669 0 l 797 0 l 497 986 l 336 986 z m 417 878 l 556 397 l 278 397 z "},"Ǎ":{"ha":833,"x_min":0,"x_max":0,"o":"m 222 1265 l 351 1081 l 482 1081 l 611 1265 l 514 1265 l 417 1140 l 319 1265 z m 36 0 l 164 0 l 244 281 l 589 281 l 669 0 l 797 0 l 497 986 l 336 986 z m 417 878 l 556 397 l 278 397 z "},"Â":{"ha":833,"x_min":0,"x_max":0,"o":"m 221 1081 l 318 1081 l 415 1206 l 513 1081 l 610 1081 l 481 1265 l 350 1265 z m 36 0 l 164 0 l 244 281 l 589 281 l 669 0 l 797 0 l 497 986 l 336 986 z m 417 878 l 556 397 l 278 397 z "},"Ä":{"ha":833,"x_min":0,"x_max":0,"o":"m 222 1101 l 344 1101 l 344 1238 l 222 1238 z m 489 1101 l 611 1101 l 611 1238 l 489 1238 z m 36 0 l 164 0 l 244 281 l 589 281 l 669 0 l 797 0 l 497 986 l 336 986 z m 417 878 l 556 397 l 278 397 z "},"À":{"ha":833,"x_min":0,"x_max":0,"o":"m 375 1083 l 472 1083 l 381 1261 l 250 1261 z m 36 0 l 164 0 l 244 281 l 589 281 l 669 0 l 797 0 l 497 986 l 336 986 z m 417 878 l 556 397 l 278 397 z "},"Ā":{"ha":833,"x_min":0,"x_max":0,"o":"m 229 1118 l 601 1118 l 601 1218 l 229 1218 z m 36 0 l 164 0 l 244 281 l 589 281 l 669 0 l 797 0 l 497 986 l 336 986 z m 417 878 l 556 397 l 278 397 z "},"Ą":{"ha":833,"x_min":0,"x_max":0,"o":"m 36 0 l 164 0 l 244 281 l 589 281 l 669 0 l 690 0 l 657 -42 b 600 -181 618 -90 600 -133 b 725 -292 600 -250 647 -292 b 844 -256 778 -292 822 -278 l 811 -178 b 747 -197 794 -192 767 -197 b 706 -156 721 -197 706 -183 b 749 -62 706 -133 713 -110 l 797 0 l 497 986 l 336 986 z m 417 878 l 556 397 l 278 397 z "},"Å":{"ha":833,"x_min":0,"x_max":0,"o":"m 417 1050 b 544 1178 489 1050 544 1106 b 417 1306 544 1250 489 1306 b 289 1178 344 1306 289 1250 b 417 1050 289 1106 344 1050 z m 417 1119 b 358 1178 383 1119 358 1144 b 417 1236 358 1211 383 1236 b 475 1178 450 1236 475 1211 b 417 1119 475 1144 450 1119 z m 36 0 l 164 0 l 244 281 l 589 281 l 669 0 l 797 0 l 497 986 l 336 986 z m 417 878 l 556 397 l 278 397 z "},"Ã":{"ha":833,"x_min":0,"x_max":0,"o":"m 500 1097 b 636 1264 579 1097 631 1158 l 564 1264 b 506 1172 558 1194 540 1172 b 436 1206 483 1172 465 1182 b 331 1250 404 1232 375 1250 b 197 1088 256 1250 200 1194 l 269 1088 b 331 1175 272 1154 297 1175 b 403 1139 358 1175 371 1165 b 500 1097 433 1114 464 1097 z m 36 0 l 164 0 l 244 281 l 589 281 l 669 0 l 797 0 l 497 986 l 336 986 z m 417 878 l 556 397 l 278 397 z "},"Æ":{"ha":833,"x_min":0,"x_max":0,"o":"m 14 0 l 139 0 l 226 281 l 436 281 l 436 0 l 806 0 l 806 117 l 556 117 l 556 438 l 778 438 l 778 551 l 556 551 l 556 869 l 794 869 l 794 986 l 328 986 z m 411 874 l 436 874 l 436 397 l 263 397 z "},"B":{"ha":833,"x_min":0,"x_max":0,"o":"m 125 0 l 438 0 b 772 275 646 0 772 104 b 551 508 772 403 690 490 b 731 717 660 528 731 610 b 403 986 731 883 619 986 l 125 986 z m 244 560 l 244 869 l 408 869 b 606 714 544 869 606 814 b 408 560 606 615 544 560 z m 244 117 l 244 443 l 439 443 b 647 275 575 443 647 381 b 439 117 647 175 581 117 z "},"C":{"ha":833,"x_min":0,"x_max":0,"o":"m 419 -22 b 772 325 606 -22 736 108 l 646 332 b 419 94 618 175 533 94 b 178 492 263 94 178 238 b 419 892 178 747 263 892 b 636 676 522 892 604 818 l 764 685 b 419 1008 722 889 593 1008 b 53 492 183 1008 53 810 b 419 -22 53 176 183 -22 z "},"Ć":{"ha":833,"x_min":0,"x_max":0,"o":"m 367 1083 l 464 1083 l 589 1261 l 458 1261 z m 419 -22 b 772 325 606 -22 736 108 l 646 332 b 419 94 618 175 533 94 b 178 492 263 94 178 238 b 419 892 178 747 263 892 b 636 676 522 892 604 818 l 764 685 b 419 1008 722 889 593 1008 b 53 492 183 1008 53 810 b 419 -22 53 176 183 -22 z "},"Č":{"ha":833,"x_min":0,"x_max":0,"o":"m 225 1265 l 354 1081 l 485 1081 l 614 1265 l 517 1265 l 419 1140 l 322 1265 z m 419 -22 b 772 325 606 -22 736 108 l 646 332 b 419 94 618 175 533 94 b 178 492 263 94 178 238 b 419 892 178 747 263 892 b 636 676 522 892 604 818 l 764 685 b 419 1008 722 889 593 1008 b 53 492 183 1008 53 810 b 419 -22 53 176 183 -22 z "},"Ç":{"ha":833,"x_min":0,"x_max":0,"o":"m 424 -306 b 579 -175 514 -306 579 -253 b 446 -50 579 -103 536 -54 l 468 -19 b 772 325 629 3 739 128 l 646 332 b 419 94 618 175 533 94 b 178 492 263 94 178 238 b 419 892 178 747 263 892 b 636 676 522 892 604 818 l 764 685 b 419 1008 722 889 593 1008 b 53 492 183 1008 53 810 b 382 -21 53 193 169 0 l 351 -69 l 390 -111 b 496 -172 479 -111 496 -137 b 421 -228 496 -207 468 -228 b 332 -169 375 -228 349 -211 l 261 -197 b 424 -306 281 -258 335 -306 z "},"Ĉ":{"ha":833,"x_min":0,"x_max":0,"o":"m 224 1081 l 321 1081 l 418 1206 l 515 1081 l 613 1081 l 483 1265 l 353 1265 z m 419 -22 b 772 325 606 -22 736 108 l 646 332 b 419 94 618 175 533 94 b 178 492 263 94 178 238 b 419 892 178 747 263 892 b 636 676 522 892 604 818 l 764 685 b 419 1008 722 889 593 1008 b 53 492 183 1008 53 810 b 419 -22 53 176 183 -22 z "},"Ċ":{"ha":833,"x_min":0,"x_max":0,"o":"m 357 1101 l 479 1101 l 479 1238 l 357 1238 z m 419 -22 b 772 325 606 -22 736 108 l 646 332 b 419 94 618 175 533 94 b 178 492 263 94 178 238 b 419 892 178 747 263 892 b 636 676 522 892 604 818 l 764 685 b 419 1008 722 889 593 1008 b 53 492 183 1008 53 810 b 419 -22 53 176 183 -22 z "},"D":{"ha":833,"x_min":0,"x_max":0,"o":"m 125 0 l 358 0 b 781 492 614 0 781 175 b 358 986 781 808 614 986 l 125 986 z m 244 117 l 244 869 l 351 869 b 656 492 543 869 656 742 b 351 117 656 242 543 117 z "},"Ď":{"ha":833,"x_min":0,"x_max":0,"o":"m 222 1265 l 351 1081 l 482 1081 l 611 1265 l 514 1265 l 417 1140 l 319 1265 z m 125 0 l 358 0 b 781 492 614 0 781 175 b 358 986 781 808 614 986 l 125 986 z m 244 117 l 244 869 l 351 869 b 656 492 543 869 656 742 b 351 117 656 242 543 117 z "},"Đ":{"ha":833,"x_min":0,"x_max":0,"o":"m 125 0 l 358 0 b 781 492 614 0 781 175 b 358 986 781 808 614 986 l 125 986 l 125 547 l 28 547 l 28 439 l 125 439 z m 244 117 l 244 439 l 472 439 l 472 547 l 244 547 l 244 869 l 351 869 b 656 492 543 869 656 742 b 351 117 656 242 543 117 z "},"Ð":{"ha":833,"x_min":0,"x_max":0,"o":"m 125 0 l 358 0 b 781 492 614 0 781 175 b 358 986 781 808 614 986 l 125 986 l 125 547 l 28 547 l 28 439 l 125 439 z m 244 117 l 244 439 l 472 439 l 472 547 l 244 547 l 244 869 l 351 869 b 656 492 543 869 656 742 b 351 117 656 242 543 117 z "},"E":{"ha":833,"x_min":0,"x_max":0,"o":"m 125 0 l 736 0 l 736 117 l 244 117 l 244 438 l 708 438 l 708 551 l 244 551 l 244 869 l 725 869 l 725 986 l 125 986 z "},"É":{"ha":833,"x_min":0,"x_max":0,"o":"m 389 1085 l 486 1085 l 611 1263 l 481 1263 z m 125 0 l 736 0 l 736 117 l 244 117 l 244 438 l 708 438 l 708 551 l 244 551 l 244 869 l 725 869 l 725 986 l 125 986 z "},"Ě":{"ha":833,"x_min":0,"x_max":0,"o":"m 247 1267 l 376 1082 l 507 1082 l 636 1267 l 539 1267 l 442 1142 l 344 1267 z m 125 0 l 736 0 l 736 117 l 244 117 l 244 438 l 708 438 l 708 551 l 244 551 l 244 869 l 725 869 l 725 986 l 125 986 z "},"Ê":{"ha":833,"x_min":0,"x_max":0,"o":"m 246 1082 l 343 1082 l 440 1207 l 538 1082 l 635 1082 l 506 1267 l 375 1267 z m 125 0 l 736 0 l 736 117 l 244 117 l 244 438 l 708 438 l 708 551 l 244 551 l 244 869 l 725 869 l 725 986 l 125 986 z "},"Ë":{"ha":833,"x_min":0,"x_max":0,"o":"m 247 1103 l 369 1103 l 369 1239 l 247 1239 z m 514 1103 l 636 1103 l 636 1239 l 514 1239 z m 125 0 l 736 0 l 736 117 l 244 117 l 244 438 l 708 438 l 708 551 l 244 551 l 244 869 l 725 869 l 725 986 l 125 986 z "},"Ė":{"ha":833,"x_min":0,"x_max":0,"o":"m 379 1103 l 501 1103 l 501 1239 l 379 1239 z m 125 0 l 736 0 l 736 117 l 244 117 l 244 438 l 708 438 l 708 551 l 244 551 l 244 869 l 725 869 l 725 986 l 125 986 z "},"È":{"ha":833,"x_min":0,"x_max":0,"o":"m 400 1085 l 497 1085 l 406 1263 l 275 1263 z m 125 0 l 736 0 l 736 117 l 244 117 l 244 438 l 708 438 l 708 551 l 244 551 l 244 869 l 725 869 l 725 986 l 125 986 z "},"Ē":{"ha":833,"x_min":0,"x_max":0,"o":"m 254 1119 l 626 1119 l 626 1219 l 254 1219 z m 125 0 l 736 0 l 736 117 l 244 117 l 244 438 l 708 438 l 708 551 l 244 551 l 244 869 l 725 869 l 725 986 l 125 986 z "},"Ę":{"ha":833,"x_min":0,"x_max":0,"o":"m 125 0 l 635 0 l 601 -42 b 544 -181 563 -90 544 -133 b 669 -292 544 -250 592 -292 b 789 -256 722 -292 767 -278 l 756 -178 b 692 -197 739 -192 711 -197 b 650 -156 665 -197 650 -183 b 693 -62 650 -133 657 -110 l 742 0 l 736 1 l 736 117 l 244 117 l 244 438 l 708 438 l 708 551 l 244 551 l 244 869 l 725 869 l 725 986 l 125 986 z "},"Ẽ":{"ha":833,"x_min":0,"x_max":0,"o":"m 525 1099 b 661 1265 604 1099 656 1160 l 589 1265 b 531 1174 583 1196 565 1174 b 461 1207 508 1174 490 1183 b 356 1251 429 1233 400 1251 b 222 1089 281 1251 225 1196 l 294 1089 b 356 1176 297 1156 322 1176 b 428 1140 383 1176 396 1167 b 525 1099 458 1115 489 1099 z m 125 0 l 736 0 l 736 117 l 244 117 l 244 438 l 708 438 l 708 551 l 244 551 l 244 869 l 725 869 l 725 986 l 125 986 z "},"Ə":{"ha":833,"x_min":0,"x_max":0,"o":"m 428 -22 b 794 493 643 -22 794 176 b 414 1008 794 824 654 1008 b 72 692 249 1008 128 890 l 203 681 b 419 892 233 808 306 892 b 668 542 574 892 668 751 l 53 542 l 53 476 b 428 -22 53 181 192 -22 z m 428 94 b 182 425 275 94 182 219 l 667 425 b 428 94 667 219 574 94 z "},"F":{"ha":833,"x_min":0,"x_max":0,"o":"m 139 0 l 258 0 l 258 425 l 725 425 l 725 539 l 258 539 l 258 872 l 750 872 l 750 986 l 139 986 z "},"G":{"ha":833,"x_min":0,"x_max":0,"o":"m 414 -22 b 656 136 536 -22 610 40 l 658 0 l 769 0 l 769 499 l 422 499 l 422 385 l 658 385 b 425 94 653 214 565 94 b 178 492 268 94 178 238 b 419 892 178 747 265 892 b 640 683 536 892 608 806 l 765 692 b 419 1008 722 878 600 1008 b 53 492 189 1008 53 810 b 414 -22 53 153 206 -22 z "},"Ğ":{"ha":833,"x_min":0,"x_max":0,"o":"m 415 1088 b 610 1265 529 1088 604 1157 l 529 1265 b 415 1174 521 1201 479 1174 b 301 1265 351 1174 310 1201 l 221 1265 b 415 1088 226 1157 301 1088 z m 414 -22 b 656 136 536 -22 610 40 l 658 0 l 769 0 l 769 499 l 422 499 l 422 385 l 658 385 b 425 94 653 214 565 94 b 178 492 268 94 178 238 b 419 892 178 747 265 892 b 640 683 536 892 608 806 l 765 692 b 419 1008 722 878 600 1008 b 53 492 189 1008 53 810 b 414 -22 53 153 206 -22 z "},"Ǧ":{"ha":833,"x_min":0,"x_max":0,"o":"m 221 1265 l 350 1081 l 481 1081 l 610 1265 l 513 1265 l 415 1140 l 318 1265 z m 414 -22 b 656 136 536 -22 610 40 l 658 0 l 769 0 l 769 499 l 422 499 l 422 385 l 658 385 b 425 94 653 214 565 94 b 178 492 268 94 178 238 b 419 892 178 747 265 892 b 640 683 536 892 608 806 l 765 692 b 419 1008 722 878 600 1008 b 53 492 189 1008 53 810 b 414 -22 53 153 206 -22 z "},"Ĝ":{"ha":833,"x_min":0,"x_max":0,"o":"m 219 1081 l 317 1081 l 414 1206 l 511 1081 l 608 1081 l 479 1265 l 349 1265 z m 414 -22 b 656 136 536 -22 610 40 l 658 0 l 769 0 l 769 499 l 422 499 l 422 385 l 658 385 b 425 94 653 214 565 94 b 178 492 268 94 178 238 b 419 892 178 747 265 892 b 640 683 536 892 608 806 l 765 692 b 419 1008 722 878 600 1008 b 53 492 189 1008 53 810 b 414 -22 53 153 206 -22 z "},"Ģ":{"ha":833,"x_min":0,"x_max":0,"o":"m 414 -22 b 656 136 536 -22 610 40 l 658 0 l 769 0 l 769 499 l 422 499 l 422 385 l 658 385 b 425 94 653 214 565 94 b 178 492 268 94 178 238 b 419 892 178 747 265 892 b 640 683 536 892 608 806 l 765 692 b 419 1008 722 878 600 1008 b 53 492 189 1008 53 810 b 414 -22 53 153 206 -22 z m 318 -333 l 396 -333 l 485 -194 l 485 -75 l 346 -75 l 346 -200 l 393 -200 z "},"Ġ":{"ha":833,"x_min":0,"x_max":0,"o":"m 353 1101 l 475 1101 l 475 1238 l 353 1238 z m 414 -22 b 656 136 536 -22 610 40 l 658 0 l 769 0 l 769 499 l 422 499 l 422 385 l 658 385 b 425 94 653 214 565 94 b 178 492 268 94 178 238 b 419 892 178 747 265 892 b 640 683 536 892 608 806 l 765 692 b 419 1008 722 878 600 1008 b 53 492 189 1008 53 810 b 414 -22 53 153 206 -22 z "},"Ḡ":{"ha":833,"x_min":0,"x_max":0,"o":"m 228 1118 l 600 1118 l 600 1218 l 228 1218 z m 414 -22 b 656 136 536 -22 610 40 l 658 0 l 769 0 l 769 499 l 422 499 l 422 385 l 658 385 b 425 94 653 214 565 94 b 178 492 268 94 178 238 b 419 892 178 747 265 892 b 640 683 536 892 608 806 l 765 692 b 419 1008 722 878 600 1008 b 53 492 189 1008 53 810 b 414 -22 53 153 206 -22 z "},"Ǥ":{"ha":833,"x_min":0,"x_max":0,"o":"m 415 -22 b 746 207 578 -22 693 54 l 814 207 l 814 304 l 769 304 b 778 431 775 343 778 385 l 778 499 l 425 499 l 425 385 l 658 385 b 651 304 658 356 656 329 l 425 304 l 425 207 l 619 207 b 415 94 581 133 510 94 b 153 492 249 94 153 251 b 415 892 153 733 249 892 b 643 683 546 892 613 806 l 768 692 b 415 1008 725 875 613 1008 b 28 492 182 1008 28 807 b 415 -22 28 178 182 -22 z "},"H":{"ha":833,"x_min":0,"x_max":0,"o":"m 83 0 l 203 0 l 203 438 l 631 438 l 631 0 l 750 0 l 750 986 l 631 986 l 631 554 l 203 554 l 203 986 l 83 986 z "},"Ħ":{"ha":833,"x_min":0,"x_max":0,"o":"m 83 0 l 203 0 l 203 438 l 631 438 l 631 0 l 750 0 l 750 733 l 806 733 l 806 844 l 750 844 l 750 986 l 631 986 l 631 844 l 203 844 l 203 986 l 83 986 l 83 844 l 28 844 l 28 733 l 83 733 z m 203 554 l 203 733 l 631 733 l 631 554 z "},"Ĥ":{"ha":833,"x_min":0,"x_max":0,"o":"m 221 1081 l 318 1081 l 415 1206 l 513 1081 l 610 1081 l 481 1265 l 350 1265 z m 83 0 l 203 0 l 203 438 l 631 438 l 631 0 l 750 0 l 750 986 l 631 986 l 631 554 l 203 554 l 203 986 l 83 986 z "},"I":{"ha":833,"x_min":0,"x_max":0,"o":"m 111 0 l 722 0 l 722 117 l 476 117 l 476 869 l 722 869 l 722 986 l 111 986 l 111 869 l 357 869 l 357 117 l 111 117 z "},"Í":{"ha":833,"x_min":0,"x_max":0,"o":"m 364 1083 l 461 1083 l 586 1261 l 456 1261 z m 111 0 l 722 0 l 722 117 l 476 117 l 476 869 l 722 869 l 722 986 l 111 986 l 111 869 l 357 869 l 357 117 l 111 117 z "},"Î":{"ha":833,"x_min":0,"x_max":0,"o":"m 221 1081 l 318 1081 l 415 1206 l 513 1081 l 610 1081 l 481 1265 l 350 1265 z m 111 0 l 722 0 l 722 117 l 476 117 l 476 869 l 722 869 l 722 986 l 111 986 l 111 869 l 357 869 l 357 117 l 111 117 z "},"Ï":{"ha":833,"x_min":0,"x_max":0,"o":"m 222 1101 l 344 1101 l 344 1238 l 222 1238 z m 489 1101 l 611 1101 l 611 1238 l 489 1238 z m 111 0 l 722 0 l 722 117 l 476 117 l 476 869 l 722 869 l 722 986 l 111 986 l 111 869 l 357 869 l 357 117 l 111 117 z "},"İ":{"ha":833,"x_min":0,"x_max":0,"o":"m 354 1101 l 476 1101 l 476 1238 l 354 1238 z m 111 0 l 722 0 l 722 117 l 476 117 l 476 869 l 722 869 l 722 986 l 111 986 l 111 869 l 357 869 l 357 117 l 111 117 z "},"Ì":{"ha":833,"x_min":0,"x_max":0,"o":"m 375 1083 l 472 1083 l 381 1261 l 250 1261 z m 111 0 l 722 0 l 722 117 l 476 117 l 476 869 l 722 869 l 722 986 l 111 986 l 111 869 l 357 869 l 357 117 l 111 117 z "},"Ī":{"ha":833,"x_min":0,"x_max":0,"o":"m 229 1118 l 601 1118 l 601 1218 l 229 1218 z m 111 0 l 722 0 l 722 117 l 476 117 l 476 869 l 722 869 l 722 986 l 111 986 l 111 869 l 357 869 l 357 117 l 111 117 z "},"Į":{"ha":833,"x_min":0,"x_max":0,"o":"m 111 0 l 615 0 l 582 -42 b 525 -181 543 -90 525 -133 b 650 -292 525 -250 572 -292 b 769 -256 703 -292 747 -278 l 736 -178 b 672 -197 719 -192 692 -197 b 631 -156 646 -197 631 -183 b 674 -62 631 -133 638 -110 l 722 0 l 722 117 l 476 117 l 476 869 l 722 869 l 722 986 l 111 986 l 111 869 l 357 869 l 357 117 l 111 117 z "},"Ĩ":{"ha":833,"x_min":0,"x_max":0,"o":"m 500 1097 b 636 1264 579 1097 631 1158 l 564 1264 b 506 1172 558 1194 540 1172 b 436 1206 483 1172 465 1182 b 331 1250 404 1232 375 1250 b 197 1088 256 1250 200 1194 l 269 1088 b 331 1175 272 1154 297 1175 b 403 1139 358 1175 371 1165 b 500 1097 433 1114 464 1097 z m 111 0 l 722 0 l 722 117 l 476 117 l 476 869 l 722 869 l 722 986 l 111 986 l 111 869 l 357 869 l 357 117 l 111 117 z "},"J":{"ha":833,"x_min":0,"x_max":0,"o":"m 382 -22 b 708 331 583 -22 708 113 l 708 986 l 589 986 l 589 331 b 382 94 589 174 519 94 b 172 331 244 94 178 171 l 56 319 b 382 -22 61 111 188 -22 z "},"Ĵ":{"ha":833,"x_min":0,"x_max":0,"o":"m 450 1081 l 547 1081 l 644 1206 l 742 1081 l 839 1081 l 710 1265 l 579 1265 z m 382 -22 b 708 331 583 -22 708 113 l 708 986 l 589 986 l 589 331 b 382 94 589 174 519 94 b 172 331 244 94 178 171 l 56 319 b 382 -22 61 111 188 -22 z "},"K":{"ha":833,"x_min":0,"x_max":0,"o":"m 83 0 l 203 0 l 203 331 l 314 460 l 631 0 l 778 0 l 393 553 l 764 986 l 617 986 l 203 492 l 203 986 l 83 986 z "},"Ǩ":{"ha":833,"x_min":0,"x_max":0,"o":"m 190 1265 l 319 1081 l 450 1081 l 579 1265 l 482 1265 l 385 1140 l 288 1265 z m 83 0 l 203 0 l 203 331 l 314 460 l 631 0 l 778 0 l 393 553 l 764 986 l 617 986 l 203 492 l 203 986 l 83 986 z "},"Ķ":{"ha":833,"x_min":0,"x_max":0,"o":"m 83 0 l 203 0 l 203 331 l 314 460 l 631 0 l 778 0 l 393 553 l 764 986 l 617 986 l 203 492 l 203 986 l 83 986 z m 297 -333 l 375 -333 l 464 -194 l 464 -75 l 325 -75 l 325 -200 l 372 -200 z "},"L":{"ha":833,"x_min":0,"x_max":0,"o":"m 139 0 l 750 0 l 750 117 l 258 117 l 258 986 l 139 986 z "},"Ĺ":{"ha":833,"x_min":0,"x_max":0,"o":"m 146 1083 l 243 1083 l 368 1261 l 238 1261 z m 139 0 l 750 0 l 750 117 l 258 117 l 258 986 l 139 986 z "},"Ľ":{"ha":833,"x_min":0,"x_max":0,"o":"m 139 0 l 750 0 l 750 117 l 258 117 l 258 986 l 139 986 z m 492 633 l 575 633 l 650 986 l 533 986 z "},"Ļ":{"ha":833,"x_min":0,"x_max":0,"o":"m 139 0 l 750 0 l 750 117 l 258 117 l 258 986 l 139 986 z m 349 -333 l 426 -333 l 515 -194 l 515 -75 l 376 -75 l 376 -200 l 424 -200 z "},"Ł":{"ha":833,"x_min":0,"x_max":0,"o":"m 139 0 l 750 0 l 750 117 l 258 117 l 258 476 l 469 586 l 469 692 l 258 582 l 258 986 l 139 986 l 139 519 l 42 469 l 42 364 l 139 414 z "},"M":{"ha":833,"x_min":0,"x_max":0,"o":"m 364 111 l 469 111 l 644 829 l 644 0 l 764 0 l 764 986 l 583 986 l 417 290 l 250 986 l 69 986 l 69 0 l 189 0 l 189 829 z "},"N":{"ha":833,"x_min":0,"x_max":0,"o":"m 97 0 l 217 0 l 217 850 l 567 0 l 736 0 l 736 986 l 617 986 l 617 136 l 267 986 l 97 986 z "},"Ń":{"ha":833,"x_min":0,"x_max":0,"o":"m 364 1083 l 461 1083 l 586 1261 l 456 1261 z m 97 0 l 217 0 l 217 850 l 567 0 l 736 0 l 736 986 l 617 986 l 617 136 l 267 986 l 97 986 z "},"Ň":{"ha":833,"x_min":0,"x_max":0,"o":"m 222 1265 l 351 1081 l 482 1081 l 611 1265 l 514 1265 l 417 1140 l 319 1265 z m 97 0 l 217 0 l 217 850 l 567 0 l 736 0 l 736 986 l 617 986 l 617 136 l 267 986 l 97 986 z "},"Ņ":{"ha":833,"x_min":0,"x_max":0,"o":"m 97 0 l 217 0 l 217 850 l 567 0 l 736 0 l 736 986 l 617 986 l 617 136 l 267 986 l 97 986 z m 319 -333 l 397 -333 l 486 -194 l 486 -75 l 347 -75 l 347 -200 l 394 -200 z "},"Ñ":{"ha":833,"x_min":0,"x_max":0,"o":"m 500 1097 b 636 1264 579 1097 631 1158 l 564 1264 b 506 1172 558 1194 540 1172 b 436 1206 483 1172 465 1182 b 331 1250 404 1232 375 1250 b 197 1088 256 1250 200 1194 l 269 1088 b 331 1175 272 1154 297 1175 b 403 1139 358 1175 371 1165 b 500 1097 433 1114 464 1097 z m 97 0 l 217 0 l 217 850 l 567 0 l 736 0 l 736 986 l 617 986 l 617 136 l 267 986 l 97 986 z "},"Ŋ":{"ha":833,"x_min":0,"x_max":0,"o":"m 97 0 l 217 0 l 217 850 l 567 0 l 617 0 l 617 -11 b 528 -92 617 -64 586 -92 l 385 -92 l 385 -208 l 528 -208 b 736 -10 656 -208 736 -131 l 736 986 l 617 986 l 617 136 l 267 986 l 97 986 z "},"O":{"ha":833,"x_min":0,"x_max":0,"o":"m 417 -22 b 781 492 650 -22 781 163 b 417 1008 781 824 650 1008 b 53 492 183 1008 53 824 b 417 -22 53 163 183 -22 z m 417 94 b 178 492 264 94 178 233 b 417 892 178 750 264 892 b 656 492 569 892 656 750 b 417 94 656 233 569 94 z "},"Ó":{"ha":833,"x_min":0,"x_max":0,"o":"m 364 1083 l 461 1083 l 586 1261 l 456 1261 z m 417 -22 b 781 492 650 -22 781 163 b 417 1008 781 824 650 1008 b 53 492 183 1008 53 824 b 417 -22 53 163 183 -22 z m 417 94 b 178 492 264 94 178 233 b 417 892 178 750 264 892 b 656 492 569 892 656 750 b 417 94 656 233 569 94 z "},"Ô":{"ha":833,"x_min":0,"x_max":0,"o":"m 221 1081 l 318 1081 l 415 1206 l 513 1081 l 610 1081 l 481 1265 l 350 1265 z m 417 -22 b 781 492 650 -22 781 163 b 417 1008 781 824 650 1008 b 53 492 183 1008 53 824 b 417 -22 53 163 183 -22 z m 417 94 b 178 492 264 94 178 233 b 417 892 178 750 264 892 b 656 492 569 892 656 750 b 417 94 656 233 569 94 z "},"Ö":{"ha":833,"x_min":0,"x_max":0,"o":"m 222 1101 l 344 1101 l 344 1238 l 222 1238 z m 489 1101 l 611 1101 l 611 1238 l 489 1238 z m 417 -22 b 781 492 650 -22 781 163 b 417 1008 781 824 650 1008 b 53 492 183 1008 53 824 b 417 -22 53 163 183 -22 z m 417 94 b 178 492 264 94 178 233 b 417 892 178 750 264 892 b 656 492 569 892 656 750 b 417 94 656 233 569 94 z "},"Ò":{"ha":833,"x_min":0,"x_max":0,"o":"m 375 1083 l 472 1083 l 381 1261 l 250 1261 z m 417 -22 b 781 492 650 -22 781 163 b 417 1008 781 824 650 1008 b 53 492 183 1008 53 824 b 417 -22 53 163 183 -22 z m 417 94 b 178 492 264 94 178 233 b 417 892 178 750 264 892 b 656 492 569 892 656 750 b 417 94 656 233 569 94 z "},"Ő":{"ha":833,"x_min":0,"x_max":0,"o":"m 264 1081 l 361 1081 l 486 1258 l 356 1258 z m 458 1081 l 556 1081 l 681 1258 l 550 1258 z m 417 -22 b 781 492 650 -22 781 163 b 417 1008 781 824 650 1008 b 53 492 183 1008 53 824 b 417 -22 53 163 183 -22 z m 417 94 b 178 492 264 94 178 233 b 417 892 178 750 264 892 b 656 492 569 892 656 750 b 417 94 656 233 569 94 z "},"Ō":{"ha":833,"x_min":0,"x_max":0,"o":"m 229 1118 l 601 1118 l 601 1218 l 229 1218 z m 417 -22 b 781 492 650 -22 781 163 b 417 1008 781 824 650 1008 b 53 492 183 1008 53 824 b 417 -22 53 163 183 -22 z m 417 94 b 178 492 264 94 178 233 b 417 892 178 750 264 892 b 656 492 569 892 656 750 b 417 94 656 233 569 94 z "},"Ø":{"ha":833,"x_min":0,"x_max":0,"o":"m 56 -22 l 172 -22 l 211 43 b 417 -22 267 0 335 -22 b 781 492 650 -22 781 163 b 693 864 781 651 750 776 l 778 1008 l 661 1008 l 622 942 b 417 1008 567 986 499 1008 b 53 492 183 1008 53 824 b 140 122 53 333 83 208 z m 178 492 b 417 892 178 750 264 892 b 558 833 474 892 521 872 l 215 249 b 178 492 190 311 178 393 z m 417 94 b 275 151 360 94 313 114 l 618 738 b 656 492 643 674 656 592 b 417 94 656 233 569 94 z "},"Õ":{"ha":833,"x_min":0,"x_max":0,"o":"m 500 1097 b 636 1264 579 1097 631 1158 l 564 1264 b 506 1172 558 1194 540 1172 b 436 1206 483 1172 465 1182 b 331 1250 404 1232 375 1250 b 197 1088 256 1250 200 1194 l 269 1088 b 331 1175 272 1154 297 1175 b 403 1139 358 1175 371 1165 b 500 1097 433 1114 464 1097 z m 417 -22 b 781 492 650 -22 781 163 b 417 1008 781 824 650 1008 b 53 492 183 1008 53 824 b 417 -22 53 163 183 -22 z m 417 94 b 178 492 264 94 178 233 b 417 892 178 750 264 892 b 656 492 569 892 656 750 b 417 94 656 233 569 94 z "},"Œ":{"ha":833,"x_min":0,"x_max":0,"o":"m 294 -22 b 456 61 361 -22 414 8 l 456 0 l 819 0 l 819 117 l 575 117 l 575 438 l 792 438 l 792 551 l 575 551 l 575 869 l 808 869 l 808 986 l 456 986 l 456 924 b 294 1008 414 978 361 1008 b 14 492 115 1008 14 825 b 294 -22 14 158 115 -22 z m 294 94 b 136 492 176 94 136 233 b 294 892 136 753 176 892 b 453 492 413 892 453 753 b 294 94 453 233 413 94 z "},"P":{"ha":833,"x_min":0,"x_max":0,"o":"m 125 0 l 244 0 l 244 383 l 425 383 b 764 685 631 383 764 496 b 425 986 764 874 631 986 l 125 986 z m 244 500 l 244 869 l 411 869 b 639 685 567 869 639 804 b 411 500 639 565 567 500 z "},"Þ":{"ha":833,"x_min":0,"x_max":0,"o":"m 125 0 l 244 0 l 244 207 l 428 207 b 778 511 649 207 778 321 b 428 808 778 699 649 808 l 244 808 l 244 986 l 125 986 z m 428 692 b 653 511 578 692 653 632 b 428 324 653 388 578 324 l 244 324 l 244 692 z "},"Q":{"ha":833,"x_min":0,"x_max":0,"o":"m 417 -22 b 535 -4 460 -22 499 -17 l 597 -96 l 725 -96 l 626 47 b 781 492 726 129 781 281 b 417 1008 781 824 650 1008 b 53 492 183 1008 53 824 b 417 -22 53 163 183 -22 z m 417 94 b 178 492 264 94 178 233 b 417 892 178 750 264 892 b 656 492 569 892 656 750 b 557 150 656 328 621 213 l 461 289 l 333 289 l 464 99 b 417 94 449 96 433 94 z "},"R":{"ha":833,"x_min":0,"x_max":0,"o":"m 97 0 l 217 0 l 217 397 l 422 397 b 599 268 550 397 590 360 l 622 0 l 742 0 l 717 283 b 567 460 707 389 661 442 b 733 692 654 489 733 575 b 397 986 733 875 604 986 l 97 986 z m 217 514 l 217 869 l 397 869 b 608 692 533 869 608 806 b 397 514 608 578 533 514 z "},"Ŕ":{"ha":833,"x_min":0,"x_max":0,"o":"m 344 1083 l 442 1083 l 567 1261 l 436 1261 z m 97 0 l 217 0 l 217 397 l 422 397 b 599 268 550 397 590 360 l 622 0 l 742 0 l 717 283 b 567 460 707 389 661 442 b 733 692 654 489 733 575 b 397 986 733 875 604 986 l 97 986 z m 217 514 l 217 869 l 397 869 b 608 692 533 869 608 806 b 397 514 608 578 533 514 z "},"Ř":{"ha":833,"x_min":0,"x_max":0,"o":"m 203 1265 l 332 1081 l 463 1081 l 592 1265 l 494 1265 l 397 1140 l 300 1265 z m 97 0 l 217 0 l 217 397 l 422 397 b 599 268 550 397 590 360 l 622 0 l 742 0 l 717 283 b 567 460 707 389 661 442 b 733 692 654 489 733 575 b 397 986 733 875 604 986 l 97 986 z m 217 514 l 217 869 l 397 869 b 608 692 533 869 608 806 b 397 514 608 578 533 514 z "},"Ŗ":{"ha":833,"x_min":0,"x_max":0,"o":"m 97 0 l 217 0 l 217 397 l 422 397 b 599 268 550 397 590 360 l 622 0 l 742 0 l 717 283 b 567 460 707 389 661 442 b 733 692 654 489 733 575 b 397 986 733 875 604 986 l 97 986 z m 217 514 l 217 869 l 397 869 b 608 692 533 869 608 806 b 397 514 608 578 533 514 z m 325 -333 l 403 -333 l 492 -194 l 492 -75 l 353 -75 l 353 -200 l 400 -200 z "},"S":{"ha":833,"x_min":0,"x_max":0,"o":"m 432 -22 b 772 242 633 -22 772 86 b 446 556 772 406 686 488 b 210 733 260 608 210 640 b 410 892 210 828 288 892 b 629 686 543 892 613 806 l 754 694 b 413 1008 732 875 615 1008 b 85 728 210 1008 85 893 b 371 456 85 581 165 514 b 647 244 600 390 647 339 b 435 94 647 149 572 94 b 186 324 296 94 206 176 l 61 315 b 432 -22 78 115 224 -22 z "},"Ś":{"ha":833,"x_min":0,"x_max":0,"o":"m 363 1083 l 460 1083 l 585 1261 l 454 1261 z m 432 -22 b 772 242 633 -22 772 86 b 446 556 772 406 686 488 b 210 733 260 608 210 640 b 410 892 210 828 288 892 b 629 686 543 892 613 806 l 754 694 b 413 1008 732 875 615 1008 b 85 728 210 1008 85 893 b 371 456 85 581 165 514 b 647 244 600 390 647 339 b 435 94 647 149 572 94 b 186 324 296 94 206 176 l 61 315 b 432 -22 78 115 224 -22 z "},"Š":{"ha":833,"x_min":0,"x_max":0,"o":"m 221 1265 l 350 1081 l 481 1081 l 610 1265 l 513 1265 l 415 1140 l 318 1265 z m 432 -22 b 772 242 633 -22 772 86 b 446 556 772 406 686 488 b 210 733 260 608 210 640 b 410 892 210 828 288 892 b 629 686 543 892 613 806 l 754 694 b 413 1008 732 875 615 1008 b 85 728 210 1008 85 893 b 371 456 85 581 165 514 b 647 244 600 390 647 339 b 435 94 647 149 572 94 b 186 324 296 94 206 176 l 61 315 b 432 -22 78 115 224 -22 z "},"Ş":{"ha":833,"x_min":0,"x_max":0,"o":"m 403 -306 b 558 -175 493 -306 558 -253 b 425 -50 558 -103 515 -54 l 446 -22 b 772 242 640 -17 772 90 b 446 556 772 406 686 488 b 210 733 260 608 210 640 b 410 892 210 828 288 892 b 629 686 543 892 613 806 l 754 694 b 413 1008 732 875 615 1008 b 85 728 210 1008 85 893 b 371 456 85 581 165 514 b 647 244 600 390 647 339 b 435 94 647 149 572 94 b 186 324 296 94 206 176 l 61 315 b 364 -17 76 138 192 10 l 331 -69 l 369 -111 b 475 -172 458 -111 475 -137 b 400 -228 475 -207 447 -228 b 311 -169 354 -228 328 -211 l 240 -197 b 403 -306 260 -258 314 -306 z "},"Ŝ":{"ha":833,"x_min":0,"x_max":0,"o":"m 219 1081 l 317 1081 l 414 1206 l 511 1081 l 608 1081 l 479 1265 l 349 1265 z m 432 -22 b 772 242 633 -22 772 86 b 446 556 772 406 686 488 b 210 733 260 608 210 640 b 410 892 210 828 288 892 b 629 686 543 892 613 806 l 754 694 b 413 1008 732 875 615 1008 b 85 728 210 1008 85 893 b 371 456 85 581 165 514 b 647 244 600 390 647 339 b 435 94 647 149 572 94 b 186 324 296 94 206 176 l 61 315 b 432 -22 78 115 224 -22 z "},"Ș":{"ha":833,"x_min":0,"x_max":0,"o":"m 432 -22 b 772 242 633 -22 772 86 b 446 556 772 406 686 488 b 210 733 260 608 210 640 b 410 892 210 828 288 892 b 629 686 543 892 613 806 l 754 694 b 413 1008 732 875 615 1008 b 85 728 210 1008 85 893 b 371 456 85 581 165 514 b 647 244 600 390 647 339 b 435 94 647 149 572 94 b 186 324 296 94 206 176 l 61 315 b 432 -22 78 115 224 -22 z m 319 -333 l 397 -333 l 486 -194 l 486 -75 l 347 -75 l 347 -200 l 394 -200 z "},"ẞ":{"ha":833,"x_min":0,"x_max":0,"o":"m 50 0 l 169 0 l 169 693 b 331 869 169 806 229 869 l 581 869 l 299 599 l 299 490 l 418 490 b 675 301 589 490 675 421 b 449 117 675 189 589 117 l 263 117 l 263 0 l 449 0 b 799 307 663 0 799 125 b 426 592 799 479 649 596 l 732 858 l 732 986 l 328 986 b 50 696 157 986 50 875 z "},"T":{"ha":833,"x_min":0,"x_max":0,"o":"m 357 0 l 476 0 l 476 869 l 778 869 l 778 986 l 56 986 l 56 869 l 357 869 z "},"Ŧ":{"ha":833,"x_min":0,"x_max":0,"o":"m 357 0 l 476 0 l 476 429 l 639 429 l 639 538 l 476 538 l 476 869 l 778 869 l 778 986 l 56 986 l 56 869 l 357 869 l 357 538 l 194 538 l 194 429 l 357 429 z "},"Ť":{"ha":833,"x_min":0,"x_max":0,"o":"m 222 1265 l 351 1081 l 482 1081 l 611 1265 l 514 1265 l 417 1140 l 319 1265 z m 357 0 l 476 0 l 476 869 l 778 869 l 778 986 l 56 986 l 56 869 l 357 869 z "},"Ţ":{"ha":833,"x_min":0,"x_max":0,"o":"m 357 0 l 375 0 l 331 -69 l 369 -111 b 475 -172 458 -111 475 -137 b 400 -228 475 -207 447 -228 b 311 -169 354 -228 328 -211 l 240 -197 b 403 -306 260 -258 314 -306 b 558 -175 493 -306 558 -253 b 425 -50 558 -103 515 -54 l 463 0 l 476 0 l 476 869 l 778 869 l 778 986 l 56 986 l 56 869 l 357 869 z "},"Ț":{"ha":833,"x_min":0,"x_max":0,"o":"m 357 0 l 476 0 l 476 869 l 778 869 l 778 986 l 56 986 l 56 869 l 357 869 z m 319 -333 l 397 -333 l 486 -194 l 486 -75 l 347 -75 l 347 -200 l 394 -200 z "},"U":{"ha":833,"x_min":0,"x_max":0,"o":"m 417 -22 b 750 344 624 -22 750 118 l 750 986 l 631 986 l 631 344 b 417 94 631 182 556 94 b 203 344 278 94 203 182 l 203 986 l 83 986 l 83 344 b 417 -22 83 118 210 -22 z "},"Ú":{"ha":833,"x_min":0,"x_max":0,"o":"m 364 1083 l 461 1083 l 586 1261 l 456 1261 z m 417 -22 b 750 344 624 -22 750 118 l 750 986 l 631 986 l 631 344 b 417 94 631 182 556 94 b 203 344 278 94 203 182 l 203 986 l 83 986 l 83 344 b 417 -22 83 118 210 -22 z "},"Ŭ":{"ha":833,"x_min":0,"x_max":0,"o":"m 417 1088 b 611 1265 531 1088 606 1157 l 531 1265 b 417 1174 522 1201 481 1174 b 303 1265 353 1174 311 1201 l 222 1265 b 417 1088 228 1157 303 1088 z m 417 -22 b 750 344 624 -22 750 118 l 750 986 l 631 986 l 631 344 b 417 94 631 182 556 94 b 203 344 278 94 203 182 l 203 986 l 83 986 l 83 344 b 417 -22 83 118 210 -22 z "},"Û":{"ha":833,"x_min":0,"x_max":0,"o":"m 221 1081 l 318 1081 l 415 1206 l 513 1081 l 610 1081 l 481 1265 l 350 1265 z m 417 -22 b 750 344 624 -22 750 118 l 750 986 l 631 986 l 631 344 b 417 94 631 182 556 94 b 203 344 278 94 203 182 l 203 986 l 83 986 l 83 344 b 417 -22 83 118 210 -22 z "},"Ü":{"ha":833,"x_min":0,"x_max":0,"o":"m 222 1101 l 344 1101 l 344 1238 l 222 1238 z m 489 1101 l 611 1101 l 611 1238 l 489 1238 z m 417 -22 b 750 344 624 -22 750 118 l 750 986 l 631 986 l 631 344 b 417 94 631 182 556 94 b 203 344 278 94 203 182 l 203 986 l 83 986 l 83 344 b 417 -22 83 118 210 -22 z "},"Ù":{"ha":833,"x_min":0,"x_max":0,"o":"m 375 1083 l 472 1083 l 381 1261 l 250 1261 z m 417 -22 b 750 344 624 -22 750 118 l 750 986 l 631 986 l 631 344 b 417 94 631 182 556 94 b 203 344 278 94 203 182 l 203 986 l 83 986 l 83 344 b 417 -22 83 118 210 -22 z "},"Ű":{"ha":833,"x_min":0,"x_max":0,"o":"m 264 1081 l 361 1081 l 486 1258 l 356 1258 z m 458 1081 l 556 1081 l 681 1258 l 550 1258 z m 417 -22 b 750 344 624 -22 750 118 l 750 986 l 631 986 l 631 344 b 417 94 631 182 556 94 b 203 344 278 94 203 182 l 203 986 l 83 986 l 83 344 b 417 -22 83 118 210 -22 z "},"Ū":{"ha":833,"x_min":0,"x_max":0,"o":"m 229 1118 l 601 1118 l 601 1218 l 229 1218 z m 417 -22 b 750 344 624 -22 750 118 l 750 986 l 631 986 l 631 344 b 417 94 631 182 556 94 b 203 344 278 94 203 182 l 203 986 l 83 986 l 83 344 b 417 -22 83 118 210 -22 z "},"Ų":{"ha":833,"x_min":0,"x_max":0,"o":"m 417 -22 l 422 -22 l 407 -42 b 350 -181 368 -90 350 -133 b 475 -292 350 -250 397 -292 b 594 -256 528 -292 572 -278 l 561 -178 b 497 -197 544 -192 517 -197 b 456 -156 471 -197 456 -183 b 499 -62 456 -133 463 -110 l 547 0 b 750 344 675 47 750 171 l 750 986 l 631 986 l 631 344 b 417 94 631 182 556 94 b 203 344 278 94 203 182 l 203 986 l 83 986 l 83 344 b 417 -22 83 118 210 -22 z "},"Ů":{"ha":833,"x_min":0,"x_max":0,"o":"m 417 1050 b 544 1178 489 1050 544 1106 b 417 1306 544 1250 489 1306 b 289 1178 344 1306 289 1250 b 417 1050 289 1106 344 1050 z m 417 1119 b 358 1178 383 1119 358 1144 b 417 1236 358 1211 383 1236 b 475 1178 450 1236 475 1211 b 417 1119 475 1144 450 1119 z m 417 -22 b 750 344 624 -22 750 118 l 750 986 l 631 986 l 631 344 b 417 94 631 182 556 94 b 203 344 278 94 203 182 l 203 986 l 83 986 l 83 344 b 417 -22 83 118 210 -22 z "},"Ũ":{"ha":833,"x_min":0,"x_max":0,"o":"m 500 1097 b 636 1264 579 1097 631 1158 l 564 1264 b 506 1172 558 1194 540 1172 b 436 1206 483 1172 465 1182 b 331 1250 404 1232 375 1250 b 197 1088 256 1250 200 1194 l 269 1088 b 331 1175 272 1154 297 1175 b 403 1139 358 1175 371 1165 b 500 1097 433 1114 464 1097 z m 417 -22 b 750 344 624 -22 750 118 l 750 986 l 631 986 l 631 344 b 417 94 631 182 556 94 b 203 344 278 94 203 182 l 203 986 l 83 986 l 83 344 b 417 -22 83 118 210 -22 z "},"V":{"ha":833,"x_min":0,"x_max":0,"o":"m 339 0 l 494 0 l 792 986 l 664 986 l 417 135 l 169 986 l 42 986 z "},"W":{"ha":833,"x_min":0,"x_max":0,"o":"m 150 0 l 331 0 l 417 651 l 503 0 l 683 0 l 792 986 l 667 986 l 581 129 l 481 875 l 353 875 l 253 129 l 167 986 l 42 986 z "},"Ẃ":{"ha":833,"x_min":0,"x_max":0,"o":"m 364 1083 l 461 1083 l 586 1261 l 456 1261 z m 150 0 l 331 0 l 417 651 l 503 0 l 683 0 l 792 986 l 667 986 l 581 129 l 481 875 l 353 875 l 253 129 l 167 986 l 42 986 z "},"Ŵ":{"ha":833,"x_min":0,"x_max":0,"o":"m 221 1081 l 318 1081 l 415 1206 l 513 1081 l 610 1081 l 481 1265 l 350 1265 z m 150 0 l 331 0 l 417 651 l 503 0 l 683 0 l 792 986 l 667 986 l 581 129 l 481 875 l 353 875 l 253 129 l 167 986 l 42 986 z "},"Ẅ":{"ha":833,"x_min":0,"x_max":0,"o":"m 222 1101 l 344 1101 l 344 1238 l 222 1238 z m 489 1101 l 611 1101 l 611 1238 l 489 1238 z m 150 0 l 331 0 l 417 651 l 503 0 l 683 0 l 792 986 l 667 986 l 581 129 l 481 875 l 353 875 l 253 129 l 167 986 l 42 986 z "},"Ẁ":{"ha":833,"x_min":0,"x_max":0,"o":"m 375 1083 l 472 1083 l 381 1261 l 250 1261 z m 150 0 l 331 0 l 417 651 l 503 0 l 683 0 l 792 986 l 667 986 l 581 129 l 481 875 l 353 875 l 253 129 l 167 986 l 42 986 z "},"X":{"ha":833,"x_min":0,"x_max":0,"o":"m 69 0 l 206 0 l 415 401 l 625 0 l 764 0 l 492 494 l 758 986 l 622 986 l 418 590 l 214 986 l 75 986 l 342 496 z "},"Y":{"ha":833,"x_min":0,"x_max":0,"o":"m 358 0 l 478 0 l 478 403 l 778 986 l 642 986 l 417 525 l 192 986 l 56 986 l 358 403 z "},"Ý":{"ha":833,"x_min":0,"x_max":0,"o":"m 364 1083 l 461 1083 l 586 1261 l 456 1261 z m 358 0 l 478 0 l 478 403 l 778 986 l 642 986 l 417 525 l 192 986 l 56 986 l 358 403 z "},"Ŷ":{"ha":833,"x_min":0,"x_max":0,"o":"m 221 1081 l 318 1081 l 415 1206 l 513 1081 l 610 1081 l 481 1265 l 350 1265 z m 358 0 l 478 0 l 478 403 l 778 986 l 642 986 l 417 525 l 192 986 l 56 986 l 358 403 z "},"Ÿ":{"ha":833,"x_min":0,"x_max":0,"o":"m 222 1101 l 344 1101 l 344 1238 l 222 1238 z m 489 1101 l 611 1101 l 611 1238 l 489 1238 z m 358 0 l 478 0 l 478 403 l 778 986 l 642 986 l 417 525 l 192 986 l 56 986 l 358 403 z "},"Ỳ":{"ha":833,"x_min":0,"x_max":0,"o":"m 375 1083 l 472 1083 l 381 1261 l 250 1261 z m 358 0 l 478 0 l 478 403 l 778 986 l 642 986 l 417 525 l 192 986 l 56 986 l 358 403 z "},"Ỹ":{"ha":833,"x_min":0,"x_max":0,"o":"m 500 1097 b 636 1264 579 1097 631 1158 l 564 1264 b 506 1172 558 1194 540 1172 b 436 1206 483 1172 465 1182 b 331 1250 404 1232 375 1250 b 197 1088 256 1250 200 1194 l 269 1088 b 331 1175 272 1154 297 1175 b 403 1139 358 1175 371 1165 b 500 1097 433 1114 464 1097 z m 358 0 l 478 0 l 478 403 l 778 986 l 642 986 l 417 525 l 192 986 l 56 986 l 358 403 z "},"Z":{"ha":833,"x_min":0,"x_max":0,"o":"m 69 0 l 764 0 l 764 117 l 203 117 l 753 867 l 753 986 l 94 986 l 94 869 l 619 869 l 69 119 z "},"Ź":{"ha":833,"x_min":0,"x_max":0,"o":"m 364 1083 l 461 1083 l 586 1261 l 456 1261 z m 69 0 l 764 0 l 764 117 l 203 117 l 753 867 l 753 986 l 94 986 l 94 869 l 619 869 l 69 119 z "},"Ž":{"ha":833,"x_min":0,"x_max":0,"o":"m 222 1265 l 351 1081 l 482 1081 l 611 1265 l 514 1265 l 417 1140 l 319 1265 z m 69 0 l 764 0 l 764 117 l 203 117 l 753 867 l 753 986 l 94 986 l 94 869 l 619 869 l 69 119 z "},"Ż":{"ha":833,"x_min":0,"x_max":0,"o":"m 354 1101 l 476 1101 l 476 1238 l 354 1238 z m 69 0 l 764 0 l 764 117 l 203 117 l 753 867 l 753 986 l 94 986 l 94 869 l 619 869 l 69 119 z "},"Ꞌ":{"ha":833,"x_min":0,"x_max":0,"o":"m 375 525 l 458 525 l 478 797 l 478 986 l 356 986 l 356 797 z "},"a":{"ha":833,"x_min":0,"x_max":0,"o":"m 319 -17 b 560 104 425 -17 519 32 b 703 -3 575 29 622 -3 b 764 0 725 -3 753 -1 l 764 103 l 717 103 b 672 147 686 103 672 114 l 672 453 b 392 753 672 639 569 753 b 89 519 225 753 117 658 l 213 510 b 392 642 235 594 289 642 b 556 456 497 642 556 581 l 308 406 b 75 183 147 374 75 308 b 319 -17 75 64 181 -17 z m 331 86 b 197 194 247 86 197 125 b 331 311 197 256 231 292 l 556 356 l 556 292 b 331 86 556 169 481 86 z "},"á":{"ha":833,"x_min":0,"x_max":0,"o":"m 342 833 l 439 833 l 564 1011 l 433 1011 z m 319 -17 b 560 104 425 -17 519 32 b 703 -3 575 29 622 -3 b 764 0 725 -3 753 -1 l 764 103 l 717 103 b 672 147 686 103 672 114 l 672 453 b 392 753 672 639 569 753 b 89 519 225 753 117 658 l 213 510 b 392 642 235 594 289 642 b 556 456 497 642 556 581 l 308 406 b 75 183 147 374 75 308 b 319 -17 75 64 181 -17 z m 331 86 b 197 194 247 86 197 125 b 331 311 197 256 231 292 l 556 356 l 556 292 b 331 86 556 169 481 86 z "},"ă":{"ha":833,"x_min":0,"x_max":0,"o":"m 394 838 b 589 1015 508 838 583 907 l 508 1015 b 394 924 500 951 458 924 b 281 1015 331 924 289 951 l 200 1015 b 394 838 206 907 281 838 z m 319 -17 b 560 104 425 -17 519 32 b 703 -3 575 29 622 -3 b 764 0 725 -3 753 -1 l 764 103 l 717 103 b 672 147 686 103 672 114 l 672 453 b 392 753 672 639 569 753 b 89 519 225 753 117 658 l 213 510 b 392 642 235 594 289 642 b 556 456 497 642 556 581 l 308 406 b 75 183 147 374 75 308 b 319 -17 75 64 181 -17 z m 331 86 b 197 194 247 86 197 125 b 331 311 197 256 231 292 l 556 356 l 556 292 b 331 86 556 169 481 86 z "},"ǎ":{"ha":833,"x_min":0,"x_max":0,"o":"m 200 1015 l 329 831 l 460 831 l 589 1015 l 492 1015 l 394 890 l 297 1015 z m 319 -17 b 560 104 425 -17 519 32 b 703 -3 575 29 622 -3 b 764 0 725 -3 753 -1 l 764 103 l 717 103 b 672 147 686 103 672 114 l 672 453 b 392 753 672 639 569 753 b 89 519 225 753 117 658 l 213 510 b 392 642 235 594 289 642 b 556 456 497 642 556 581 l 308 406 b 75 183 147 374 75 308 b 319 -17 75 64 181 -17 z m 331 86 b 197 194 247 86 197 125 b 331 311 197 256 231 292 l 556 356 l 556 292 b 331 86 556 169 481 86 z "},"â":{"ha":833,"x_min":0,"x_max":0,"o":"m 199 831 l 296 831 l 393 956 l 490 831 l 588 831 l 458 1015 l 328 1015 z m 319 -17 b 560 104 425 -17 519 32 b 703 -3 575 29 622 -3 b 764 0 725 -3 753 -1 l 764 103 l 717 103 b 672 147 686 103 672 114 l 672 453 b 392 753 672 639 569 753 b 89 519 225 753 117 658 l 213 510 b 392 642 235 594 289 642 b 556 456 497 642 556 581 l 308 406 b 75 183 147 374 75 308 b 319 -17 75 64 181 -17 z m 331 86 b 197 194 247 86 197 125 b 331 311 197 256 231 292 l 556 356 l 556 292 b 331 86 556 169 481 86 z "},"ä":{"ha":833,"x_min":0,"x_max":0,"o":"m 200 851 l 322 851 l 322 988 l 200 988 z m 467 851 l 589 851 l 589 988 l 467 988 z m 319 -17 b 560 104 425 -17 519 32 b 703 -3 575 29 622 -3 b 764 0 725 -3 753 -1 l 764 103 l 717 103 b 672 147 686 103 672 114 l 672 453 b 392 753 672 639 569 753 b 89 519 225 753 117 658 l 213 510 b 392 642 235 594 289 642 b 556 456 497 642 556 581 l 308 406 b 75 183 147 374 75 308 b 319 -17 75 64 181 -17 z m 331 86 b 197 194 247 86 197 125 b 331 311 197 256 231 292 l 556 356 l 556 292 b 331 86 556 169 481 86 z "},"à":{"ha":833,"x_min":0,"x_max":0,"o":"m 353 833 l 450 833 l 358 1011 l 228 1011 z m 319 -17 b 560 104 425 -17 519 32 b 703 -3 575 29 622 -3 b 764 0 725 -3 753 -1 l 764 103 l 717 103 b 672 147 686 103 672 114 l 672 453 b 392 753 672 639 569 753 b 89 519 225 753 117 658 l 213 510 b 392 642 235 594 289 642 b 556 456 497 642 556 581 l 308 406 b 75 183 147 374 75 308 b 319 -17 75 64 181 -17 z m 331 86 b 197 194 247 86 197 125 b 331 311 197 256 231 292 l 556 356 l 556 292 b 331 86 556 169 481 86 z "},"ā":{"ha":833,"x_min":0,"x_max":0,"o":"m 207 868 l 579 868 l 579 968 l 207 968 z m 319 -17 b 560 104 425 -17 519 32 b 703 -3 575 29 622 -3 b 764 0 725 -3 753 -1 l 764 103 l 717 103 b 672 147 686 103 672 114 l 672 453 b 392 753 672 639 569 753 b 89 519 225 753 117 658 l 213 510 b 392 642 235 594 289 642 b 556 456 497 642 556 581 l 308 406 b 75 183 147 374 75 308 b 319 -17 75 64 181 -17 z m 331 86 b 197 194 247 86 197 125 b 331 311 197 256 231 292 l 556 356 l 556 292 b 331 86 556 169 481 86 z "},"ą":{"ha":833,"x_min":0,"x_max":0,"o":"m 319 -17 b 560 104 425 -17 519 32 b 658 1 572 44 604 11 l 624 -42 b 567 -181 585 -90 567 -133 b 692 -292 567 -250 614 -292 b 811 -256 744 -292 789 -278 l 778 -178 b 714 -197 761 -192 733 -197 b 672 -156 688 -197 672 -183 b 715 -62 672 -133 679 -110 l 764 0 l 764 103 l 717 103 b 672 147 686 103 672 114 l 672 453 b 392 753 672 639 569 753 b 89 519 225 753 117 658 l 213 510 b 392 642 235 594 289 642 b 556 456 497 642 556 581 l 308 406 b 75 183 147 374 75 308 b 319 -17 75 64 181 -17 z m 331 86 b 197 194 247 86 197 125 b 331 311 197 256 231 292 l 556 356 l 556 292 b 331 86 556 169 481 86 z "},"å":{"ha":833,"x_min":0,"x_max":0,"o":"m 394 800 b 522 928 467 800 522 856 b 394 1056 522 1000 467 1056 b 267 928 322 1056 267 1000 b 394 800 267 856 322 800 z m 394 869 b 336 928 361 869 336 894 b 394 986 336 961 361 986 b 453 928 428 986 453 961 b 394 869 453 894 428 869 z m 319 -17 b 560 104 425 -17 519 32 b 703 -3 575 29 622 -3 b 764 0 725 -3 753 -1 l 764 103 l 717 103 b 672 147 686 103 672 114 l 672 453 b 392 753 672 639 569 753 b 89 519 225 753 117 658 l 213 510 b 392 642 235 594 289 642 b 556 456 497 642 556 581 l 308 406 b 75 183 147 374 75 308 b 319 -17 75 64 181 -17 z m 331 86 b 197 194 247 86 197 125 b 331 311 197 256 231 292 l 556 356 l 556 292 b 331 86 556 169 481 86 z "},"ã":{"ha":833,"x_min":0,"x_max":0,"o":"m 478 847 b 614 1014 557 847 608 908 l 542 1014 b 483 922 536 944 518 922 b 414 956 461 922 443 932 b 308 1000 382 982 353 1000 b 175 838 233 1000 178 944 l 247 838 b 308 925 250 904 275 925 b 381 889 336 925 349 915 b 478 847 411 864 442 847 z m 319 -17 b 560 104 425 -17 519 32 b 703 -3 575 29 622 -3 b 764 0 725 -3 753 -1 l 764 103 l 717 103 b 672 147 686 103 672 114 l 672 453 b 392 753 672 639 569 753 b 89 519 225 753 117 658 l 213 510 b 392 642 235 594 289 642 b 556 456 497 642 556 581 l 308 406 b 75 183 147 374 75 308 b 319 -17 75 64 181 -17 z m 331 86 b 197 194 247 86 197 125 b 331 311 197 256 231 292 l 556 356 l 556 292 b 331 86 556 169 481 86 z "},"æ":{"ha":833,"x_min":0,"x_max":0,"o":"m 203 -17 b 386 125 294 -17 357 35 b 582 -17 424 32 490 -17 b 800 208 706 -17 765 46 l 682 218 b 582 94 664 129 636 94 b 463 332 513 94 469 179 l 808 332 l 808 386 b 582 753 808 632 725 753 b 411 660 508 753 451 721 b 247 753 378 722 322 753 b 36 519 129 753 60 675 l 153 511 b 247 642 164 588 183 642 b 342 433 313 642 342 581 l 222 417 b 25 196 100 400 25 313 b 203 -17 25 47 101 -17 z m 464 435 b 582 642 478 583 513 642 b 688 435 643 642 682 583 z m 224 86 b 142 196 176 86 142 121 b 246 311 142 257 169 299 l 342 326 l 342 304 b 224 86 342 164 310 86 z "},"b":{"ha":833,"x_min":0,"x_max":0,"o":"m 463 -17 b 778 368 657 -17 778 132 b 463 753 778 604 657 753 b 242 633 360 753 278 694 l 242 986 l 125 986 l 125 0 l 231 0 l 235 111 b 463 -17 276 31 360 -17 z m 456 94 b 242 368 322 94 242 200 b 458 642 242 539 322 642 b 656 368 579 642 656 539 b 456 94 656 200 579 94 z "},"c":{"ha":833,"x_min":0,"x_max":0,"o":"m 436 -17 b 750 253 600 -17 719 89 l 628 261 b 436 94 606 150 531 94 b 219 368 300 94 219 197 b 436 642 219 539 300 642 b 622 489 531 642 600 586 l 744 497 b 436 753 714 661 600 753 b 97 368 231 753 97 601 b 436 -17 97 135 231 -17 z "},"ć":{"ha":833,"x_min":0,"x_max":0,"o":"m 382 833 l 479 833 l 604 1011 l 474 1011 z m 436 -17 b 750 253 600 -17 719 89 l 628 261 b 436 94 606 150 531 94 b 219 368 300 94 219 197 b 436 642 219 539 300 642 b 622 489 531 642 600 586 l 744 497 b 436 753 714 661 600 753 b 97 368 231 753 97 601 b 436 -17 97 135 231 -17 z "},"č":{"ha":833,"x_min":0,"x_max":0,"o":"m 240 1015 l 369 831 l 500 831 l 629 1015 l 532 1015 l 435 890 l 338 1015 z m 436 -17 b 750 253 600 -17 719 89 l 628 261 b 436 94 606 150 531 94 b 219 368 300 94 219 197 b 436 642 219 539 300 642 b 622 489 531 642 600 586 l 744 497 b 436 753 714 661 600 753 b 97 368 231 753 97 601 b 436 -17 97 135 231 -17 z "},"ç":{"ha":833,"x_min":0,"x_max":0,"o":"m 421 -306 b 576 -175 511 -306 576 -253 b 443 -50 576 -103 533 -54 l 469 -15 b 750 253 615 -3 721 100 l 628 261 b 436 94 606 150 531 94 b 219 368 300 94 219 197 b 436 642 219 539 300 642 b 622 489 531 642 600 586 l 744 497 b 436 753 714 661 600 753 b 97 368 231 753 97 601 b 385 -14 97 156 208 10 l 349 -69 l 388 -111 b 493 -172 476 -111 493 -137 b 418 -228 493 -207 465 -228 b 329 -169 372 -228 346 -211 l 258 -197 b 421 -306 278 -258 332 -306 z "},"ĉ":{"ha":833,"x_min":0,"x_max":0,"o":"m 239 831 l 336 831 l 433 956 l 531 831 l 628 831 l 499 1015 l 368 1015 z m 436 -17 b 750 253 600 -17 719 89 l 628 261 b 436 94 606 150 531 94 b 219 368 300 94 219 197 b 436 642 219 539 300 642 b 622 489 531 642 600 586 l 744 497 b 436 753 714 661 600 753 b 97 368 231 753 97 601 b 436 -17 97 135 231 -17 z "},"ċ":{"ha":833,"x_min":0,"x_max":0,"o":"m 372 851 l 494 851 l 494 988 l 372 988 z m 436 -17 b 750 253 600 -17 719 89 l 628 261 b 436 94 606 150 531 94 b 219 368 300 94 219 197 b 436 642 219 539 300 642 b 622 489 531 642 600 586 l 744 497 b 436 753 714 661 600 753 b 97 368 231 753 97 601 b 436 -17 97 135 231 -17 z "},"d":{"ha":833,"x_min":0,"x_max":0,"o":"m 371 -17 b 599 111 474 -17 557 31 l 603 0 l 708 0 l 708 986 l 592 986 l 592 633 b 371 753 556 694 474 753 b 56 368 176 753 56 604 b 371 -17 56 132 176 -17 z m 378 94 b 178 368 254 94 178 200 b 375 642 178 539 254 642 b 592 368 511 642 592 539 b 378 94 592 200 511 94 z "},"ď":{"ha":833,"x_min":0,"x_max":0,"o":"m 315 -17 b 515 111 410 -17 474 31 l 519 0 l 625 0 l 625 986 l 508 986 l 508 633 b 315 753 472 694 410 753 b 28 368 135 753 28 604 b 315 -17 28 132 135 -17 z m 661 633 l 744 633 l 819 986 l 703 986 z m 322 94 b 150 368 219 94 150 200 b 319 642 150 539 219 642 b 508 368 433 642 508 539 b 322 94 508 200 433 94 z "},"đ":{"ha":833,"x_min":0,"x_max":0,"o":"m 371 -17 b 599 111 474 -17 557 31 l 603 0 l 708 0 l 708 808 l 806 808 l 806 903 l 708 903 l 708 986 l 592 986 l 592 903 l 389 903 l 389 808 l 592 808 l 592 633 b 371 753 556 694 474 753 b 56 368 176 753 56 604 b 371 -17 56 132 176 -17 z m 378 94 b 178 368 254 94 178 200 b 375 642 178 539 254 642 b 592 368 511 642 592 539 b 378 94 592 200 511 94 z "},"ð":{"ha":833,"x_min":0,"x_max":0,"o":"m 419 -17 b 756 354 622 -17 756 119 b 626 828 756 546 718 711 l 778 881 l 744 969 l 551 901 b 278 1003 482 956 392 992 l 250 900 b 425 857 317 894 375 881 l 319 819 l 353 731 l 519 789 b 610 631 558 749 589 696 b 419 697 557 671 493 697 b 83 340 215 697 83 561 b 419 -17 83 119 215 -17 z m 419 94 b 206 340 283 94 206 183 b 419 586 206 497 283 586 b 633 354 554 586 633 497 b 419 94 633 179 554 94 z "},"e":{"ha":833,"x_min":0,"x_max":0,"o":"m 429 -17 b 738 208 585 -17 699 76 l 613 218 b 429 94 588 143 525 94 b 214 332 301 94 222 174 l 750 332 l 750 367 b 424 753 750 614 615 753 b 92 368 221 753 92 601 b 429 -17 92 135 221 -17 z m 214 435 b 424 642 233 571 310 642 b 622 435 532 642 611 576 z "},"é":{"ha":833,"x_min":0,"x_max":0,"o":"m 372 831 l 469 831 l 594 1008 l 464 1008 z m 429 -17 b 738 208 585 -17 699 76 l 613 218 b 429 94 588 143 525 94 b 214 332 301 94 222 174 l 750 332 l 750 367 b 424 753 750 614 615 753 b 92 368 221 753 92 601 b 429 -17 92 135 221 -17 z m 214 435 b 424 642 233 571 310 642 b 622 435 532 642 611 576 z "},"ě":{"ha":833,"x_min":0,"x_max":0,"o":"m 231 1013 l 360 828 l 490 828 l 619 1013 l 522 1013 l 425 888 l 328 1013 z m 429 -17 b 738 208 585 -17 699 76 l 613 218 b 429 94 588 143 525 94 b 214 332 301 94 222 174 l 750 332 l 750 367 b 424 753 750 614 615 753 b 92 368 221 753 92 601 b 429 -17 92 135 221 -17 z m 214 435 b 424 642 233 571 310 642 b 622 435 532 642 611 576 z "},"ê":{"ha":833,"x_min":0,"x_max":0,"o":"m 229 828 l 326 828 l 424 953 l 521 828 l 618 828 l 489 1013 l 358 1013 z m 429 -17 b 738 208 585 -17 699 76 l 613 218 b 429 94 588 143 525 94 b 214 332 301 94 222 174 l 750 332 l 750 367 b 424 753 750 614 615 753 b 92 368 221 753 92 601 b 429 -17 92 135 221 -17 z m 214 435 b 424 642 233 571 310 642 b 622 435 532 642 611 576 z "},"ë":{"ha":833,"x_min":0,"x_max":0,"o":"m 231 849 l 353 849 l 353 985 l 231 985 z m 497 849 l 619 849 l 619 985 l 497 985 z m 429 -17 b 738 208 585 -17 699 76 l 613 218 b 429 94 588 143 525 94 b 214 332 301 94 222 174 l 750 332 l 750 367 b 424 753 750 614 615 753 b 92 368 221 753 92 601 b 429 -17 92 135 221 -17 z m 214 435 b 424 642 233 571 310 642 b 622 435 532 642 611 576 z "},"ė":{"ha":833,"x_min":0,"x_max":0,"o":"m 363 849 l 485 849 l 485 985 l 363 985 z m 429 -17 b 738 208 585 -17 699 76 l 613 218 b 429 94 588 143 525 94 b 214 332 301 94 222 174 l 750 332 l 750 367 b 424 753 750 614 615 753 b 92 368 221 753 92 601 b 429 -17 92 135 221 -17 z m 214 435 b 424 642 233 571 310 642 b 622 435 532 642 611 576 z "},"è":{"ha":833,"x_min":0,"x_max":0,"o":"m 383 831 l 481 831 l 389 1008 l 258 1008 z m 429 -17 b 738 208 585 -17 699 76 l 613 218 b 429 94 588 143 525 94 b 214 332 301 94 222 174 l 750 332 l 750 367 b 424 753 750 614 615 753 b 92 368 221 753 92 601 b 429 -17 92 135 221 -17 z m 214 435 b 424 642 233 571 310 642 b 622 435 532 642 611 576 z "},"ē":{"ha":833,"x_min":0,"x_max":0,"o":"m 238 865 l 610 865 l 610 965 l 238 965 z m 429 -17 b 738 208 585 -17 699 76 l 613 218 b 429 94 588 143 525 94 b 214 332 301 94 222 174 l 750 332 l 750 367 b 424 753 750 614 615 753 b 92 368 221 753 92 601 b 429 -17 92 135 221 -17 z m 214 435 b 424 642 233 571 310 642 b 622 435 532 642 611 576 z "},"ę":{"ha":833,"x_min":0,"x_max":0,"o":"m 429 -17 b 463 -15 440 -17 451 -17 b 411 -147 429 -57 411 -100 b 536 -258 411 -217 458 -258 b 656 -222 589 -258 633 -244 l 622 -144 b 558 -164 606 -158 578 -164 b 517 -122 532 -164 517 -150 b 560 -29 517 -100 524 -76 l 608 33 b 738 208 671 74 715 135 l 613 218 b 429 94 588 143 525 94 b 214 332 301 94 222 174 l 750 332 l 750 367 b 424 753 750 614 615 753 b 92 368 221 753 92 601 b 429 -17 92 135 221 -17 z m 214 435 b 424 642 233 571 310 642 b 622 435 532 642 611 576 z "},"ẽ":{"ha":833,"x_min":0,"x_max":0,"o":"m 508 844 b 644 1011 588 844 639 906 l 572 1011 b 514 919 567 942 549 919 b 444 953 492 919 474 929 b 339 997 413 979 383 997 b 206 835 264 997 208 942 l 278 835 b 339 922 281 901 306 922 b 411 886 367 922 379 913 b 508 844 442 861 472 844 z m 429 -17 b 738 208 585 -17 699 76 l 613 218 b 429 94 588 143 525 94 b 214 332 301 94 222 174 l 750 332 l 750 367 b 424 753 750 614 615 753 b 92 368 221 753 92 601 b 429 -17 92 135 221 -17 z m 214 435 b 424 642 233 571 310 642 b 622 435 532 642 611 576 z "},"ə":{"ha":833,"x_min":0,"x_max":0,"o":"m 404 753 b 96 528 249 753 135 660 l 221 518 b 404 642 246 593 308 642 b 619 404 532 642 611 563 l 83 404 l 83 369 b 410 -17 83 122 218 -17 b 742 368 613 -17 742 135 b 404 753 742 601 613 753 z m 619 301 b 410 94 600 165 524 94 b 211 301 301 94 222 160 z "},"f":{"ha":833,"x_min":0,"x_max":0,"o":"m 294 0 l 411 0 l 411 633 l 722 633 l 722 736 l 411 736 l 411 783 b 500 883 411 844 442 883 l 736 883 l 736 986 l 500 986 b 294 783 361 986 294 914 l 294 736 l 97 736 l 97 633 l 294 633 z "},"g":{"ha":833,"x_min":0,"x_max":0,"o":"m 413 -225 b 736 50 615 -225 736 -122 l 736 736 l 625 736 l 625 619 b 399 753 592 701 501 753 b 83 396 214 753 83 606 b 404 39 83 186 217 39 b 619 167 500 39 583 89 l 619 47 b 413 -114 619 -61 546 -114 b 226 -3 299 -114 249 -72 l 104 -11 b 413 -225 135 -140 254 -225 z m 410 150 b 206 396 283 150 206 244 b 410 642 206 547 281 642 b 619 396 538 642 622 547 b 410 150 618 244 536 150 z "},"ğ":{"ha":833,"x_min":0,"x_max":0,"o":"m 414 838 b 608 1015 528 838 603 907 l 528 1015 b 414 924 519 951 478 924 b 300 1015 350 924 308 951 l 219 1015 b 414 838 225 907 300 838 z m 413 -225 b 736 50 615 -225 736 -122 l 736 736 l 625 736 l 625 619 b 399 753 592 701 501 753 b 83 396 214 753 83 606 b 404 39 83 186 217 39 b 619 167 500 39 583 89 l 619 47 b 413 -114 619 -61 546 -114 b 226 -3 299 -114 249 -72 l 104 -11 b 413 -225 135 -140 254 -225 z m 410 150 b 206 396 283 150 206 244 b 410 642 206 547 281 642 b 619 396 538 642 622 547 b 410 150 618 244 536 150 z "},"ǧ":{"ha":833,"x_min":0,"x_max":0,"o":"m 219 1015 l 349 831 l 479 831 l 608 1015 l 511 1015 l 414 890 l 317 1015 z m 413 -225 b 736 50 615 -225 736 -122 l 736 736 l 625 736 l 625 619 b 399 753 592 701 501 753 b 83 396 214 753 83 606 b 404 39 83 186 217 39 b 619 167 500 39 583 89 l 619 47 b 413 -114 619 -61 546 -114 b 226 -3 299 -114 249 -72 l 104 -11 b 413 -225 135 -140 254 -225 z m 410 150 b 206 396 283 150 206 244 b 410 642 206 547 281 642 b 619 396 538 642 622 547 b 410 150 618 244 536 150 z "},"ĝ":{"ha":833,"x_min":0,"x_max":0,"o":"m 218 831 l 315 831 l 413 956 l 510 831 l 607 831 l 478 1015 l 347 1015 z m 413 -225 b 736 50 615 -225 736 -122 l 736 736 l 625 736 l 625 619 b 399 753 592 701 501 753 b 83 396 214 753 83 606 b 404 39 83 186 217 39 b 619 167 500 39 583 89 l 619 47 b 413 -114 619 -61 546 -114 b 226 -3 299 -114 249 -72 l 104 -11 b 413 -225 135 -140 254 -225 z m 410 150 b 206 396 283 150 206 244 b 410 642 206 547 281 642 b 619 396 538 642 622 547 b 410 150 618 244 536 150 z "},"ģ":{"ha":833,"x_min":0,"x_max":0,"o":"m 529 1096 l 451 1096 l 363 957 l 363 838 l 501 838 l 501 963 l 454 963 z m 413 -225 b 736 50 615 -225 736 -122 l 736 736 l 625 736 l 625 619 b 399 753 592 701 501 753 b 83 396 214 753 83 606 b 404 39 83 186 217 39 b 619 167 500 39 583 89 l 619 47 b 413 -114 619 -61 546 -114 b 226 -3 299 -114 249 -72 l 104 -11 b 413 -225 135 -140 254 -225 z m 410 150 b 206 396 283 150 206 244 b 410 642 206 547 281 642 b 619 396 538 642 622 547 b 410 150 618 244 536 150 z "},"ġ":{"ha":833,"x_min":0,"x_max":0,"o":"m 351 851 l 474 851 l 474 988 l 351 988 z m 413 -225 b 736 50 615 -225 736 -122 l 736 736 l 625 736 l 625 619 b 399 753 592 701 501 753 b 83 396 214 753 83 606 b 404 39 83 186 217 39 b 619 167 500 39 583 89 l 619 47 b 413 -114 619 -61 546 -114 b 226 -3 299 -114 249 -72 l 104 -11 b 413 -225 135 -140 254 -225 z m 410 150 b 206 396 283 150 206 244 b 410 642 206 547 281 642 b 619 396 538 642 622 547 b 410 150 618 244 536 150 z "},"ḡ":{"ha":833,"x_min":0,"x_max":0,"o":"m 226 868 l 599 868 l 599 968 l 226 968 z m 413 -225 b 736 50 615 -225 736 -122 l 736 736 l 625 736 l 625 619 b 399 753 592 701 501 753 b 83 396 214 753 83 606 b 404 39 83 186 217 39 b 619 167 500 39 583 89 l 619 47 b 413 -114 619 -61 546 -114 b 226 -3 299 -114 249 -72 l 104 -11 b 413 -225 135 -140 254 -225 z m 410 150 b 206 396 283 150 206 244 b 410 642 206 547 281 642 b 619 396 538 642 622 547 b 410 150 618 244 536 150 z "},"ǥ":{"ha":833,"x_min":0,"x_max":0,"o":"m 413 -225 b 736 50 615 -225 736 -122 l 736 342 l 806 342 l 806 439 l 736 439 l 736 736 l 625 736 l 625 619 b 399 753 592 701 501 753 b 83 396 214 753 83 606 b 404 39 83 186 217 39 b 619 167 500 39 583 89 l 619 47 b 413 -114 619 -61 546 -114 b 226 -3 299 -114 249 -72 l 104 -11 b 413 -225 135 -140 254 -225 z m 410 150 b 206 396 283 150 206 244 b 410 642 206 547 281 642 b 618 439 525 642 606 565 l 410 439 l 410 342 l 615 342 b 410 150 597 222 521 150 z "},"h":{"ha":833,"x_min":0,"x_max":0,"o":"m 139 0 l 256 0 l 256 439 b 451 650 256 575 333 650 b 606 440 554 650 606 582 l 606 0 l 722 0 l 722 474 b 476 753 722 638 635 753 b 256 621 376 753 293 711 l 256 986 l 139 986 z "},"ħ":{"ha":833,"x_min":0,"x_max":0,"o":"m 139 0 l 256 0 l 256 439 b 451 650 256 575 333 650 b 606 440 554 650 606 582 l 606 0 l 722 0 l 722 474 b 476 753 722 638 635 753 b 256 621 376 753 293 711 l 256 808 l 467 808 l 467 903 l 256 903 l 256 986 l 139 986 l 139 903 l 50 903 l 50 808 l 139 808 z "},"ĥ":{"ha":833,"x_min":0,"x_max":0,"o":"m 3 1081 l 100 1081 l 197 1206 l 294 1081 l 392 1081 l 263 1265 l 132 1265 z m 139 0 l 256 0 l 256 439 b 451 650 256 575 333 650 b 606 440 554 650 606 582 l 606 0 l 722 0 l 722 474 b 476 753 722 638 635 753 b 256 621 376 753 293 711 l 256 986 l 139 986 z "},"i":{"ha":833,"x_min":0,"x_max":0,"o":"m 396 851 l 518 851 l 518 988 l 396 988 z m 111 0 l 778 0 l 778 103 l 524 103 l 524 736 l 125 736 l 125 633 l 407 633 l 407 103 l 111 103 z "},"ı":{"ha":833,"x_min":0,"x_max":0,"o":"m 111 0 l 778 0 l 778 103 l 524 103 l 524 736 l 125 736 l 125 633 l 407 633 l 407 103 l 111 103 z "},"í":{"ha":833,"x_min":0,"x_max":0,"o":"m 406 833 l 503 833 l 628 1011 l 497 1011 z m 111 0 l 778 0 l 778 103 l 524 103 l 524 736 l 125 736 l 125 633 l 407 633 l 407 103 l 111 103 z "},"î":{"ha":833,"x_min":0,"x_max":0,"o":"m 263 831 l 360 831 l 457 956 l 554 831 l 651 831 l 522 1015 l 392 1015 z m 111 0 l 778 0 l 778 103 l 524 103 l 524 736 l 125 736 l 125 633 l 407 633 l 407 103 l 111 103 z "},"ï":{"ha":833,"x_min":0,"x_max":0,"o":"m 264 851 l 386 851 l 386 988 l 264 988 z m 531 851 l 653 851 l 653 988 l 531 988 z m 111 0 l 778 0 l 778 103 l 524 103 l 524 736 l 125 736 l 125 633 l 407 633 l 407 103 l 111 103 z "},"ì":{"ha":833,"x_min":0,"x_max":0,"o":"m 417 833 l 514 833 l 422 1011 l 292 1011 z m 111 0 l 778 0 l 778 103 l 524 103 l 524 736 l 125 736 l 125 633 l 407 633 l 407 103 l 111 103 z "},"ī":{"ha":833,"x_min":0,"x_max":0,"o":"m 271 868 l 643 868 l 643 968 l 271 968 z m 111 0 l 778 0 l 778 103 l 524 103 l 524 736 l 125 736 l 125 633 l 407 633 l 407 103 l 111 103 z "},"į":{"ha":833,"x_min":0,"x_max":0,"o":"m 396 851 l 518 851 l 518 988 l 396 988 z m 111 0 l 671 0 l 638 -42 b 581 -181 599 -90 581 -133 b 706 -292 581 -250 628 -292 b 825 -256 758 -292 803 -278 l 792 -178 b 728 -197 775 -192 747 -197 b 686 -156 701 -197 686 -183 b 729 -62 686 -133 693 -110 l 778 0 l 778 103 l 524 103 l 524 736 l 125 736 l 125 633 l 407 633 l 407 103 l 111 103 z "},"ĩ":{"ha":833,"x_min":0,"x_max":0,"o":"m 542 847 b 678 1014 621 847 672 908 l 606 1014 b 547 922 600 944 582 922 b 478 956 525 922 507 932 b 372 1000 446 982 417 1000 b 239 838 297 1000 242 944 l 311 838 b 372 925 314 904 339 925 b 444 889 400 925 413 915 b 542 847 475 864 506 847 z m 111 0 l 778 0 l 778 103 l 524 103 l 524 736 l 125 736 l 125 633 l 407 633 l 407 103 l 111 103 z "},"j":{"ha":833,"x_min":0,"x_max":0,"o":"m 488 851 l 610 851 l 610 988 l 488 988 z m 153 -208 l 400 -208 b 611 0 547 -208 611 -135 l 611 736 l 167 736 l 167 633 l 494 633 l 494 8 b 386 -106 494 -81 458 -106 l 153 -106 z "},"ȷ":{"ha":833,"x_min":0,"x_max":0,"o":"m 153 -208 l 400 -208 b 611 0 547 -208 611 -135 l 611 736 l 167 736 l 167 633 l 494 633 l 494 8 b 386 -106 494 -81 458 -106 l 153 -106 z "},"ĵ":{"ha":833,"x_min":0,"x_max":0,"o":"m 354 831 l 451 831 l 549 956 l 646 831 l 743 831 l 614 1015 l 483 1015 z m 153 -208 l 400 -208 b 611 0 547 -208 611 -135 l 611 736 l 167 736 l 167 633 l 494 633 l 494 8 b 386 -106 494 -81 458 -106 l 153 -106 z "},"k":{"ha":833,"x_min":0,"x_max":0,"o":"m 125 0 l 242 0 l 242 192 l 386 344 l 628 0 l 769 0 l 465 424 l 756 736 l 600 736 l 242 340 l 242 986 l 125 986 z "},"ǩ":{"ha":833,"x_min":0,"x_max":0,"o":"m -10 1265 l 119 1081 l 250 1081 l 379 1265 l 282 1265 l 185 1140 l 88 1265 z m 125 0 l 242 0 l 242 192 l 386 344 l 628 0 l 769 0 l 465 424 l 756 736 l 600 736 l 242 340 l 242 986 l 125 986 z "},"ķ":{"ha":833,"x_min":0,"x_max":0,"o":"m 125 0 l 242 0 l 242 192 l 386 344 l 628 0 l 769 0 l 465 424 l 756 736 l 600 736 l 242 340 l 242 986 l 125 986 z m 332 -333 l 410 -333 l 499 -194 l 499 -75 l 360 -75 l 360 -200 l 407 -200 z "},"l":{"ha":833,"x_min":0,"x_max":0,"o":"m 83 0 l 750 0 l 750 103 l 496 103 l 496 781 b 290 986 496 915 425 986 l 111 986 l 111 883 l 285 883 b 379 789 344 883 379 849 l 379 103 l 83 103 z "},"ĺ":{"ha":833,"x_min":0,"x_max":0,"o":"m 336 1083 l 433 1083 l 558 1261 l 428 1261 z m 83 0 l 750 0 l 750 103 l 496 103 l 496 781 b 290 986 496 915 425 986 l 111 986 l 111 883 l 285 883 b 379 789 344 883 379 849 l 379 103 l 83 103 z "},"ľ":{"ha":833,"x_min":0,"x_max":0,"o":"m 83 0 l 750 0 l 750 103 l 496 103 l 496 781 b 290 986 496 915 425 986 l 111 986 l 111 883 l 285 883 b 379 789 344 883 379 849 l 379 103 l 83 103 z m 583 633 l 667 633 l 742 986 l 625 986 z "},"ļ":{"ha":833,"x_min":0,"x_max":0,"o":"m 83 0 l 750 0 l 750 103 l 496 103 l 496 781 b 290 986 496 915 425 986 l 111 986 l 111 883 l 285 883 b 379 789 344 883 379 849 l 379 103 l 83 103 z m 339 -333 l 417 -333 l 506 -194 l 506 -75 l 367 -75 l 367 -200 l 414 -200 z "},"ł":{"ha":833,"x_min":0,"x_max":0,"o":"m 83 0 l 750 0 l 750 103 l 496 103 l 496 526 l 653 589 l 653 681 l 496 618 l 496 781 b 290 986 496 915 425 986 l 111 986 l 111 883 l 285 883 b 379 789 344 883 379 849 l 379 571 l 236 514 l 236 422 l 379 479 l 379 103 l 83 103 z "},"m":{"ha":833,"x_min":0,"x_max":0,"o":"m 56 0 l 172 0 l 172 469 b 272 650 172 594 214 650 b 358 472 333 650 358 597 l 358 0 l 475 0 l 475 469 b 575 650 475 594 517 650 b 661 472 633 650 661 603 l 661 0 l 778 0 l 778 489 b 608 753 778 678 726 753 b 450 607 531 753 474 697 b 311 753 433 703 388 753 b 165 628 242 753 190 706 l 163 736 l 56 736 z "},"n":{"ha":833,"x_min":0,"x_max":0,"o":"m 117 0 l 233 0 l 233 440 b 436 650 233 576 322 650 b 600 440 547 650 600 576 l 600 0 l 717 0 l 717 474 b 461 753 717 629 629 753 b 226 604 360 753 267 706 l 224 736 l 117 736 z "},"ń":{"ha":833,"x_min":0,"x_max":0,"o":"m 364 833 l 461 833 l 586 1011 l 456 1011 z m 117 0 l 233 0 l 233 440 b 436 650 233 576 322 650 b 600 440 547 650 600 576 l 600 0 l 717 0 l 717 474 b 461 753 717 629 629 753 b 226 604 360 753 267 706 l 224 736 l 117 736 z "},"ň":{"ha":833,"x_min":0,"x_max":0,"o":"m 222 1015 l 351 831 l 482 831 l 611 1015 l 514 1015 l 417 890 l 319 1015 z m 117 0 l 233 0 l 233 440 b 436 650 233 576 322 650 b 600 440 547 650 600 576 l 600 0 l 717 0 l 717 474 b 461 753 717 629 629 753 b 226 604 360 753 267 706 l 224 736 l 117 736 z "},"ņ":{"ha":833,"x_min":0,"x_max":0,"o":"m 117 0 l 233 0 l 233 440 b 436 650 233 576 322 650 b 600 440 547 650 600 576 l 600 0 l 717 0 l 717 474 b 461 753 717 629 629 753 b 226 604 360 753 267 706 l 224 736 l 117 736 z m 319 -333 l 397 -333 l 486 -194 l 486 -75 l 347 -75 l 347 -200 l 394 -200 z "},"ñ":{"ha":833,"x_min":0,"x_max":0,"o":"m 500 847 b 636 1014 579 847 631 908 l 564 1014 b 506 922 558 944 540 922 b 436 956 483 922 465 932 b 331 1000 404 982 375 1000 b 197 838 256 1000 200 944 l 269 838 b 331 925 272 904 297 925 b 403 889 358 925 371 915 b 500 847 433 864 464 847 z m 117 0 l 233 0 l 233 440 b 436 650 233 576 322 650 b 600 440 547 650 600 576 l 600 0 l 717 0 l 717 474 b 461 753 717 629 629 753 b 226 604 360 753 267 706 l 224 736 l 117 736 z "},"ŋ":{"ha":833,"x_min":0,"x_max":0,"o":"m 117 0 l 233 0 l 233 440 b 436 650 233 576 322 650 b 600 440 547 650 600 576 l 600 -11 b 511 -106 600 -68 567 -106 l 396 -106 l 396 -208 l 508 -208 b 717 -10 638 -208 717 -131 l 717 474 b 461 753 717 629 629 753 b 226 604 360 753 267 706 l 224 736 l 117 736 z "},"o":{"ha":833,"x_min":0,"x_max":0,"o":"m 417 -17 b 753 368 619 -17 753 133 b 417 753 753 603 619 753 b 81 368 213 753 81 603 b 417 -17 81 133 213 -17 z m 417 94 b 203 368 281 94 203 197 b 417 642 203 539 281 642 b 631 368 551 642 631 539 b 417 94 631 197 551 94 z "},"ó":{"ha":833,"x_min":0,"x_max":0,"o":"m 364 833 l 461 833 l 586 1011 l 456 1011 z m 417 -17 b 753 368 619 -17 753 133 b 417 753 753 603 619 753 b 81 368 213 753 81 603 b 417 -17 81 133 213 -17 z m 417 94 b 203 368 281 94 203 197 b 417 642 203 539 281 642 b 631 368 551 642 631 539 b 417 94 631 197 551 94 z "},"ô":{"ha":833,"x_min":0,"x_max":0,"o":"m 221 831 l 318 831 l 415 956 l 513 831 l 610 831 l 481 1015 l 350 1015 z m 417 -17 b 753 368 619 -17 753 133 b 417 753 753 603 619 753 b 81 368 213 753 81 603 b 417 -17 81 133 213 -17 z m 417 94 b 203 368 281 94 203 197 b 417 642 203 539 281 642 b 631 368 551 642 631 539 b 417 94 631 197 551 94 z "},"ö":{"ha":833,"x_min":0,"x_max":0,"o":"m 222 851 l 344 851 l 344 988 l 222 988 z m 489 851 l 611 851 l 611 988 l 489 988 z m 417 -17 b 753 368 619 -17 753 133 b 417 753 753 603 619 753 b 81 368 213 753 81 603 b 417 -17 81 133 213 -17 z m 417 94 b 203 368 281 94 203 197 b 417 642 203 539 281 642 b 631 368 551 642 631 539 b 417 94 631 197 551 94 z "},"ò":{"ha":833,"x_min":0,"x_max":0,"o":"m 375 833 l 472 833 l 381 1011 l 250 1011 z m 417 -17 b 753 368 619 -17 753 133 b 417 753 753 603 619 753 b 81 368 213 753 81 603 b 417 -17 81 133 213 -17 z m 417 94 b 203 368 281 94 203 197 b 417 642 203 539 281 642 b 631 368 551 642 631 539 b 417 94 631 197 551 94 z "},"ő":{"ha":833,"x_min":0,"x_max":0,"o":"m 264 831 l 361 831 l 486 1008 l 356 1008 z m 458 831 l 556 831 l 681 1008 l 550 1008 z m 417 -17 b 753 368 619 -17 753 133 b 417 753 753 603 619 753 b 81 368 213 753 81 603 b 417 -17 81 133 213 -17 z m 417 94 b 203 368 281 94 203 197 b 417 642 203 539 281 642 b 631 368 551 642 631 539 b 417 94 631 197 551 94 z "},"ō":{"ha":833,"x_min":0,"x_max":0,"o":"m 229 868 l 601 868 l 601 968 l 229 968 z m 417 -17 b 753 368 619 -17 753 133 b 417 753 753 603 619 753 b 81 368 213 753 81 603 b 417 -17 81 133 213 -17 z m 417 94 b 203 368 281 94 203 197 b 417 642 203 539 281 642 b 631 368 551 642 631 539 b 417 94 631 197 551 94 z "},"ø":{"ha":833,"x_min":0,"x_max":0,"o":"m 111 -19 l 211 -19 l 243 29 b 417 -17 292 -1 350 -17 b 753 368 619 -17 753 133 b 656 654 753 489 718 588 l 722 756 l 622 756 l 590 707 b 417 753 542 738 483 753 b 81 368 213 753 81 603 b 178 82 81 247 115 149 z m 203 368 b 417 642 203 539 281 642 b 528 611 460 642 497 632 l 246 185 b 203 368 218 231 203 293 z m 417 94 b 306 124 374 94 336 104 l 588 550 b 631 368 615 504 631 443 b 417 94 631 197 551 94 z "},"õ":{"ha":833,"x_min":0,"x_max":0,"o":"m 500 847 b 636 1014 579 847 631 908 l 564 1014 b 506 922 558 944 540 922 b 436 956 483 922 465 932 b 331 1000 404 982 375 1000 b 197 838 256 1000 200 944 l 269 838 b 331 925 272 904 297 925 b 403 889 358 925 371 915 b 500 847 433 864 464 847 z m 417 -17 b 753 368 619 -17 753 133 b 417 753 753 603 619 753 b 81 368 213 753 81 603 b 417 -17 81 133 213 -17 z m 417 94 b 203 368 281 94 203 197 b 417 642 203 539 281 642 b 631 368 551 642 631 539 b 417 94 631 197 551 94 z "},"œ":{"ha":833,"x_min":0,"x_max":0,"o":"m 243 -17 b 414 97 315 -17 374 25 b 594 -17 454 25 515 -17 b 813 208 718 -17 778 46 l 694 218 b 594 94 676 129 649 94 b 475 332 525 94 482 179 l 821 332 l 821 385 b 594 753 821 624 742 753 b 414 643 515 753 454 714 b 243 753 375 714 317 753 b 14 368 103 753 14 604 b 243 -17 14 132 103 -17 z m 243 94 b 133 368 175 94 133 199 b 243 642 133 538 175 642 b 354 368 313 642 354 539 b 243 94 354 197 313 94 z m 476 435 b 588 642 488 574 524 642 b 700 435 653 642 690 574 z "},"p":{"ha":833,"x_min":0,"x_max":0,"o":"m 111 -208 l 228 -208 l 228 97 b 447 -17 267 26 351 -17 b 764 368 667 -17 764 165 b 447 753 764 571 667 753 b 221 618 347 753 265 706 l 219 736 l 111 736 z m 436 94 b 228 368 307 94 228 188 b 436 642 228 549 308 642 b 642 368 564 642 642 540 b 436 94 642 196 564 94 z "},"þ":{"ha":833,"x_min":0,"x_max":0,"o":"m 111 -208 l 231 -208 l 231 94 b 454 -17 275 25 349 -17 b 764 368 667 -17 764 165 b 454 753 764 571 667 753 b 231 638 349 753 272 708 l 231 986 l 111 986 z m 431 94 b 218 368 279 94 218 231 b 431 647 218 511 279 647 b 642 368 583 647 642 514 b 431 94 642 228 583 94 z "},"q":{"ha":833,"x_min":0,"x_max":0,"o":"m 722 -208 l 722 736 l 614 736 l 613 618 b 386 753 568 706 486 753 b 69 368 167 753 69 571 b 386 -17 69 165 167 -17 b 606 97 482 -17 567 26 l 606 -208 z m 397 94 b 192 368 269 94 192 196 b 397 642 192 540 269 642 b 606 368 525 642 606 549 b 397 94 606 188 526 94 z "},"r":{"ha":833,"x_min":0,"x_max":0,"o":"m 125 0 l 667 0 l 667 103 l 433 103 l 433 444 b 600 631 433 565 492 631 l 750 631 l 750 736 l 599 736 b 422 594 507 736 447 690 l 414 736 l 125 736 l 125 633 l 317 633 l 317 103 l 125 103 z "},"ŕ":{"ha":833,"x_min":0,"x_max":0,"o":"m 418 833 l 515 833 l 640 1011 l 510 1011 z m 125 0 l 667 0 l 667 103 l 433 103 l 433 444 b 600 631 433 565 492 631 l 750 631 l 750 736 l 599 736 b 422 594 507 736 447 690 l 414 736 l 125 736 l 125 633 l 317 633 l 317 103 l 125 103 z "},"ř":{"ha":833,"x_min":0,"x_max":0,"o":"m 276 1015 l 406 831 l 536 831 l 665 1015 l 568 1015 l 471 890 l 374 1015 z m 125 0 l 667 0 l 667 103 l 433 103 l 433 444 b 600 631 433 565 492 631 l 750 631 l 750 736 l 599 736 b 422 594 507 736 447 690 l 414 736 l 125 736 l 125 633 l 317 633 l 317 103 l 125 103 z "},"ŗ":{"ha":833,"x_min":0,"x_max":0,"o":"m 125 0 l 667 0 l 667 103 l 433 103 l 433 444 b 600 631 433 565 492 631 l 750 631 l 750 736 l 599 736 b 422 594 507 736 447 690 l 414 736 l 125 736 l 125 633 l 317 633 l 317 103 l 125 103 z m 276 -333 l 354 -333 l 443 -194 l 443 -75 l 304 -75 l 304 -200 l 351 -200 z "},"s":{"ha":833,"x_min":0,"x_max":0,"o":"m 431 -17 b 722 192 597 -17 722 61 b 433 411 722 314 661 374 b 250 531 300 433 250 456 b 408 642 250 593 300 642 b 586 508 508 642 569 586 l 708 517 b 410 753 686 644 592 753 b 131 531 229 753 131 658 b 408 308 131 411 194 346 b 603 192 569 281 603 256 b 431 94 603 125 539 94 b 233 240 314 94 247 149 l 111 232 b 431 -17 122 93 239 -17 z "},"ś":{"ha":833,"x_min":0,"x_max":0,"o":"m 367 833 l 464 833 l 589 1011 l 458 1011 z m 431 -17 b 722 192 597 -17 722 61 b 433 411 722 314 661 374 b 250 531 300 433 250 456 b 408 642 250 593 300 642 b 586 508 508 642 569 586 l 708 517 b 410 753 686 644 592 753 b 131 531 229 753 131 658 b 408 308 131 411 194 346 b 603 192 569 281 603 256 b 431 94 603 125 539 94 b 233 240 314 94 247 149 l 111 232 b 431 -17 122 93 239 -17 z "},"š":{"ha":833,"x_min":0,"x_max":0,"o":"m 225 1015 l 354 831 l 485 831 l 614 1015 l 517 1015 l 419 890 l 322 1015 z m 431 -17 b 722 192 597 -17 722 61 b 433 411 722 314 661 374 b 250 531 300 433 250 456 b 408 642 250 593 300 642 b 586 508 508 642 569 586 l 708 517 b 410 753 686 644 592 753 b 131 531 229 753 131 658 b 408 308 131 411 194 346 b 603 192 569 281 603 256 b 431 94 603 125 539 94 b 233 240 314 94 247 149 l 111 232 b 431 -17 122 93 239 -17 z "},"ş":{"ha":833,"x_min":0,"x_max":0,"o":"m 406 -306 b 561 -175 496 -306 561 -253 b 428 -50 561 -103 518 -54 l 453 -17 b 722 192 608 -10 722 67 b 433 411 722 314 661 374 b 250 531 300 433 250 456 b 408 642 250 593 300 642 b 586 508 508 642 569 586 l 708 517 b 410 753 686 644 592 753 b 131 531 229 753 131 658 b 408 308 131 411 194 346 b 603 192 569 281 603 256 b 431 94 603 125 539 94 b 233 240 314 94 247 149 l 111 232 b 369 -12 121 108 214 8 l 333 -69 l 372 -111 b 478 -172 461 -111 478 -137 b 403 -228 478 -207 450 -228 b 314 -169 357 -228 331 -211 l 243 -197 b 406 -306 263 -258 317 -306 z "},"ŝ":{"ha":833,"x_min":0,"x_max":0,"o":"m 224 831 l 321 831 l 418 956 l 515 831 l 613 831 l 483 1015 l 353 1015 z m 431 -17 b 722 192 597 -17 722 61 b 433 411 722 314 661 374 b 250 531 300 433 250 456 b 408 642 250 593 300 642 b 586 508 508 642 569 586 l 708 517 b 410 753 686 644 592 753 b 131 531 229 753 131 658 b 408 308 131 411 194 346 b 603 192 569 281 603 256 b 431 94 603 125 539 94 b 233 240 314 94 247 149 l 111 232 b 431 -17 122 93 239 -17 z "},"ș":{"ha":833,"x_min":0,"x_max":0,"o":"m 431 -17 b 722 192 597 -17 722 61 b 433 411 722 314 661 374 b 250 531 300 433 250 456 b 408 642 250 593 300 642 b 586 508 508 642 569 586 l 708 517 b 410 753 686 644 592 753 b 131 531 229 753 131 658 b 408 308 131 411 194 346 b 603 192 569 281 603 256 b 431 94 603 125 539 94 b 233 240 314 94 247 149 l 111 232 b 431 -17 122 93 239 -17 z m 322 -333 l 400 -333 l 489 -194 l 489 -75 l 350 -75 l 350 -200 l 397 -200 z "},"ß":{"ha":833,"x_min":0,"x_max":0,"o":"m 111 0 l 228 0 l 228 697 b 411 889 228 817 300 889 b 581 742 525 889 581 828 b 397 579 581 643 513 579 l 336 579 l 336 469 l 397 469 b 639 286 557 469 639 401 b 411 111 639 168 557 111 l 322 111 l 322 0 l 411 0 b 761 281 633 0 761 106 b 551 535 761 408 679 504 b 700 744 643 565 700 642 b 411 1000 700 896 592 1000 b 111 697 231 1000 111 883 z "},"t":{"ha":833,"x_min":0,"x_max":0,"o":"m 525 0 l 722 0 l 722 103 l 525 103 b 429 203 460 103 429 135 l 429 633 l 722 633 l 722 736 l 429 736 l 429 908 l 313 908 l 313 736 l 69 736 l 69 633 l 313 633 l 313 203 b 525 0 313 65 382 0 z "},"ŧ":{"ha":833,"x_min":0,"x_max":0,"o":"m 150 356 l 313 356 l 313 203 b 525 0 313 65 382 0 l 722 0 l 722 103 l 525 103 b 429 203 460 103 429 135 l 429 356 l 650 356 l 650 450 l 429 450 l 429 633 l 722 633 l 722 736 l 429 736 l 429 908 l 313 908 l 313 736 l 69 736 l 69 633 l 313 633 l 313 450 l 150 450 z "},"ť":{"ha":833,"x_min":0,"x_max":0,"o":"m 526 796 l 610 796 l 685 1149 l 568 1149 z m 525 0 l 722 0 l 722 103 l 525 103 b 429 203 460 103 429 135 l 429 633 l 722 633 l 722 736 l 429 736 l 429 908 l 313 908 l 313 736 l 69 736 l 69 633 l 313 633 l 313 203 b 525 0 313 65 382 0 z "},"ţ":{"ha":833,"x_min":0,"x_max":0,"o":"m 486 -306 b 642 -175 576 -306 642 -253 b 508 -50 642 -103 599 -54 l 546 0 l 722 0 l 722 103 l 525 103 b 429 203 460 103 429 135 l 429 633 l 722 633 l 722 736 l 429 736 l 429 908 l 313 908 l 313 736 l 69 736 l 69 633 l 313 633 l 313 203 b 461 6 313 88 361 24 l 414 -69 l 453 -111 b 558 -172 542 -111 558 -137 b 483 -228 558 -207 531 -228 b 394 -169 438 -228 411 -211 l 324 -197 b 486 -306 343 -258 397 -306 z "},"ț":{"ha":833,"x_min":0,"x_max":0,"o":"m 525 0 l 722 0 l 722 103 l 525 103 b 429 203 460 103 429 135 l 429 633 l 722 633 l 722 736 l 429 736 l 429 908 l 313 908 l 313 736 l 69 736 l 69 633 l 313 633 l 313 203 b 525 0 313 65 382 0 z m 403 -333 l 481 -333 l 569 -194 l 569 -75 l 431 -75 l 431 -200 l 478 -200 z "},"u":{"ha":833,"x_min":0,"x_max":0,"o":"m 365 -17 b 589 119 471 -17 549 32 l 589 0 l 700 0 l 700 736 l 583 736 l 583 297 b 397 86 583 165 513 86 b 242 294 292 86 242 151 l 242 736 l 125 736 l 125 263 b 365 -17 125 88 219 -17 z "},"ú":{"ha":833,"x_min":0,"x_max":0,"o":"m 354 833 l 451 833 l 576 1011 l 446 1011 z m 365 -17 b 589 119 471 -17 549 32 l 589 0 l 700 0 l 700 736 l 583 736 l 583 297 b 397 86 583 165 513 86 b 242 294 292 86 242 151 l 242 736 l 125 736 l 125 263 b 365 -17 125 88 219 -17 z "},"ŭ":{"ha":833,"x_min":0,"x_max":0,"o":"m 407 838 b 601 1015 521 838 596 907 l 521 1015 b 407 924 513 951 471 924 b 293 1015 343 924 301 951 l 213 1015 b 407 838 218 907 293 838 z m 365 -17 b 589 119 471 -17 549 32 l 589 0 l 700 0 l 700 736 l 583 736 l 583 297 b 397 86 583 165 513 86 b 242 294 292 86 242 151 l 242 736 l 125 736 l 125 263 b 365 -17 125 88 219 -17 z "},"û":{"ha":833,"x_min":0,"x_max":0,"o":"m 211 831 l 308 831 l 406 956 l 503 831 l 600 831 l 471 1015 l 340 1015 z m 365 -17 b 589 119 471 -17 549 32 l 589 0 l 700 0 l 700 736 l 583 736 l 583 297 b 397 86 583 165 513 86 b 242 294 292 86 242 151 l 242 736 l 125 736 l 125 263 b 365 -17 125 88 219 -17 z "},"ü":{"ha":833,"x_min":0,"x_max":0,"o":"m 213 851 l 335 851 l 335 988 l 213 988 z m 479 851 l 601 851 l 601 988 l 479 988 z m 365 -17 b 589 119 471 -17 549 32 l 589 0 l 700 0 l 700 736 l 583 736 l 583 297 b 397 86 583 165 513 86 b 242 294 292 86 242 151 l 242 736 l 125 736 l 125 263 b 365 -17 125 88 219 -17 z "},"ù":{"ha":833,"x_min":0,"x_max":0,"o":"m 365 833 l 463 833 l 371 1011 l 240 1011 z m 365 -17 b 589 119 471 -17 549 32 l 589 0 l 700 0 l 700 736 l 583 736 l 583 297 b 397 86 583 165 513 86 b 242 294 292 86 242 151 l 242 736 l 125 736 l 125 263 b 365 -17 125 88 219 -17 z "},"ű":{"ha":833,"x_min":0,"x_max":0,"o":"m 254 831 l 351 831 l 476 1008 l 346 1008 z m 449 831 l 546 831 l 671 1008 l 540 1008 z m 365 -17 b 589 119 471 -17 549 32 l 589 0 l 700 0 l 700 736 l 583 736 l 583 297 b 397 86 583 165 513 86 b 242 294 292 86 242 151 l 242 736 l 125 736 l 125 263 b 365 -17 125 88 219 -17 z "},"ū":{"ha":833,"x_min":0,"x_max":0,"o":"m 219 868 l 592 868 l 592 968 l 219 968 z m 365 -17 b 589 119 471 -17 549 32 l 589 0 l 700 0 l 700 736 l 583 736 l 583 297 b 397 86 583 165 513 86 b 242 294 292 86 242 151 l 242 736 l 125 736 l 125 263 b 365 -17 125 88 219 -17 z "},"ų":{"ha":833,"x_min":0,"x_max":0,"o":"m 365 -17 b 589 119 471 -17 549 32 l 589 0 l 593 0 l 560 -42 b 503 -181 521 -90 503 -133 b 628 -292 503 -250 550 -292 b 747 -256 681 -292 725 -278 l 714 -178 b 650 -197 697 -192 669 -197 b 608 -156 624 -197 608 -183 b 651 -62 608 -133 615 -110 l 700 0 l 700 736 l 583 736 l 583 297 b 397 86 583 165 513 86 b 242 294 292 86 242 151 l 242 736 l 125 736 l 125 263 b 365 -17 125 88 219 -17 z "},"ů":{"ha":833,"x_min":0,"x_max":0,"o":"m 407 800 b 535 928 479 800 535 856 b 407 1056 535 1000 479 1056 b 279 928 335 1056 279 1000 b 407 800 279 856 335 800 z m 407 869 b 349 928 374 869 349 894 b 407 986 349 961 374 986 b 465 928 440 986 465 961 b 407 869 465 894 440 869 z m 365 -17 b 589 119 471 -17 549 32 l 589 0 l 700 0 l 700 736 l 583 736 l 583 297 b 397 86 583 165 513 86 b 242 294 292 86 242 151 l 242 736 l 125 736 l 125 263 b 365 -17 125 88 219 -17 z "},"ũ":{"ha":833,"x_min":0,"x_max":0,"o":"m 490 847 b 626 1014 569 847 621 908 l 554 1014 b 496 922 549 944 531 922 b 426 956 474 922 456 932 b 321 1000 394 982 365 1000 b 188 838 246 1000 190 944 l 260 838 b 321 925 263 904 288 925 b 393 889 349 925 361 915 b 490 847 424 864 454 847 z m 365 -17 b 589 119 471 -17 549 32 l 589 0 l 700 0 l 700 736 l 583 736 l 583 297 b 397 86 583 165 513 86 b 242 294 292 86 242 151 l 242 736 l 125 736 l 125 263 b 365 -17 125 88 219 -17 z "},"v":{"ha":833,"x_min":0,"x_max":0,"o":"m 343 0 l 490 0 l 764 736 l 636 736 l 417 119 l 197 736 l 69 736 z "},"w":{"ha":833,"x_min":0,"x_max":0,"o":"m 174 0 l 319 0 l 417 464 l 514 0 l 661 0 l 806 736 l 678 736 l 582 122 l 474 633 l 360 633 l 251 122 l 156 736 l 28 736 z "},"ẃ":{"ha":833,"x_min":0,"x_max":0,"o":"m 364 833 l 461 833 l 586 1011 l 456 1011 z m 174 0 l 319 0 l 417 464 l 514 0 l 661 0 l 806 736 l 678 736 l 582 122 l 474 633 l 360 633 l 251 122 l 156 736 l 28 736 z "},"ŵ":{"ha":833,"x_min":0,"x_max":0,"o":"m 221 831 l 318 831 l 415 956 l 513 831 l 610 831 l 481 1015 l 350 1015 z m 174 0 l 319 0 l 417 464 l 514 0 l 661 0 l 806 736 l 678 736 l 582 122 l 474 633 l 360 633 l 251 122 l 156 736 l 28 736 z "},"ẅ":{"ha":833,"x_min":0,"x_max":0,"o":"m 222 851 l 344 851 l 344 988 l 222 988 z m 489 851 l 611 851 l 611 988 l 489 988 z m 174 0 l 319 0 l 417 464 l 514 0 l 661 0 l 806 736 l 678 736 l 582 122 l 474 633 l 360 633 l 251 122 l 156 736 l 28 736 z "},"ẁ":{"ha":833,"x_min":0,"x_max":0,"o":"m 375 833 l 472 833 l 381 1011 l 250 1011 z m 174 0 l 319 0 l 417 464 l 514 0 l 661 0 l 806 736 l 678 736 l 582 122 l 474 633 l 360 633 l 251 122 l 156 736 l 28 736 z "},"x":{"ha":833,"x_min":0,"x_max":0,"o":"m 75 0 l 214 0 l 418 297 l 622 0 l 758 0 l 490 375 l 746 736 l 607 736 l 418 458 l 225 736 l 89 736 l 346 378 z "},"y":{"ha":833,"x_min":0,"x_max":0,"o":"m 192 -208 l 288 -208 b 465 -93 386 -208 438 -172 l 764 736 l 636 736 l 426 122 l 203 736 l 75 736 l 349 14 l 389 14 l 363 -56 b 276 -106 349 -90 328 -106 l 192 -106 z "},"ý":{"ha":833,"x_min":0,"x_max":0,"o":"m 368 833 l 465 833 l 590 1011 l 460 1011 z m 192 -208 l 288 -208 b 465 -93 386 -208 438 -172 l 764 736 l 636 736 l 426 122 l 203 736 l 75 736 l 349 14 l 389 14 l 363 -56 b 276 -106 349 -90 328 -106 l 192 -106 z "},"ŷ":{"ha":833,"x_min":0,"x_max":0,"o":"m 225 831 l 322 831 l 419 956 l 517 831 l 614 831 l 485 1015 l 354 1015 z m 192 -208 l 288 -208 b 465 -93 386 -208 438 -172 l 764 736 l 636 736 l 426 122 l 203 736 l 75 736 l 349 14 l 389 14 l 363 -56 b 276 -106 349 -90 328 -106 l 192 -106 z "},"ÿ":{"ha":833,"x_min":0,"x_max":0,"o":"m 226 851 l 349 851 l 349 988 l 226 988 z m 493 851 l 615 851 l 615 988 l 493 988 z m 192 -208 l 288 -208 b 465 -93 386 -208 438 -172 l 764 736 l 636 736 l 426 122 l 203 736 l 75 736 l 349 14 l 389 14 l 363 -56 b 276 -106 349 -90 328 -106 l 192 -106 z "},"ỳ":{"ha":833,"x_min":0,"x_max":0,"o":"m 379 833 l 476 833 l 385 1011 l 254 1011 z m 192 -208 l 288 -208 b 465 -93 386 -208 438 -172 l 764 736 l 636 736 l 426 122 l 203 736 l 75 736 l 349 14 l 389 14 l 363 -56 b 276 -106 349 -90 328 -106 l 192 -106 z "},"ỹ":{"ha":833,"x_min":0,"x_max":0,"o":"m 504 847 b 640 1014 583 847 635 908 l 568 1014 b 510 922 563 944 544 922 b 440 956 488 922 469 932 b 335 1000 408 982 379 1000 b 201 838 260 1000 204 944 l 274 838 b 335 925 276 904 301 925 b 407 889 363 925 375 915 b 504 847 438 864 468 847 z m 192 -208 l 288 -208 b 465 -93 386 -208 438 -172 l 764 736 l 636 736 l 426 122 l 203 736 l 75 736 l 349 14 l 389 14 l 363 -56 b 276 -106 349 -90 328 -106 l 192 -106 z "},"z":{"ha":833,"x_min":0,"x_max":0,"o":"m 114 0 l 719 0 l 719 103 l 242 103 l 708 619 l 708 736 l 128 736 l 128 633 l 581 633 l 114 117 z "},"ź":{"ha":833,"x_min":0,"x_max":0,"o":"m 365 833 l 463 833 l 588 1011 l 457 1011 z m 114 0 l 719 0 l 719 103 l 242 103 l 708 619 l 708 736 l 128 736 l 128 633 l 581 633 l 114 117 z "},"ž":{"ha":833,"x_min":0,"x_max":0,"o":"m 224 1015 l 353 831 l 483 831 l 613 1015 l 515 1015 l 418 890 l 321 1015 z m 114 0 l 719 0 l 719 103 l 242 103 l 708 619 l 708 736 l 128 736 l 128 633 l 581 633 l 114 117 z "},"ż":{"ha":833,"x_min":0,"x_max":0,"o":"m 356 851 l 478 851 l 478 988 l 356 988 z m 114 0 l 719 0 l 719 103 l 242 103 l 708 619 l 708 736 l 128 736 l 128 633 l 581 633 l 114 117 z "},"ꞌ":{"ha":833,"x_min":0,"x_max":0,"o":"m 375 525 l 458 525 l 478 797 l 478 986 l 356 986 l 356 797 z "},"ª":{"ha":833,"x_min":0,"x_max":0,"o":"m 342 522 b 499 606 421 522 476 558 b 599 522 507 540 549 522 b 642 526 619 522 636 525 l 642 610 l 626 610 b 601 643 610 610 601 618 l 601 817 b 399 1008 601 940 532 1008 b 189 856 282 1008 206 954 l 308 850 b 399 919 318 894 346 919 b 485 825 453 919 485 888 l 331 794 b 181 647 235 775 181 731 b 342 522 181 568 244 522 z m 361 604 b 300 657 321 604 300 624 b 369 722 300 688 321 711 l 485 747 l 485 715 b 361 604 485 647 433 604 z "},"º":{"ha":833,"x_min":0,"x_max":0,"o":"m 417 522 b 653 765 560 522 653 617 b 417 1008 653 911 560 1008 b 181 765 272 1008 181 913 b 417 522 181 617 272 522 z m 417 613 b 297 765 339 613 297 671 b 417 918 297 857 339 918 b 536 765 492 918 536 860 b 417 613 536 669 492 613 z "},"А":{"ha":833,"x_min":0,"x_max":0,"o":"m 36 0 l 164 0 l 244 281 l 589 281 l 669 0 l 797 0 l 497 986 l 336 986 z m 417 878 l 556 397 l 278 397 z "},"Б":{"ha":833,"x_min":0,"x_max":0,"o":"m 111 0 l 411 0 b 750 301 617 0 750 113 b 411 603 750 490 617 603 l 231 603 l 231 869 l 726 869 l 726 986 l 111 986 z m 231 117 l 231 486 l 397 486 b 625 301 553 486 625 421 b 397 117 625 182 553 117 z "},"В":{"ha":833,"x_min":0,"x_max":0,"o":"m 125 0 l 438 0 b 772 275 646 0 772 104 b 551 508 772 403 690 490 b 731 717 660 528 731 610 b 403 986 731 883 619 986 l 125 986 z m 244 560 l 244 869 l 408 869 b 606 714 544 869 606 814 b 408 560 606 615 544 560 z m 244 117 l 244 443 l 439 443 b 647 275 575 443 647 381 b 439 117 647 175 581 117 z "},"Г":{"ha":833,"x_min":0,"x_max":0,"o":"m 139 0 l 258 0 l 258 869 l 767 869 l 767 986 l 139 986 z "},"Ѓ":{"ha":833,"x_min":0,"x_max":0,"o":"m 400 1083 l 497 1083 l 622 1261 l 492 1261 z m 139 0 l 258 0 l 258 869 l 767 869 l 767 986 l 139 986 z "},"Ґ":{"ha":833,"x_min":0,"x_max":0,"o":"m 139 0 l 258 0 l 258 869 l 781 869 l 781 1201 l 661 1201 l 661 986 l 139 986 z "},"Ғ":{"ha":833,"x_min":0,"x_max":0,"o":"m 139 0 l 258 0 l 258 397 l 590 397 l 590 514 l 258 514 l 258 869 l 767 869 l 767 986 l 139 986 l 139 514 l 26 514 l 26 397 l 139 397 z "},"Д":{"ha":833,"x_min":0,"x_max":0,"o":"m 17 -208 l 136 -208 l 136 0 l 686 0 l 686 -208 l 806 -208 l 806 117 l 683 117 l 683 986 l 264 986 l 192 300 b 74 117 178 174 143 117 l 17 117 z m 256 117 b 311 286 285 157 303 213 l 374 869 l 564 869 l 564 117 z "},"Е":{"ha":833,"x_min":0,"x_max":0,"o":"m 125 0 l 736 0 l 736 117 l 244 117 l 244 438 l 708 438 l 708 551 l 244 551 l 244 869 l 725 869 l 725 986 l 125 986 z "},"Ѐ":{"ha":833,"x_min":0,"x_max":0,"o":"m 400 1085 l 497 1085 l 406 1263 l 275 1263 z m 125 0 l 736 0 l 736 117 l 244 117 l 244 438 l 708 438 l 708 551 l 244 551 l 244 869 l 725 869 l 725 986 l 125 986 z "},"Ё":{"ha":833,"x_min":0,"x_max":0,"o":"m 247 1103 l 369 1103 l 369 1239 l 247 1239 z m 514 1103 l 636 1103 l 636 1239 l 514 1239 z m 125 0 l 736 0 l 736 117 l 244 117 l 244 438 l 708 438 l 708 551 l 244 551 l 244 869 l 725 869 l 725 986 l 125 986 z "},"Ж":{"ha":833,"x_min":0,"x_max":0,"o":"m 10 0 l 139 0 l 357 464 l 357 0 l 476 0 l 476 464 l 694 0 l 824 0 l 592 493 l 810 986 l 681 986 l 476 525 l 476 986 l 357 986 l 357 525 l 153 986 l 24 986 l 242 493 z "},"З":{"ha":833,"x_min":0,"x_max":0,"o":"m 417 -22 b 785 271 628 -22 785 99 b 571 533 785 399 708 493 b 751 751 690 568 751 642 b 417 1008 751 903 608 1008 b 82 771 243 1008 100 910 l 207 763 b 417 892 219 842 304 892 b 626 751 540 892 626 838 b 436 582 626 624 515 581 l 333 583 l 333 465 l 436 467 b 661 281 539 468 661 413 b 417 94 661 167 561 94 b 169 263 281 94 179 160 l 46 254 b 417 -22 54 92 213 -22 z "},"И":{"ha":833,"x_min":0,"x_max":0,"o":"m 736 0 l 736 986 l 567 986 l 217 136 l 217 986 l 97 986 l 97 0 l 267 0 l 617 850 l 617 0 z "},"Й":{"ha":833,"x_min":0,"x_max":0,"o":"m 417 1088 b 611 1265 531 1088 606 1157 l 531 1265 b 417 1174 522 1201 481 1174 b 303 1265 353 1174 311 1201 l 222 1265 b 417 1088 228 1157 303 1088 z m 736 0 l 736 986 l 567 986 l 217 136 l 217 986 l 97 986 l 97 0 l 267 0 l 617 850 l 617 0 z "},"Ѝ":{"ha":833,"x_min":0,"x_max":0,"o":"m 375 1083 l 472 1083 l 381 1261 l 250 1261 z m 736 0 l 736 986 l 567 986 l 217 136 l 217 986 l 97 986 l 97 0 l 267 0 l 617 850 l 617 0 z "},"К":{"ha":833,"x_min":0,"x_max":0,"o":"m 81 0 l 200 0 l 200 482 l 628 0 l 785 0 l 344 493 l 771 986 l 614 986 l 200 504 l 200 986 l 81 986 z "},"Ќ":{"ha":833,"x_min":0,"x_max":0,"o":"m 356 1083 l 453 1083 l 578 1261 l 447 1261 z m 81 0 l 200 0 l 200 482 l 628 0 l 785 0 l 344 493 l 771 986 l 614 986 l 200 504 l 200 986 l 81 986 z "},"Л":{"ha":833,"x_min":0,"x_max":0,"o":"m 28 0 l 126 0 b 311 204 249 0 301 81 l 367 869 l 640 869 l 640 0 l 760 0 l 760 986 l 254 986 l 190 218 b 108 117 185 157 158 117 l 28 117 z "},"М":{"ha":833,"x_min":0,"x_max":0,"o":"m 364 111 l 469 111 l 644 829 l 644 0 l 764 0 l 764 986 l 583 986 l 417 290 l 250 986 l 69 986 l 69 0 l 189 0 l 189 829 z "},"Н":{"ha":833,"x_min":0,"x_max":0,"o":"m 83 0 l 203 0 l 203 438 l 631 438 l 631 0 l 750 0 l 750 986 l 631 986 l 631 554 l 203 554 l 203 986 l 83 986 z "},"О":{"ha":833,"x_min":0,"x_max":0,"o":"m 417 -22 b 781 492 650 -22 781 163 b 417 1008 781 824 650 1008 b 53 492 183 1008 53 824 b 417 -22 53 163 183 -22 z m 417 94 b 178 492 264 94 178 233 b 417 892 178 750 264 892 b 656 492 569 892 656 750 b 417 94 656 233 569 94 z "},"П":{"ha":833,"x_min":0,"x_max":0,"o":"m 97 0 l 217 0 l 217 869 l 617 869 l 617 0 l 736 0 l 736 986 l 97 986 z "},"Р":{"ha":833,"x_min":0,"x_max":0,"o":"m 125 0 l 244 0 l 244 383 l 425 383 b 764 685 631 383 764 496 b 425 986 764 874 631 986 l 125 986 z m 244 500 l 244 869 l 411 869 b 639 685 567 869 639 804 b 411 500 639 565 567 500 z "},"С":{"ha":833,"x_min":0,"x_max":0,"o":"m 419 -22 b 772 325 606 -22 736 108 l 646 332 b 419 94 618 175 533 94 b 178 492 263 94 178 238 b 419 892 178 747 263 892 b 636 676 522 892 604 818 l 764 685 b 419 1008 722 889 593 1008 b 53 492 183 1008 53 810 b 419 -22 53 176 183 -22 z "},"Т":{"ha":833,"x_min":0,"x_max":0,"o":"m 357 0 l 476 0 l 476 869 l 778 869 l 778 986 l 56 986 l 56 869 l 357 869 z "},"У":{"ha":833,"x_min":0,"x_max":0,"o":"m 196 0 l 292 0 b 456 115 375 0 428 36 l 769 986 l 639 986 l 425 375 l 204 986 l 72 986 l 340 264 l 388 264 l 353 168 b 281 117 339 131 317 117 l 196 117 z "},"Ў":{"ha":833,"x_min":0,"x_max":0,"o":"m 422 1088 b 617 1265 536 1088 611 1157 l 536 1265 b 422 1174 528 1201 486 1174 b 308 1265 358 1174 317 1201 l 228 1265 b 422 1088 233 1157 308 1088 z m 196 0 l 292 0 b 456 115 375 0 428 36 l 769 986 l 639 986 l 425 375 l 204 986 l 72 986 l 340 264 l 388 264 l 353 168 b 281 117 339 131 317 117 l 196 117 z "},"Ф":{"ha":833,"x_min":0,"x_max":0,"o":"m 356 0 l 475 0 l 475 104 b 799 493 676 129 799 274 b 475 882 799 713 676 857 l 475 986 l 356 986 l 356 881 b 35 493 157 857 35 713 b 356 106 35 274 157 129 z m 674 493 b 475 224 674 346 599 246 l 475 763 b 674 493 599 740 674 640 z m 160 493 b 356 763 160 639 233 739 l 356 224 b 160 493 233 247 160 347 z "},"Х":{"ha":833,"x_min":0,"x_max":0,"o":"m 69 0 l 206 0 l 415 401 l 625 0 l 764 0 l 492 494 l 758 986 l 622 986 l 418 590 l 214 986 l 75 986 l 342 496 z "},"Ч":{"ha":833,"x_min":0,"x_max":0,"o":"m 617 0 l 736 0 l 736 986 l 617 986 l 617 651 b 356 447 617 532 504 447 b 189 650 260 447 189 525 l 189 986 l 69 986 l 69 650 b 356 331 69 454 186 331 b 617 469 472 331 575 388 z "},"Ц":{"ha":833,"x_min":0,"x_max":0,"o":"m 693 -208 l 813 -208 l 813 117 l 722 117 l 722 986 l 603 986 l 603 117 l 203 117 l 203 986 l 83 986 l 83 0 l 693 0 z "},"Ш":{"ha":833,"x_min":0,"x_max":0,"o":"m 76 0 l 757 0 l 757 986 l 638 986 l 638 117 l 476 117 l 476 986 l 357 986 l 357 117 l 196 117 l 196 986 l 76 986 z "},"Щ":{"ha":833,"x_min":0,"x_max":0,"o":"m 49 0 l 693 0 l 693 -208 l 813 -208 l 813 117 l 729 117 l 729 986 l 610 986 l 610 117 l 449 117 l 449 986 l 329 986 l 329 117 l 168 117 l 168 986 l 49 986 z "},"Џ":{"ha":833,"x_min":0,"x_max":0,"o":"m 357 -208 l 476 -208 l 476 0 l 736 0 l 736 986 l 617 986 l 617 117 l 217 117 l 217 986 l 97 986 l 97 0 l 357 0 z "},"Ь":{"ha":833,"x_min":0,"x_max":0,"o":"m 125 986 l 125 0 l 425 0 b 764 301 631 0 764 113 b 425 603 764 490 631 603 l 244 603 l 244 986 z m 244 486 l 411 486 b 639 301 567 486 639 421 b 411 117 639 182 567 117 l 244 117 z "},"Ы":{"ha":833,"x_min":0,"x_max":0,"o":"m 49 0 l 236 0 b 585 299 456 0 585 111 b 236 603 585 489 456 603 l 169 603 l 169 986 l 49 986 z m 665 0 l 785 0 l 785 986 l 665 986 z m 169 117 l 169 486 l 236 486 b 460 299 386 486 460 422 b 236 117 460 178 386 117 z "},"Ъ":{"ha":833,"x_min":0,"x_max":0,"o":"m 42 869 l 149 869 l 149 0 l 449 0 b 788 301 654 0 788 113 b 449 603 788 490 654 603 l 268 603 l 268 869 l 269 869 l 269 986 l 42 986 z m 268 486 l 435 486 b 663 301 590 486 663 421 b 435 117 663 182 590 117 l 268 117 z "},"Љ":{"ha":833,"x_min":0,"x_max":0,"o":"m 7 0 l 64 0 b 249 204 186 0 243 81 l 276 869 l 388 869 l 388 0 l 547 0 b 826 299 725 0 826 111 b 547 603 826 489 725 603 l 508 603 l 507 986 l 164 986 l 128 218 b 46 117 125 157 96 117 l 7 117 z m 508 117 l 508 486 l 535 486 b 689 299 643 486 689 422 b 535 117 689 178 643 117 z "},"Њ":{"ha":833,"x_min":0,"x_max":0,"o":"m 28 0 l 147 0 l 147 486 l 311 486 l 311 0 l 485 0 b 806 299 704 0 806 111 b 485 603 806 489 704 603 l 432 603 l 432 986 l 311 986 l 311 603 l 147 603 l 147 986 l 28 986 z m 432 117 l 432 486 l 472 486 b 668 299 622 486 668 422 b 472 117 668 178 622 117 z "},"Ѕ":{"ha":833,"x_min":0,"x_max":0,"o":"m 432 -22 b 772 242 633 -22 772 86 b 446 556 772 406 686 488 b 210 733 260 608 210 640 b 410 892 210 828 288 892 b 629 686 543 892 613 806 l 754 694 b 413 1008 732 875 615 1008 b 85 728 210 1008 85 893 b 371 456 85 581 165 514 b 647 244 600 390 647 339 b 435 94 647 149 572 94 b 186 324 296 94 206 176 l 61 315 b 432 -22 78 115 224 -22 z "},"Є":{"ha":833,"x_min":0,"x_max":0,"o":"m 417 -22 b 771 344 613 -22 736 108 l 644 344 b 417 94 615 183 536 94 b 179 433 276 94 192 215 l 479 433 l 479 550 l 179 550 b 417 892 192 769 276 892 b 643 642 536 892 615 803 l 771 642 b 417 1008 735 879 613 1008 b 53 492 183 1008 53 824 b 417 -22 53 163 183 -22 z "},"Э":{"ha":833,"x_min":0,"x_max":0,"o":"m 417 -22 b 781 492 650 -22 781 163 b 417 1008 781 824 650 1008 b 63 642 221 1008 99 879 l 190 642 b 417 892 218 803 297 892 b 654 550 557 892 642 769 l 354 550 l 354 433 l 654 433 b 417 94 642 215 557 94 b 189 344 297 94 218 183 l 63 344 b 417 -22 97 108 221 -22 z "},"І":{"ha":833,"x_min":0,"x_max":0,"o":"m 111 0 l 722 0 l 722 117 l 476 117 l 476 869 l 722 869 l 722 986 l 111 986 l 111 869 l 357 869 l 357 117 l 111 117 z "},"Ї":{"ha":833,"x_min":0,"x_max":0,"o":"m 222 1101 l 344 1101 l 344 1238 l 222 1238 z m 489 1101 l 611 1101 l 611 1238 l 489 1238 z m 111 0 l 722 0 l 722 117 l 476 117 l 476 869 l 722 869 l 722 986 l 111 986 l 111 869 l 357 869 l 357 117 l 111 117 z "},"Ј":{"ha":833,"x_min":0,"x_max":0,"o":"m 382 -22 b 708 331 583 -22 708 113 l 708 986 l 589 986 l 589 331 b 382 94 589 174 519 94 b 172 331 244 94 178 171 l 56 319 b 382 -22 61 111 188 -22 z "},"Ћ":{"ha":833,"x_min":0,"x_max":0,"o":"m 167 0 l 286 0 l 286 335 b 492 539 286 454 371 539 b 672 336 597 539 672 456 l 672 0 l 792 0 l 792 336 b 506 656 792 532 675 656 b 286 524 407 656 322 601 l 286 869 l 489 869 l 489 986 l 7 986 l 7 869 l 167 869 z "},"Ю":{"ha":833,"x_min":0,"x_max":0,"o":"m 28 0 l 147 0 l 147 435 l 269 435 b 536 -22 278 118 360 -22 b 806 492 724 -22 806 135 b 536 1008 806 851 724 1008 b 269 551 361 1008 278 869 l 147 551 l 147 986 l 28 986 z m 536 94 b 394 492 433 94 394 204 b 536 892 394 781 433 892 b 681 492 640 892 681 781 b 536 94 681 204 640 94 z "},"Я":{"ha":833,"x_min":0,"x_max":0,"o":"m 736 0 l 736 986 l 422 986 b 89 688 215 986 89 875 b 300 421 89 550 164 465 l 61 0 l 193 0 l 413 397 l 617 397 l 617 0 z m 617 514 l 422 514 b 214 690 275 514 214 576 b 422 869 214 804 278 869 l 617 869 z "},"Ђ":{"ha":833,"x_min":0,"x_max":0,"o":"m 167 0 l 286 0 l 286 335 b 496 539 286 454 372 539 b 694 332 617 539 694 460 b 422 117 694 200 593 117 l 422 0 b 819 332 667 0 819 128 b 496 656 819 522 685 656 b 286 525 401 656 321 603 l 286 869 l 489 869 l 489 986 l 7 986 l 7 869 l 167 869 z "},"Ѣ":{"ha":833,"x_min":0,"x_max":0,"o":"m 21 736 l 158 736 l 158 0 l 458 0 b 797 301 664 0 797 113 b 458 603 797 490 664 603 l 278 603 l 278 736 l 506 736 l 506 853 l 278 853 l 278 986 l 158 986 l 158 853 l 21 853 z m 278 486 l 444 486 b 672 301 600 486 672 421 b 444 117 672 182 600 117 l 278 117 z "},"Ѫ":{"ha":833,"x_min":0,"x_max":0,"o":"m 1 0 l 129 0 l 250 344 b 328 424 271 406 293 424 l 357 424 l 357 0 l 476 0 l 476 424 l 506 424 b 582 344 539 424 560 406 l 704 0 l 832 0 l 686 401 b 542 540 653 493 601 538 l 744 869 l 744 986 l 89 986 l 89 869 l 292 540 b 146 401 236 540 181 497 z m 228 869 l 606 869 l 417 563 z "},"Ѳ":{"ha":833,"x_min":0,"x_max":0,"o":"m 417 -22 b 781 492 650 -22 781 163 b 417 1008 781 824 650 1008 b 53 492 183 1008 53 824 b 417 -22 53 163 183 -22 z m 389 569 b 189 599 329 593 247 606 l 183 599 b 417 892 204 789 286 892 b 656 508 565 892 651 757 b 642 507 651 508 646 507 b 389 569 578 500 557 506 z m 417 94 b 178 476 267 94 182 228 b 203 481 186 478 194 479 b 399 449 257 486 333 474 b 650 388 560 389 593 382 b 417 94 629 196 547 94 z "},"Ѵ":{"ha":833,"x_min":0,"x_max":0,"o":"m 324 0 l 458 0 l 686 742 b 807 869 715 839 747 869 l 826 869 l 826 986 l 763 986 b 579 807 682 986 613 917 l 390 182 l 146 986 l 19 986 z "},"Җ":{"ha":833,"x_min":0,"x_max":0,"o":"m 10 0 l 133 0 l 343 464 l 343 0 l 457 0 l 457 464 l 667 0 l 700 0 l 700 -208 l 819 -208 l 819 97 l 747 97 l 568 493 l 778 986 l 653 986 l 457 525 l 457 986 l 343 986 l 343 525 l 147 986 l 22 986 l 232 493 z "},"Қ":{"ha":833,"x_min":0,"x_max":0,"o":"m 67 0 l 186 0 l 186 482 l 614 0 l 679 0 l 679 -208 l 799 -208 l 799 97 l 683 97 l 331 493 l 757 986 l 600 986 l 186 504 l 186 986 l 67 986 z "},"Ң":{"ha":833,"x_min":0,"x_max":0,"o":"m 63 0 l 182 0 l 182 438 l 610 438 l 610 0 l 693 0 l 693 -208 l 813 -208 l 813 97 l 729 97 l 729 986 l 610 986 l 610 554 l 182 554 l 182 986 l 63 986 z "},"Ү":{"ha":833,"x_min":0,"x_max":0,"o":"m 358 0 l 478 0 l 478 403 l 778 986 l 642 986 l 417 525 l 192 986 l 56 986 l 358 403 z "},"Ұ":{"ha":833,"x_min":0,"x_max":0,"o":"m 121 318 l 357 318 l 357 0 l 476 0 l 476 318 l 710 318 l 710 435 l 493 435 l 776 986 l 640 986 l 415 525 l 190 986 l 54 986 l 340 435 l 121 435 z "},"Ҳ":{"ha":833,"x_min":0,"x_max":0,"o":"m 69 0 l 206 0 l 415 401 l 625 0 l 686 0 l 686 -208 l 806 -208 l 806 97 l 710 97 l 492 494 l 758 986 l 622 986 l 418 590 l 214 986 l 75 986 l 342 496 z "},"Ҷ":{"ha":833,"x_min":0,"x_max":0,"o":"m 596 0 l 693 0 l 693 -208 l 813 -208 l 813 97 l 715 97 l 715 986 l 596 986 l 596 651 b 335 447 596 532 483 447 b 168 650 239 447 168 525 l 168 986 l 49 986 l 49 650 b 335 331 49 454 165 331 b 596 469 451 331 554 388 z "},"Һ":{"ha":833,"x_min":0,"x_max":0,"o":"m 217 986 l 97 986 l 97 0 l 217 0 l 217 335 b 478 539 217 454 329 539 b 644 336 574 539 644 461 l 644 0 l 764 0 l 764 336 b 478 656 764 532 647 656 b 217 517 361 656 258 599 z "},"Ӏ":{"ha":833,"x_min":0,"x_max":0,"o":"m 111 0 l 722 0 l 722 117 l 476 117 l 476 869 l 722 869 l 722 986 l 111 986 l 111 869 l 357 869 l 357 117 l 111 117 z "},"Ә":{"ha":833,"x_min":0,"x_max":0,"o":"m 428 -22 b 794 493 643 -22 794 176 b 414 1008 794 824 654 1008 b 72 692 249 1008 128 890 l 203 681 b 419 892 233 808 306 892 b 668 542 574 892 668 751 l 53 542 l 53 476 b 428 -22 53 181 192 -22 z m 428 94 b 182 425 275 94 182 219 l 667 425 b 428 94 667 219 574 94 z "},"Ӣ":{"ha":833,"x_min":0,"x_max":0,"o":"m 229 1118 l 601 1118 l 601 1218 l 229 1218 z m 736 0 l 736 986 l 567 986 l 217 136 l 217 986 l 97 986 l 97 0 l 267 0 l 617 850 l 617 0 z "},"Ө":{"ha":833,"x_min":0,"x_max":0,"o":"m 417 -22 b 781 492 650 -22 781 163 b 417 1008 781 824 650 1008 b 53 492 183 1008 53 824 b 417 -22 53 163 183 -22 z m 417 892 b 654 551 557 892 642 772 l 179 551 b 417 892 192 772 276 892 z m 417 94 b 179 435 275 94 192 213 l 654 435 b 417 94 642 213 558 94 z "},"Ӯ":{"ha":833,"x_min":0,"x_max":0,"o":"m 235 1118 l 607 1118 l 607 1218 l 235 1218 z m 196 0 l 292 0 b 456 115 375 0 428 36 l 769 986 l 639 986 l 425 375 l 204 986 l 72 986 l 340 264 l 388 264 l 353 168 b 281 117 339 131 317 117 l 196 117 z "},"а":{"ha":833,"x_min":0,"x_max":0,"o":"m 319 -17 b 560 104 425 -17 519 32 b 703 -3 575 29 622 -3 b 764 0 725 -3 753 -1 l 764 103 l 717 103 b 672 147 686 103 672 114 l 672 453 b 392 753 672 639 569 753 b 89 519 225 753 117 658 l 213 510 b 392 642 235 594 289 642 b 556 456 497 642 556 581 l 308 406 b 75 183 147 374 75 308 b 319 -17 75 64 181 -17 z m 331 86 b 197 194 247 86 197 125 b 331 311 197 256 231 292 l 556 356 l 556 292 b 331 86 556 169 481 86 z "},"б":{"ha":833,"x_min":0,"x_max":0,"o":"m 417 -22 b 751 328 607 -22 751 113 b 438 672 751 531 619 672 b 201 531 331 672 251 621 b 410 817 211 729 306 761 b 563 1057 522 876 563 949 l 443 1056 b 321 901 443 976 414 944 b 81 435 151 822 81 703 b 186 85 81 282 115 156 b 417 -22 257 8 331 -22 z m 417 89 b 208 328 292 89 206 188 b 424 561 210 465 299 561 b 629 328 544 561 629 465 b 417 89 629 188 542 89 z "},"в":{"ha":833,"x_min":0,"x_max":0,"o":"m 125 0 l 471 0 b 739 208 635 0 739 81 b 551 381 739 303 668 368 b 708 532 650 394 708 450 b 431 736 708 657 600 736 l 125 736 z m 242 425 l 242 633 l 431 633 b 583 532 524 633 583 594 b 431 425 583 467 524 425 z m 242 103 l 242 322 l 471 322 b 614 208 558 322 614 279 b 471 103 614 144 558 103 z "},"г":{"ha":833,"x_min":0,"x_max":0,"o":"m 207 0 l 324 0 l 324 633 l 722 633 l 722 736 l 207 736 z "},"ѓ":{"ha":833,"x_min":0,"x_max":0,"o":"m 413 833 l 510 833 l 635 1011 l 504 1011 z m 207 0 l 324 0 l 324 633 l 722 633 l 722 736 l 207 736 z "},"ґ":{"ha":833,"x_min":0,"x_max":0,"o":"m 207 0 l 324 0 l 324 633 l 722 633 l 722 951 l 603 951 l 603 736 l 207 736 z "},"ғ":{"ha":833,"x_min":0,"x_max":0,"o":"m 207 0 l 324 0 l 324 322 l 482 322 l 482 425 l 324 425 l 324 633 l 722 633 l 722 736 l 207 736 l 207 425 l 57 425 l 57 322 l 207 322 z "},"д":{"ha":833,"x_min":0,"x_max":0,"o":"m 28 -208 l 144 -208 l 144 0 l 689 0 l 689 -208 l 806 -208 l 806 103 l 686 103 l 686 736 l 263 736 l 196 236 b 93 103 183 144 151 103 l 28 103 z m 310 225 l 368 633 l 569 633 l 569 103 l 265 103 b 310 225 288 133 303 174 z "},"е":{"ha":833,"x_min":0,"x_max":0,"o":"m 429 -17 b 738 208 585 -17 699 76 l 613 218 b 429 94 588 143 525 94 b 214 332 301 94 222 174 l 750 332 l 750 367 b 424 753 750 614 615 753 b 92 368 221 753 92 601 b 429 -17 92 135 221 -17 z m 214 435 b 424 642 233 571 310 642 b 622 435 532 642 611 576 z "},"ѐ":{"ha":833,"x_min":0,"x_max":0,"o":"m 383 831 l 481 831 l 389 1008 l 258 1008 z m 429 -17 b 738 208 585 -17 699 76 l 613 218 b 429 94 588 143 525 94 b 214 332 301 94 222 174 l 750 332 l 750 367 b 424 753 750 614 615 753 b 92 368 221 753 92 601 b 429 -17 92 135 221 -17 z m 214 435 b 424 642 233 571 310 642 b 622 435 532 642 611 576 z "},"ё":{"ha":833,"x_min":0,"x_max":0,"o":"m 231 849 l 353 849 l 353 985 l 231 985 z m 497 849 l 619 849 l 619 985 l 497 985 z m 429 -17 b 738 208 585 -17 699 76 l 613 218 b 429 94 588 143 525 94 b 214 332 301 94 222 174 l 750 332 l 750 367 b 424 753 750 614 615 753 b 92 368 221 753 92 601 b 429 -17 92 135 221 -17 z m 214 435 b 424 642 233 571 310 642 b 622 435 532 642 611 576 z "},"ж":{"ha":833,"x_min":0,"x_max":0,"o":"m 15 0 l 149 0 l 358 354 l 358 0 l 475 0 l 475 354 l 685 0 l 818 0 l 600 368 l 810 736 l 676 736 l 475 383 l 475 736 l 358 736 l 358 383 l 157 736 l 24 736 l 233 368 z "},"з":{"ha":833,"x_min":0,"x_max":0,"o":"m 414 -17 b 715 200 599 -17 715 67 b 543 396 715 292 650 365 b 690 546 635 421 690 476 b 414 753 690 674 583 753 b 138 561 258 753 151 679 l 264 554 b 414 642 271 607 328 642 b 568 546 508 642 568 604 b 428 443 568 482 513 442 l 351 444 l 351 333 l 428 335 b 593 207 528 336 593 288 b 414 94 593 138 524 94 b 233 211 308 94 239 140 l 111 206 b 414 -17 118 69 235 -17 z "},"и":{"ha":833,"x_min":0,"x_max":0,"o":"m 131 0 l 275 0 l 588 547 l 588 0 l 704 0 l 704 736 l 567 736 l 247 178 l 247 736 l 131 736 z "},"й":{"ha":833,"x_min":0,"x_max":0,"o":"m 418 838 b 613 1015 532 838 607 907 l 532 1015 b 418 924 524 951 482 924 b 304 1015 354 924 313 951 l 224 1015 b 418 838 229 907 304 838 z m 131 0 l 275 0 l 588 547 l 588 0 l 704 0 l 704 736 l 567 736 l 247 178 l 247 736 l 131 736 z "},"ѝ":{"ha":833,"x_min":0,"x_max":0,"o":"m 376 833 l 474 833 l 382 1011 l 251 1011 z m 131 0 l 275 0 l 588 547 l 588 0 l 704 0 l 704 736 l 567 736 l 247 178 l 247 736 l 131 736 z "},"к":{"ha":833,"x_min":0,"x_max":0,"o":"m 126 0 l 246 0 l 246 358 l 606 0 l 772 0 l 393 368 l 756 736 l 592 736 l 246 378 l 246 736 l 126 736 z "},"ќ":{"ha":833,"x_min":0,"x_max":0,"o":"m 365 833 l 463 833 l 588 1011 l 457 1011 z m 126 0 l 246 0 l 246 358 l 606 0 l 772 0 l 393 368 l 756 736 l 592 736 l 246 378 l 246 736 l 126 736 z "},"л":{"ha":833,"x_min":0,"x_max":0,"o":"m 35 0 l 119 0 b 300 204 228 0 286 68 l 346 633 l 619 633 l 619 0 l 736 0 l 736 736 l 239 736 l 183 217 b 103 117 176 151 149 117 l 35 117 z "},"м":{"ha":833,"x_min":0,"x_max":0,"o":"m 50 0 l 167 0 l 178 486 l 351 0 l 497 0 l 667 479 l 667 0 l 783 0 l 783 736 l 631 736 l 425 143 l 218 736 l 64 736 z "},"н":{"ha":833,"x_min":0,"x_max":0,"o":"m 126 0 l 243 0 l 243 315 l 590 315 l 590 0 l 707 0 l 707 736 l 590 736 l 590 418 l 243 418 l 243 736 l 126 736 z "},"о":{"ha":833,"x_min":0,"x_max":0,"o":"m 417 -17 b 753 368 619 -17 753 133 b 417 753 753 603 619 753 b 81 368 213 753 81 603 b 417 -17 81 133 213 -17 z m 417 94 b 203 368 281 94 203 197 b 417 642 203 539 281 642 b 631 368 551 642 631 539 b 417 94 631 197 551 94 z "},"п":{"ha":833,"x_min":0,"x_max":0,"o":"m 125 0 l 242 0 l 242 633 l 592 633 l 592 0 l 708 0 l 708 736 l 125 736 z "},"р":{"ha":833,"x_min":0,"x_max":0,"o":"m 111 -208 l 228 -208 l 228 97 b 447 -17 267 26 351 -17 b 764 368 667 -17 764 165 b 447 753 764 571 667 753 b 221 618 347 753 265 706 l 219 736 l 111 736 z m 436 94 b 228 368 307 94 228 188 b 436 642 228 549 308 642 b 642 368 564 642 642 540 b 436 94 642 196 564 94 z "},"с":{"ha":833,"x_min":0,"x_max":0,"o":"m 436 -17 b 750 253 600 -17 719 89 l 628 261 b 436 94 606 150 531 94 b 219 368 300 94 219 197 b 436 642 219 539 300 642 b 622 489 531 642 600 586 l 744 497 b 436 753 714 661 600 753 b 97 368 231 753 97 601 b 436 -17 97 135 231 -17 z "},"т":{"ha":833,"x_min":0,"x_max":0,"o":"m 358 0 l 476 0 l 476 633 l 742 633 l 742 736 l 93 736 l 93 633 l 358 633 z "},"у":{"ha":833,"x_min":0,"x_max":0,"o":"m 192 -208 l 288 -208 b 465 -93 386 -208 438 -172 l 764 736 l 636 736 l 426 122 l 203 736 l 75 736 l 349 14 l 389 14 l 363 -56 b 276 -106 349 -90 328 -106 l 192 -106 z "},"ў":{"ha":833,"x_min":0,"x_max":0,"o":"m 421 838 b 615 1015 535 838 610 907 l 535 1015 b 421 924 526 951 485 924 b 307 1015 357 924 315 951 l 226 1015 b 421 838 232 907 307 838 z m 192 -208 l 288 -208 b 465 -93 386 -208 438 -172 l 764 736 l 636 736 l 426 122 l 203 736 l 75 736 l 349 14 l 389 14 l 363 -56 b 276 -106 349 -90 328 -106 l 192 -106 z "},"ф":{"ha":833,"x_min":0,"x_max":0,"o":"m 358 -208 l 476 -208 l 476 39 b 800 372 669 61 800 192 b 476 706 800 553 669 683 l 476 986 l 358 986 l 358 707 b 32 372 164 685 32 554 b 358 38 32 190 164 60 z m 157 372 b 358 589 157 490 233 571 l 358 156 b 157 372 233 174 157 254 z m 675 372 b 476 156 675 256 600 175 l 476 589 b 675 372 600 569 675 489 z "},"х":{"ha":833,"x_min":0,"x_max":0,"o":"m 75 0 l 214 0 l 418 297 l 622 0 l 758 0 l 490 375 l 746 736 l 607 736 l 418 458 l 225 736 l 89 736 l 346 378 z "},"ч":{"ha":833,"x_min":0,"x_max":0,"o":"m 592 0 l 708 0 l 708 736 l 592 736 l 592 540 b 375 331 592 411 508 331 b 213 539 276 331 213 411 l 213 736 l 96 736 l 96 539 b 375 219 96 343 204 219 b 592 357 474 219 557 275 z "},"ц":{"ha":833,"x_min":0,"x_max":0,"o":"m 694 -208 l 811 -208 l 811 103 l 708 103 l 708 736 l 592 736 l 592 103 l 242 103 l 242 736 l 125 736 l 125 0 l 694 0 z "},"ш":{"ha":833,"x_min":0,"x_max":0,"o":"m 78 0 l 754 0 l 754 736 l 638 736 l 638 103 l 475 103 l 475 736 l 357 736 l 357 103 l 194 103 l 194 736 l 78 736 z "},"щ":{"ha":833,"x_min":0,"x_max":0,"o":"m 78 0 l 703 0 l 703 -208 l 819 -208 l 819 103 l 754 103 l 754 736 l 638 736 l 638 103 l 475 103 l 475 736 l 357 736 l 357 103 l 194 103 l 194 736 l 78 736 z "},"џ":{"ha":833,"x_min":0,"x_max":0,"o":"m 358 -208 l 475 -208 l 475 0 l 708 0 l 708 736 l 592 736 l 592 103 l 242 103 l 242 736 l 125 736 l 125 0 l 358 0 z "},"ь":{"ha":833,"x_min":0,"x_max":0,"o":"m 113 0 l 424 0 b 746 232 631 0 746 83 b 424 465 746 382 631 465 l 229 465 l 229 736 l 113 736 z m 229 104 l 229 363 l 424 363 b 624 232 557 363 624 319 b 424 104 624 146 557 104 z "},"ы":{"ha":833,"x_min":0,"x_max":0,"o":"m 49 0 l 275 0 b 597 232 482 0 597 83 b 275 465 597 382 482 465 l 165 465 l 165 736 l 49 736 z m 668 0 l 785 0 l 785 736 l 668 736 z m 165 104 l 165 363 l 275 363 b 475 232 408 363 475 319 b 275 104 475 146 408 104 z "},"ъ":{"ha":833,"x_min":0,"x_max":0,"o":"m 133 0 l 444 0 b 767 232 651 0 767 83 b 444 465 767 382 651 465 l 250 465 l 250 736 l 14 736 l 14 633 l 133 633 z m 250 104 l 250 363 l 444 363 b 644 232 578 363 644 319 b 444 104 644 146 578 104 z "},"љ":{"ha":833,"x_min":0,"x_max":0,"o":"m 7 0 l 36 0 b 217 204 144 0 203 68 l 263 633 l 378 633 l 378 0 l 574 0 b 826 232 736 0 826 83 b 574 465 826 382 736 465 l 496 465 l 496 736 l 156 736 l 100 217 b 19 117 93 151 65 117 l 7 117 z m 574 363 b 704 232 657 363 704 315 b 574 104 704 150 657 104 l 496 104 l 496 363 z "},"њ":{"ha":833,"x_min":0,"x_max":0,"o":"m 28 0 l 144 0 l 144 363 l 364 363 l 364 0 l 560 0 b 813 232 722 0 813 83 b 560 465 813 382 722 465 l 481 465 l 481 736 l 364 736 l 364 465 l 144 465 l 144 736 l 28 736 z m 481 104 l 481 363 l 560 363 b 690 232 643 363 690 315 b 560 104 690 150 643 104 z "},"ѕ":{"ha":833,"x_min":0,"x_max":0,"o":"m 431 -17 b 722 192 597 -17 722 61 b 433 411 722 314 661 374 b 250 531 300 433 250 456 b 408 642 250 593 300 642 b 586 508 508 642 569 586 l 708 517 b 410 753 686 644 592 753 b 131 531 229 753 131 658 b 408 308 131 411 194 346 b 603 192 569 281 603 256 b 431 94 603 125 539 94 b 233 240 314 94 247 149 l 111 232 b 431 -17 122 93 239 -17 z "},"є":{"ha":833,"x_min":0,"x_max":0,"o":"m 422 -17 b 746 253 589 -17 710 85 l 621 253 b 422 94 593 153 522 94 b 210 317 300 94 224 176 l 456 317 l 456 419 l 210 419 b 422 642 224 560 300 642 b 622 479 524 642 594 582 l 747 479 b 422 753 711 649 590 753 b 85 368 218 753 85 603 b 422 -17 85 133 218 -17 z "},"э":{"ha":833,"x_min":0,"x_max":0,"o":"m 411 -17 b 749 368 615 -17 749 133 b 411 753 749 603 615 753 b 86 479 243 753 122 649 l 211 479 b 411 642 239 582 310 642 b 624 419 533 642 610 560 l 378 419 l 378 317 l 624 317 b 411 94 610 176 533 94 b 213 253 311 94 240 153 l 88 253 b 411 -17 124 85 244 -17 z "},"і":{"ha":833,"x_min":0,"x_max":0,"o":"m 396 851 l 518 851 l 518 988 l 396 988 z m 111 0 l 778 0 l 778 103 l 524 103 l 524 736 l 125 736 l 125 633 l 407 633 l 407 103 l 111 103 z "},"ї":{"ha":833,"x_min":0,"x_max":0,"o":"m 264 851 l 386 851 l 386 988 l 264 988 z m 531 851 l 653 851 l 653 988 l 531 988 z m 111 0 l 778 0 l 778 103 l 524 103 l 524 736 l 125 736 l 125 633 l 407 633 l 407 103 l 111 103 z "},"ј":{"ha":833,"x_min":0,"x_max":0,"o":"m 488 851 l 610 851 l 610 988 l 488 988 z m 153 -208 l 400 -208 b 611 0 547 -208 611 -135 l 611 736 l 167 736 l 167 633 l 494 633 l 494 8 b 386 -106 494 -81 458 -106 l 153 -106 z "},"ћ":{"ha":833,"x_min":0,"x_max":0,"o":"m 139 0 l 256 0 l 256 439 b 451 650 256 575 333 650 b 606 440 554 650 606 582 l 606 0 l 722 0 l 722 474 b 476 753 722 638 635 753 b 256 621 376 753 293 711 l 256 808 l 467 808 l 467 903 l 256 903 l 256 986 l 139 986 l 139 903 l 50 903 l 50 808 l 139 808 z "},"ю":{"ha":833,"x_min":0,"x_max":0,"o":"m 28 0 l 144 0 l 144 317 l 228 317 b 508 -17 242 101 340 -17 b 792 368 690 -17 792 121 b 508 753 792 615 690 753 b 228 419 340 753 242 635 l 144 419 l 144 736 l 28 736 z m 508 94 b 349 368 406 94 349 193 b 508 642 349 543 406 642 b 669 368 611 642 669 543 b 508 94 669 193 611 94 z "},"я":{"ha":833,"x_min":0,"x_max":0,"o":"m 113 0 l 249 0 l 417 285 l 592 285 l 592 0 l 708 0 l 708 736 l 418 736 b 124 514 229 736 124 657 b 292 306 124 419 183 344 z m 418 388 b 249 511 310 388 249 432 b 418 635 249 590 310 635 l 592 635 l 592 388 z "},"ђ":{"ha":833,"x_min":0,"x_max":0,"o":"m 132 0 l 249 0 l 249 432 b 443 642 249 568 326 642 b 600 432 549 642 600 572 l 600 -4 b 517 -106 600 -67 568 -106 l 460 -106 l 460 -208 l 531 -208 b 717 -4 654 -208 717 -129 l 717 474 b 468 753 717 644 621 753 b 249 636 376 753 290 717 l 249 811 l 388 811 l 388 914 l 249 914 l 249 986 l 132 986 l 132 914 l 35 914 l 35 811 l 132 811 z "},"ѣ":{"ha":833,"x_min":0,"x_max":0,"o":"m 178 0 l 489 0 b 811 246 696 0 811 88 b 489 493 811 404 696 493 l 294 493 l 294 736 l 457 736 l 457 853 l 294 853 l 294 986 l 178 986 l 178 853 l 14 853 l 14 736 l 178 736 z m 294 104 l 294 390 l 489 390 b 689 246 617 390 689 338 b 489 104 689 154 617 104 z "},"ѫ":{"ha":833,"x_min":0,"x_max":0,"o":"m 19 0 l 153 0 l 238 246 b 326 303 254 293 285 303 l 357 303 l 357 0 l 476 0 l 476 303 l 506 303 b 596 246 549 303 579 293 l 681 0 l 814 0 l 699 299 b 557 401 674 363 617 394 l 775 633 l 775 736 l 60 736 l 60 633 l 278 401 b 135 299 218 396 160 363 z m 201 633 l 633 633 l 418 404 z "},"ѳ":{"ha":833,"x_min":0,"x_max":0,"o":"m 417 -17 b 753 368 619 -17 753 133 b 417 753 753 603 619 753 b 81 368 213 753 81 603 b 417 -17 81 133 213 -17 z m 382 428 b 217 457 332 451 265 460 l 211 457 b 417 642 233 574 306 642 b 631 372 550 642 629 542 b 590 365 618 368 604 365 b 382 428 538 364 521 364 z m 417 94 b 203 353 285 94 208 190 b 228 356 211 354 219 356 b 390 324 272 357 336 349 b 601 263 526 263 551 263 b 619 264 607 263 613 263 b 417 94 592 157 521 94 z "},"ѵ":{"ha":833,"x_min":0,"x_max":0,"o":"m 319 0 l 467 0 l 660 531 b 792 633 685 599 729 633 l 806 633 l 806 736 l 774 736 b 550 569 668 736 588 676 l 393 122 l 176 736 l 51 736 z "},"җ":{"ha":833,"x_min":0,"x_max":0,"o":"m 15 0 l 149 0 l 358 354 l 358 0 l 475 0 l 475 354 l 685 0 l 703 0 l 703 -208 l 819 -208 l 819 103 l 757 103 l 600 368 l 810 736 l 676 736 l 475 383 l 475 736 l 358 736 l 358 383 l 157 736 l 24 736 l 233 368 z "},"қ":{"ha":833,"x_min":0,"x_max":0,"o":"m 125 0 l 244 0 l 244 358 l 604 0 l 661 0 l 661 -208 l 778 -208 l 778 103 l 665 103 l 392 368 l 754 736 l 590 736 l 244 378 l 244 736 l 125 736 z "},"ң":{"ha":833,"x_min":0,"x_max":0,"o":"m 126 0 l 243 0 l 243 315 l 590 315 l 590 0 l 686 0 l 686 -208 l 803 -208 l 803 103 l 707 103 l 707 736 l 590 736 l 590 418 l 243 418 l 243 736 l 126 736 z "},"ү":{"ha":833,"x_min":0,"x_max":0,"o":"m 358 0 l 358 -208 l 475 -208 l 475 0 l 758 736 l 633 736 l 417 140 l 200 736 l 75 736 z "},"ұ":{"ha":833,"x_min":0,"x_max":0,"o":"m 194 -51 l 358 -51 l 358 -208 l 475 -208 l 475 -51 l 638 -51 l 638 51 l 494 51 l 758 736 l 633 736 l 417 140 l 200 736 l 75 736 l 339 51 l 194 51 z "},"ҳ":{"ha":833,"x_min":0,"x_max":0,"o":"m 75 0 l 214 0 l 418 297 l 622 0 l 674 0 l 674 -208 l 790 -208 l 790 103 l 685 103 l 490 375 l 746 736 l 607 736 l 418 458 l 225 736 l 89 736 l 346 378 z "},"ҷ":{"ha":833,"x_min":0,"x_max":0,"o":"m 592 0 l 688 0 l 688 -208 l 804 -208 l 804 103 l 708 103 l 708 736 l 592 736 l 592 540 b 375 331 592 411 508 331 b 213 539 276 331 213 411 l 213 736 l 96 736 l 96 539 b 375 219 96 343 204 219 b 592 357 474 219 557 275 z "},"һ":{"ha":833,"x_min":0,"x_max":0,"o":"m 139 0 l 256 0 l 256 439 b 451 650 256 575 333 650 b 606 440 554 650 606 582 l 606 0 l 722 0 l 722 474 b 476 753 722 638 635 753 b 256 621 376 753 293 711 l 256 986 l 139 986 z "},"ӏ":{"ha":833,"x_min":0,"x_max":0,"o":"m 111 0 l 722 0 l 722 117 l 476 117 l 476 869 l 722 869 l 722 986 l 111 986 l 111 869 l 357 869 l 357 117 l 111 117 z "},"ә":{"ha":833,"x_min":0,"x_max":0,"o":"m 404 753 b 96 528 249 753 135 660 l 221 518 b 404 642 246 593 308 642 b 619 404 532 642 611 563 l 83 404 l 83 369 b 410 -17 83 122 218 -17 b 742 368 613 -17 742 135 b 404 753 742 601 613 753 z m 619 301 b 410 94 600 165 524 94 b 211 301 301 94 222 160 z "},"ӣ":{"ha":833,"x_min":0,"x_max":0,"o":"m 231 868 l 603 868 l 603 968 l 231 968 z m 131 0 l 275 0 l 588 547 l 588 0 l 704 0 l 704 736 l 567 736 l 247 178 l 247 736 l 131 736 z "},"ө":{"ha":833,"x_min":0,"x_max":0,"o":"m 417 -17 b 753 368 619 -17 753 133 b 417 753 753 603 619 753 b 81 368 213 753 81 603 b 417 -17 81 133 213 -17 z m 417 642 b 628 419 538 642 614 560 l 206 419 b 417 642 219 560 294 642 z m 417 94 b 206 317 294 94 219 176 l 628 317 b 417 94 614 176 538 94 z "},"ӯ":{"ha":833,"x_min":0,"x_max":0,"o":"m 233 868 l 606 868 l 606 968 l 233 968 z m 192 -208 l 288 -208 b 465 -93 386 -208 438 -172 l 764 736 l 636 736 l 426 122 l 203 736 l 75 736 l 349 14 l 389 14 l 363 -56 b 276 -106 349 -90 328 -106 l 192 -106 z "},"Λ":{"ha":833,"x_min":0,"x_max":0,"o":"m 36 0 l 158 0 l 417 882 l 675 0 l 797 0 l 497 986 l 336 986 z "},"Ω":{"ha":833,"x_min":0,"x_max":0,"o":"m 15 0 l 361 0 l 361 117 b 138 506 236 118 138 289 b 417 892 138 732 253 892 b 696 506 581 892 696 732 b 472 117 696 289 597 118 l 472 0 l 818 0 l 818 117 l 635 117 b 821 506 744 190 821 353 b 417 1008 821 801 654 1008 b 13 506 179 1008 13 801 b 199 117 13 353 89 190 l 15 117 z "},"λ":{"ha":833,"x_min":0,"x_max":0,"o":"m 82 0 l 204 0 l 406 525 l 510 186 b 717 0 553 47 603 0 l 764 0 l 764 103 l 715 103 b 631 181 665 103 646 132 l 440 800 b 224 986 399 935 340 986 l 146 986 l 146 883 l 233 883 b 319 806 283 883 304 856 l 354 693 z "},"π":{"ha":833,"x_min":0,"x_max":0,"o":"m 171 0 l 288 0 l 288 633 l 550 633 l 550 203 b 763 0 550 81 613 0 l 806 0 l 806 103 l 761 103 b 667 203 700 103 667 140 l 667 633 l 808 633 l 808 736 l 22 736 l 22 633 l 171 633 z "},"ℇ":{"ha":833,"x_min":0,"x_max":0,"o":"m 426 -22 b 781 122 564 -22 708 38 l 706 221 b 426 89 639 142 521 89 b 193 281 285 89 193 167 b 426 471 193 397 285 474 l 501 469 l 501 579 l 426 578 b 226 751 333 576 226 624 b 426 897 226 840 303 897 b 671 779 511 897 613 847 l 749 875 b 426 1008 681 953 549 1008 b 104 751 236 1008 104 903 b 279 533 104 640 163 568 b 71 271 142 493 71 399 b 426 -22 71 99 214 -22 z "},"⓿":{"ha":833,"x_min":0,"x_max":0,"o":"m 417 -22 b 814 493 660 -22 814 176 b 417 1008 814 810 660 1008 b 19 493 172 1008 19 810 b 417 -22 19 176 172 -22 z m 418 211 b 201 492 288 211 201 318 b 418 771 201 665 286 771 b 635 492 550 771 635 665 b 418 211 635 318 549 211 z m 310 386 l 482 668 b 418 688 464 681 443 688 b 293 492 336 688 293 622 b 310 386 293 451 299 415 z m 418 294 b 543 492 499 294 543 363 b 528 601 543 536 538 572 l 354 318 b 418 294 372 303 394 294 z "},"❶":{"ha":833,"x_min":0,"x_max":0,"o":"m 417 -22 b 814 493 660 -22 814 176 b 417 1008 814 810 660 1008 b 19 493 172 1008 19 810 b 417 -22 19 176 172 -22 z m 397 222 l 397 575 l 264 574 l 264 643 l 297 643 b 421 761 378 643 421 688 l 489 761 l 489 222 z "},"❷":{"ha":833,"x_min":0,"x_max":0,"o":"m 417 -22 b 814 493 660 -22 814 176 b 417 1008 814 810 660 1008 b 19 493 172 1008 19 810 b 417 -22 19 176 172 -22 z m 232 222 b 369 472 232 338 247 404 l 442 513 b 513 615 494 542 513 563 b 429 690 513 663 474 690 b 322 592 363 690 331 658 l 233 596 b 429 771 244 701 310 771 b 604 615 536 771 604 707 b 471 440 604 526 551 483 l 414 410 b 335 303 358 379 335 339 l 599 303 l 599 222 z "},"❸":{"ha":833,"x_min":0,"x_max":0,"o":"m 417 -22 b 814 493 660 -22 814 176 b 417 1008 814 810 660 1008 b 19 493 172 1008 19 810 b 417 -22 19 176 172 -22 z m 418 211 b 222 363 274 211 228 275 l 311 367 b 418 292 315 322 344 292 b 524 376 486 292 524 325 b 411 465 524 429 490 465 l 376 465 l 376 544 l 411 544 b 497 615 463 544 497 568 b 411 689 497 658 469 689 b 319 621 354 689 324 658 l 231 626 b 411 771 242 707 303 771 b 588 624 528 771 588 711 b 494 510 588 560 554 528 b 614 375 586 488 614 436 b 418 211 614 272 529 211 z "},"❹":{"ha":833,"x_min":0,"x_max":0,"o":"m 417 -22 b 814 493 660 -22 814 176 b 417 1008 814 810 660 1008 b 19 493 172 1008 19 810 b 417 -22 19 176 172 -22 z m 460 222 l 460 347 l 210 347 l 210 418 l 465 760 l 551 760 l 551 428 l 626 428 l 626 347 l 551 347 l 551 222 z m 307 428 l 460 428 l 460 626 z "},"❺":{"ha":833,"x_min":0,"x_max":0,"o":"m 417 -22 b 814 493 660 -22 814 176 b 417 1008 814 810 660 1008 b 19 493 172 1008 19 810 b 417 -22 19 176 172 -22 z m 411 211 b 226 353 306 211 235 263 l 315 357 b 414 292 326 313 358 292 b 519 396 478 292 519 328 b 425 501 519 456 489 501 b 321 447 372 501 343 481 l 236 447 l 269 760 l 572 760 l 572 679 l 350 679 l 332 540 b 439 579 354 565 394 579 b 608 396 553 579 608 500 b 411 211 608 279 531 211 z "},"❻":{"ha":833,"x_min":0,"x_max":0,"o":"m 417 -22 b 814 493 660 -22 814 176 b 417 1008 814 810 660 1008 b 19 493 172 1008 19 810 b 417 -22 19 176 172 -22 z m 417 211 b 217 461 297 211 217 299 b 433 771 217 631 278 771 b 613 638 544 771 592 726 l 526 629 b 433 690 515 671 489 690 b 308 532 361 690 314 632 b 431 590 328 565 372 590 b 619 401 538 590 619 529 b 417 211 619 281 533 211 z m 418 292 b 531 404 490 292 531 336 b 419 510 531 471 493 510 b 308 404 354 510 310 471 b 418 292 307 336 349 292 z "},"❼":{"ha":833,"x_min":0,"x_max":0,"o":"m 417 -22 b 814 493 660 -22 814 176 b 417 1008 814 810 660 1008 b 19 493 172 1008 19 810 b 417 -22 19 176 172 -22 z m 335 222 b 494 681 335 390 392 547 l 238 681 l 238 761 l 599 761 l 599 700 b 424 222 490 561 424 414 z "},"❽":{"ha":833,"x_min":0,"x_max":0,"o":"m 417 -22 b 814 493 660 -22 814 176 b 417 1008 814 810 660 1008 b 19 493 172 1008 19 810 b 417 -22 19 176 172 -22 z m 418 211 b 217 367 288 211 217 268 b 325 513 217 432 258 486 b 243 631 275 531 243 564 b 418 771 243 718 304 771 b 593 631 533 771 593 718 b 511 513 593 564 561 531 b 619 367 576 485 619 432 b 418 211 619 268 549 211 z m 418 550 b 501 625 472 550 501 575 b 418 690 501 665 472 690 b 335 625 364 690 335 665 b 418 550 335 575 364 550 z m 418 292 b 528 372 488 292 528 318 b 418 467 528 425 488 467 b 308 372 349 467 308 425 b 418 292 308 318 349 292 z "},"❾":{"ha":833,"x_min":0,"x_max":0,"o":"m 417 -22 b 814 493 660 -22 814 176 b 417 1008 814 810 660 1008 b 19 493 172 1008 19 810 b 417 -22 19 176 172 -22 z m 403 211 b 224 344 292 211 244 256 l 310 353 b 403 292 321 311 347 292 b 528 450 475 292 522 350 b 406 392 508 417 464 392 b 217 581 299 392 217 453 b 419 771 217 701 303 771 b 619 521 539 771 619 683 b 403 211 619 351 558 211 z m 417 472 b 528 578 482 472 526 511 b 418 690 529 646 488 690 b 306 578 346 690 306 646 b 417 472 306 511 343 472 z "},"⓪":{"ha":833,"x_min":0,"x_max":0,"o":"m 417 -22 b 817 493 663 -22 817 163 b 417 1008 817 824 663 1008 b 17 493 169 1008 17 824 b 417 -22 17 163 169 -22 z m 417 72 b 111 493 229 72 111 222 b 417 914 111 764 229 914 b 722 493 603 914 722 764 b 417 72 722 222 603 72 z m 418 211 b 635 492 549 211 635 318 b 418 771 635 665 550 771 b 201 492 286 771 201 665 b 418 211 201 318 288 211 z m 293 492 b 418 688 293 622 336 688 b 482 668 443 688 464 681 l 310 386 b 293 492 299 415 293 451 z m 418 294 b 354 318 394 294 372 303 l 526 601 b 543 492 538 572 543 536 b 418 294 543 363 499 294 z "},"①":{"ha":833,"x_min":0,"x_max":0,"o":"m 417 -22 b 817 493 663 -22 817 163 b 417 1008 817 824 663 1008 b 17 493 169 1008 17 824 b 417 -22 17 163 169 -22 z m 417 72 b 111 493 229 72 111 222 b 417 914 111 764 229 914 b 722 493 603 914 722 764 b 417 72 722 222 603 72 z m 396 222 l 488 222 l 488 761 l 419 761 b 296 643 419 688 376 643 l 263 643 l 263 574 l 396 575 z "},"②":{"ha":833,"x_min":0,"x_max":0,"o":"m 417 -22 b 817 493 663 -22 817 163 b 417 1008 817 824 663 1008 b 17 493 169 1008 17 824 b 417 -22 17 163 169 -22 z m 417 72 b 111 493 229 72 111 222 b 417 914 111 764 229 914 b 722 493 603 914 722 764 b 417 72 722 222 603 72 z m 232 222 l 599 222 l 599 303 l 335 303 b 414 410 335 339 358 379 l 471 440 b 604 615 551 483 604 526 b 429 771 604 707 536 771 b 233 596 310 771 244 701 l 322 592 b 429 690 331 658 363 690 b 513 615 474 690 513 663 b 442 513 513 563 494 542 l 369 472 b 232 222 247 404 232 338 z "},"③":{"ha":833,"x_min":0,"x_max":0,"o":"m 417 -22 b 817 493 663 -22 817 163 b 417 1008 817 824 663 1008 b 17 493 169 1008 17 824 b 417 -22 17 163 169 -22 z m 417 72 b 111 493 229 72 111 222 b 417 914 111 764 229 914 b 722 493 603 914 722 764 b 417 72 722 222 603 72 z m 418 211 b 614 375 529 211 614 272 b 494 510 614 436 586 488 b 588 624 554 528 588 560 b 411 771 588 711 528 771 b 231 626 303 771 242 707 l 319 621 b 411 689 324 658 354 689 b 497 615 469 689 497 658 b 411 544 497 568 463 544 l 376 544 l 376 465 l 411 465 b 524 376 490 465 524 429 b 418 292 524 325 486 292 b 311 367 344 292 315 322 l 222 363 b 418 211 228 275 274 211 z "},"④":{"ha":833,"x_min":0,"x_max":0,"o":"m 417 -22 b 817 493 663 -22 817 163 b 417 1008 817 824 663 1008 b 17 493 169 1008 17 824 b 417 -22 17 163 169 -22 z m 417 72 b 111 493 229 72 111 222 b 417 914 111 764 229 914 b 722 493 603 914 722 764 b 417 72 722 222 603 72 z m 460 222 l 551 222 l 551 347 l 626 347 l 626 428 l 551 428 l 551 760 l 465 760 l 210 418 l 210 347 l 460 347 z m 307 428 l 460 626 l 460 428 z "},"⑤":{"ha":833,"x_min":0,"x_max":0,"o":"m 417 -22 b 817 493 663 -22 817 163 b 417 1008 817 824 663 1008 b 17 493 169 1008 17 824 b 417 -22 17 163 169 -22 z m 417 72 b 111 493 229 72 111 222 b 417 914 111 764 229 914 b 722 493 603 914 722 764 b 417 72 722 222 603 72 z m 411 211 b 608 396 531 211 608 279 b 439 579 608 500 553 579 b 332 540 394 579 354 565 l 350 679 l 572 679 l 572 760 l 269 760 l 236 447 l 321 447 b 425 501 343 481 372 501 b 519 396 489 501 519 456 b 414 292 519 328 478 292 b 315 357 358 292 326 313 l 226 353 b 411 211 235 263 306 211 z "},"⑥":{"ha":833,"x_min":0,"x_max":0,"o":"m 417 -22 b 817 493 663 -22 817 163 b 417 1008 817 824 663 1008 b 17 493 169 1008 17 824 b 417 -22 17 163 169 -22 z m 417 72 b 111 493 229 72 111 222 b 417 914 111 764 229 914 b 722 493 603 914 722 764 b 417 72 722 222 603 72 z m 417 211 b 619 401 533 211 619 281 b 431 590 619 529 538 590 b 308 532 372 590 328 565 b 433 690 314 632 361 690 b 526 629 489 690 515 671 l 613 638 b 433 771 592 726 544 771 b 217 461 278 771 217 631 b 417 211 217 299 297 211 z m 418 292 b 308 404 349 292 307 336 b 419 510 310 471 354 510 b 531 404 493 510 531 471 b 418 292 531 336 490 292 z "},"⑦":{"ha":833,"x_min":0,"x_max":0,"o":"m 417 -22 b 817 493 663 -22 817 163 b 417 1008 817 824 663 1008 b 17 493 169 1008 17 824 b 417 -22 17 163 169 -22 z m 417 72 b 111 493 229 72 111 222 b 417 914 111 764 229 914 b 722 493 603 914 722 764 b 417 72 722 222 603 72 z m 335 222 l 424 222 b 599 700 424 414 490 561 l 599 761 l 238 761 l 238 681 l 494 681 b 335 222 392 547 335 390 z "},"⑧":{"ha":833,"x_min":0,"x_max":0,"o":"m 417 -22 b 817 493 663 -22 817 163 b 417 1008 817 824 663 1008 b 17 493 169 1008 17 824 b 417 -22 17 163 169 -22 z m 417 72 b 111 493 229 72 111 222 b 417 914 111 764 229 914 b 722 493 603 914 722 764 b 417 72 722 222 603 72 z m 418 211 b 619 367 549 211 619 268 b 511 513 619 432 576 485 b 593 631 561 531 593 564 b 418 771 593 718 533 771 b 243 631 304 771 243 718 b 325 513 243 564 275 531 b 217 367 258 486 217 432 b 418 211 217 268 288 211 z m 418 550 b 335 625 364 550 335 575 b 418 690 335 665 364 690 b 501 625 472 690 501 665 b 418 550 501 575 472 550 z m 418 292 b 308 372 349 292 308 318 b 418 467 308 425 349 467 b 528 372 488 467 528 425 b 418 292 528 318 488 292 z "},"⑨":{"ha":833,"x_min":0,"x_max":0,"o":"m 417 -22 b 817 493 663 -22 817 163 b 417 1008 817 824 663 1008 b 17 493 169 1008 17 824 b 417 -22 17 163 169 -22 z m 417 72 b 111 493 229 72 111 222 b 417 914 111 764 229 914 b 722 493 603 914 722 764 b 417 72 722 222 603 72 z m 419 771 b 217 581 303 771 217 701 b 406 392 217 453 299 392 b 528 450 464 392 508 417 b 403 292 522 350 475 292 b 310 353 347 292 321 311 l 224 344 b 403 211 244 256 292 211 b 619 521 558 211 619 351 b 419 771 619 683 539 771 z m 418 690 b 528 578 488 690 529 646 b 417 472 526 511 482 472 b 306 578 343 472 306 511 b 418 690 306 646 346 690 z "},"⁄":{"ha":833,"x_min":0,"x_max":0,"o":"m 476 631 l 585 631 l 778 986 l 669 986 z m 56 0 l 164 0 l 357 354 l 249 354 z "},"½":{"ha":833,"x_min":0,"x_max":0,"o":"m 219 449 l 311 449 l 311 988 l 243 988 b 119 869 243 914 200 869 l 86 869 l 86 800 l 219 801 z m 476 631 l 585 631 l 778 986 l 669 986 z m 394 0 l 761 0 l 761 81 l 497 81 b 576 188 497 117 521 157 l 633 218 b 767 393 714 261 767 304 b 592 549 767 485 699 549 b 396 374 472 549 407 479 l 485 369 b 592 468 493 436 525 468 b 675 393 636 468 675 440 b 604 290 675 340 657 319 l 532 250 b 394 0 410 182 394 115 z m 56 0 l 164 0 l 357 354 l 249 354 z "},"⅓":{"ha":833,"x_min":0,"x_max":0,"o":"m 219 449 l 311 449 l 311 988 l 243 988 b 119 869 243 914 200 869 l 86 869 l 86 800 l 219 801 z m 476 631 l 585 631 l 778 986 l 669 986 z m 571 -11 b 767 153 682 -11 767 50 b 647 288 767 214 739 265 b 740 401 707 306 740 338 b 564 549 740 489 681 549 b 383 404 456 549 394 485 l 472 399 b 564 467 476 436 507 467 b 650 393 622 467 650 436 b 564 322 650 346 615 322 l 529 322 l 529 243 l 564 243 b 676 154 643 243 676 207 b 571 69 676 103 639 69 b 464 144 497 69 468 100 l 375 140 b 571 -11 381 53 426 -11 z m 56 0 l 164 0 l 357 354 l 249 354 z "},"⅔":{"ha":833,"x_min":0,"x_max":0,"o":"m 25 449 l 392 449 l 392 529 l 128 529 b 207 636 128 565 151 606 l 264 667 b 397 842 344 710 397 753 b 222 997 397 933 329 997 b 26 822 103 997 38 928 l 115 818 b 222 917 124 885 156 917 b 306 842 267 917 306 889 b 235 739 306 789 288 768 l 163 699 b 25 449 40 631 25 564 z m 471 631 l 579 631 l 772 986 l 664 986 z m 613 -11 b 808 153 724 -11 808 50 b 689 288 808 214 781 265 b 782 401 749 306 782 338 b 606 549 782 489 722 549 b 425 404 497 549 436 485 l 514 399 b 606 467 518 436 549 467 b 692 393 664 467 692 436 b 606 322 692 346 657 322 l 571 322 l 571 243 l 606 243 b 718 154 685 243 718 207 b 613 69 718 103 681 69 b 506 144 539 69 510 100 l 417 140 b 613 -11 422 53 468 -11 z m 50 0 l 158 0 l 351 354 l 243 354 z "},"¼":{"ha":833,"x_min":0,"x_max":0,"o":"m 219 449 l 311 449 l 311 988 l 243 988 b 119 869 243 914 200 869 l 86 869 l 86 800 l 219 801 z m 476 631 l 585 631 l 778 986 l 669 986 z m 597 0 l 689 0 l 689 125 l 764 125 l 764 206 l 689 206 l 689 538 l 603 538 l 347 196 l 347 125 l 597 125 z m 444 206 l 597 404 l 597 206 z m 56 0 l 164 0 l 357 354 l 249 354 z "},"¾":{"ha":833,"x_min":0,"x_max":0,"o":"m 229 438 b 425 601 340 438 425 499 b 306 736 425 663 397 714 b 399 850 365 754 399 786 b 222 997 399 938 339 997 b 42 853 114 997 53 933 l 131 847 b 222 915 135 885 165 915 b 308 842 281 915 308 885 b 222 771 308 794 274 771 l 188 771 l 188 692 l 222 692 b 335 603 301 692 335 656 b 229 518 335 551 297 518 b 122 593 156 518 126 549 l 33 589 b 229 438 39 501 85 438 z m 496 631 l 604 631 l 797 986 l 689 986 z m 633 0 l 725 0 l 725 125 l 800 125 l 800 206 l 725 206 l 725 538 l 639 538 l 383 196 l 383 125 l 633 125 z m 481 206 l 633 404 l 633 206 z m 75 0 l 183 0 l 376 354 l 268 354 z "},"⅕":{"ha":833,"x_min":0,"x_max":0,"o":"m 206 449 l 297 449 l 297 988 l 229 988 b 106 869 229 914 186 869 l 72 869 l 72 800 l 206 801 z m 476 631 l 585 631 l 778 986 l 669 986 z m 578 -11 b 775 174 697 -11 775 57 b 606 357 775 278 719 357 b 499 318 561 357 521 343 l 517 457 l 739 457 l 739 538 l 436 538 l 403 225 l 488 225 b 592 279 510 258 539 279 b 686 174 656 279 686 233 b 581 69 686 106 644 69 b 482 135 525 69 493 90 l 393 131 b 578 -11 401 40 472 -11 z m 56 0 l 164 0 l 357 354 l 249 354 z "},"⅛":{"ha":833,"x_min":0,"x_max":0,"o":"m 192 449 l 283 449 l 283 988 l 215 988 b 92 869 215 914 172 869 l 58 869 l 58 800 l 192 801 z m 463 631 l 571 631 l 764 986 l 656 986 z m 590 -11 b 792 144 721 -11 792 46 b 683 290 792 210 749 263 b 765 408 733 308 765 342 b 590 549 765 496 706 549 b 415 408 476 549 415 496 b 497 290 415 342 447 308 b 389 144 431 264 389 210 b 590 -11 389 46 460 -11 z m 590 328 b 507 403 536 328 507 353 b 590 468 507 443 536 468 b 674 403 644 468 674 443 b 590 328 674 353 644 328 z m 42 0 l 150 0 l 343 354 l 235 354 z m 590 69 b 481 150 521 69 481 96 b 590 244 481 203 521 244 b 700 150 660 244 700 203 b 590 69 700 96 660 69 z "},"⅜":{"ha":833,"x_min":0,"x_max":0,"o":"m 213 438 b 410 622 332 438 410 506 b 240 806 410 726 354 806 b 133 767 196 806 156 792 l 151 906 l 374 906 l 374 986 l 71 986 l 38 674 l 122 674 b 226 728 144 707 174 728 b 321 622 290 728 321 682 b 215 518 321 554 279 518 b 117 583 160 518 128 539 l 28 579 b 213 438 36 489 107 438 z m 476 631 l 585 631 l 778 986 l 669 986 z m 604 -11 b 806 144 735 -11 806 46 b 697 290 806 210 763 263 b 779 408 747 308 779 342 b 604 549 779 496 719 549 b 429 408 490 549 429 496 b 511 290 429 342 461 308 b 403 144 444 264 403 210 b 604 -11 403 46 474 -11 z m 604 328 b 521 403 550 328 521 353 b 604 468 521 443 550 468 b 688 403 658 468 688 443 b 604 328 688 353 658 328 z m 56 0 l 164 0 l 357 354 l 249 354 z m 604 69 b 494 150 535 69 494 96 b 604 244 494 203 535 244 b 714 150 674 244 714 203 b 604 69 714 96 674 69 z "},"⅝":{"ha":833,"x_min":0,"x_max":0,"o":"m 224 438 b 419 601 335 438 419 499 b 300 736 419 663 392 714 b 393 850 360 754 393 786 b 217 997 393 938 333 997 b 36 853 108 997 47 933 l 125 847 b 217 915 129 885 160 915 b 303 842 275 915 303 885 b 217 771 303 794 268 771 l 182 771 l 182 692 l 217 692 b 329 603 296 692 329 656 b 224 518 329 551 292 518 b 117 593 150 518 121 549 l 28 589 b 224 438 33 501 79 438 z m 469 631 l 578 631 l 771 986 l 663 986 z m 604 -11 b 806 144 735 -11 806 46 b 697 290 806 210 763 263 b 779 408 747 308 779 342 b 604 549 779 496 719 549 b 429 408 490 549 429 496 b 511 290 429 342 461 308 b 403 144 444 264 403 210 b 604 -11 403 46 474 -11 z m 604 328 b 521 403 550 328 521 353 b 604 468 521 443 550 468 b 688 403 658 468 688 443 b 604 328 688 353 658 328 z m 49 0 l 157 0 l 350 354 l 242 354 z m 604 69 b 494 150 535 69 494 96 b 604 244 494 203 535 244 b 714 150 674 244 714 203 b 604 69 714 96 674 69 z "},"⅞":{"ha":833,"x_min":0,"x_max":0,"o":"m 135 447 l 224 447 b 399 925 224 639 290 786 l 399 986 l 38 986 l 38 906 l 294 906 b 135 447 192 772 135 615 z m 450 631 l 558 631 l 751 986 l 643 986 z m 604 -11 b 806 144 735 -11 806 46 b 697 290 806 210 763 263 b 779 408 747 308 779 342 b 604 549 779 496 719 549 b 429 408 490 549 429 496 b 511 290 429 342 461 308 b 403 144 444 264 403 210 b 604 -11 403 46 474 -11 z m 604 328 b 521 403 550 328 521 353 b 604 468 521 443 550 468 b 688 403 658 468 688 443 b 604 328 688 353 658 328 z m 29 0 l 138 0 l 331 354 l 222 354 z m 604 69 b 494 150 535 69 494 96 b 604 244 494 203 535 244 b 714 150 674 244 714 203 b 604 69 714 96 674 69 z "},"₀":{"ha":833,"x_min":0,"x_max":0,"o":"m 417 -150 b 633 131 547 -150 633 -43 b 417 410 633 304 549 410 b 200 131 285 410 200 304 b 417 -150 200 -43 286 -150 z m 292 131 b 417 326 292 261 335 326 b 481 307 442 326 463 319 l 308 25 b 292 131 297 54 292 90 z m 417 -67 b 353 -43 393 -67 371 -58 l 525 240 b 542 131 536 211 542 175 b 417 -67 542 1 497 -67 z "},"₁":{"ha":833,"x_min":0,"x_max":0,"o":"m 438 -139 l 529 -139 l 529 400 l 461 400 b 338 282 461 326 418 282 l 304 282 l 304 213 l 438 214 z "},"₂":{"ha":833,"x_min":0,"x_max":0,"o":"m 231 -139 l 597 -139 l 597 -58 l 333 -58 b 413 49 333 -22 357 18 l 469 79 b 603 254 550 122 603 165 b 428 410 603 346 535 410 b 232 235 308 410 243 340 l 321 231 b 428 329 329 297 361 329 b 511 254 472 329 511 301 b 440 151 511 201 493 181 l 368 111 b 231 -139 246 43 231 -24 z "},"₃":{"ha":833,"x_min":0,"x_max":0,"o":"m 417 -150 b 613 14 528 -150 613 -89 b 493 149 613 75 585 126 b 586 263 553 167 586 199 b 410 410 586 350 526 410 b 229 265 301 410 240 346 l 318 260 b 410 328 322 297 353 328 b 496 254 468 328 496 297 b 410 183 496 207 461 183 l 375 183 l 375 104 l 410 104 b 522 15 489 104 522 68 b 417 -69 522 -36 485 -69 b 310 6 343 -69 314 -39 l 221 1 b 417 -150 226 -86 272 -150 z "},"₄":{"ha":833,"x_min":0,"x_max":0,"o":"m 458 -139 l 550 -139 l 550 -14 l 625 -14 l 625 67 l 550 67 l 550 399 l 464 399 l 208 57 l 208 -14 l 458 -14 z m 306 67 l 458 265 l 458 67 z "},"₅":{"ha":833,"x_min":0,"x_max":0,"o":"m 411 -150 b 608 35 531 -150 608 -82 b 439 218 608 139 553 218 b 332 179 394 218 354 204 l 350 318 l 572 318 l 572 399 l 269 399 l 236 86 l 321 86 b 425 140 343 119 372 140 b 519 35 489 140 519 94 b 414 -69 519 -33 478 -69 b 315 -4 358 -69 326 -49 l 226 -8 b 411 -150 235 -99 306 -150 z "},"₆":{"ha":833,"x_min":0,"x_max":0,"o":"m 415 -150 b 618 40 532 -150 618 -81 b 429 229 618 168 536 229 b 307 171 371 229 326 204 b 432 329 313 271 360 329 b 525 268 488 329 514 310 l 611 276 b 432 410 590 365 543 410 b 215 100 276 410 215 269 b 415 -150 215 -62 296 -150 z m 417 -69 b 307 43 347 -69 306 -25 b 418 149 308 110 353 149 b 529 43 492 149 529 110 b 417 -69 529 -25 489 -69 z "},"₇":{"ha":833,"x_min":0,"x_max":0,"o":"m 333 -139 l 422 -139 b 597 339 422 53 489 200 l 597 400 l 236 400 l 236 319 l 493 319 b 333 -139 390 186 333 29 z "},"₈":{"ha":833,"x_min":0,"x_max":0,"o":"m 417 -150 b 618 6 547 -150 618 -93 b 510 151 618 71 575 124 b 592 269 560 169 592 203 b 417 410 592 357 532 410 b 242 269 303 410 242 357 b 324 151 242 203 274 169 b 215 6 257 125 215 71 b 417 -150 215 -93 286 -150 z m 417 189 b 333 264 363 189 333 214 b 417 329 333 304 363 329 b 500 264 471 329 500 304 b 417 189 500 214 471 189 z m 417 -69 b 307 11 347 -69 307 -43 b 417 106 307 64 347 106 b 526 11 486 106 526 64 b 417 -69 526 -43 486 -69 z "},"₉":{"ha":833,"x_min":0,"x_max":0,"o":"m 418 410 b 215 219 301 410 215 340 b 404 31 215 92 297 31 b 526 89 463 31 507 56 b 401 -69 521 -11 474 -69 b 308 -8 346 -69 319 -50 l 222 -17 b 401 -150 243 -106 290 -150 b 618 160 557 -150 618 -10 b 418 410 618 322 538 410 z m 417 329 b 526 217 486 329 528 285 b 415 111 525 150 481 111 b 304 217 342 111 304 150 b 417 329 304 285 344 329 z "},"⁰":{"ha":833,"x_min":0,"x_max":0,"o":"m 417 438 b 633 718 547 438 633 544 b 417 997 633 892 549 997 b 200 718 285 997 200 892 b 417 438 200 544 286 438 z m 292 718 b 417 914 292 849 335 914 b 481 894 442 914 463 907 l 308 613 b 292 718 297 642 292 678 z m 417 521 b 353 544 393 521 371 529 l 525 828 b 542 718 536 799 542 763 b 417 521 542 589 497 521 z "},"¹":{"ha":833,"x_min":0,"x_max":0,"o":"m 438 449 l 529 449 l 529 988 l 461 988 b 338 869 461 914 418 869 l 304 869 l 304 800 l 438 801 z "},"²":{"ha":833,"x_min":0,"x_max":0,"o":"m 231 449 l 597 449 l 597 529 l 333 529 b 413 636 333 565 357 606 l 469 667 b 603 842 550 710 603 753 b 428 997 603 933 535 997 b 232 822 308 997 243 928 l 321 818 b 428 917 329 885 361 917 b 511 842 472 917 511 889 b 440 739 511 789 493 768 l 368 699 b 231 449 246 631 231 564 z "},"³":{"ha":833,"x_min":0,"x_max":0,"o":"m 417 438 b 613 601 528 438 613 499 b 493 736 613 663 585 714 b 586 850 553 754 586 786 b 410 997 586 938 526 997 b 229 853 301 997 240 933 l 318 847 b 410 915 322 885 353 915 b 496 842 468 915 496 885 b 410 771 496 794 461 771 l 375 771 l 375 692 l 410 692 b 522 603 489 692 522 656 b 417 518 522 551 485 518 b 310 593 343 518 314 549 l 221 589 b 417 438 226 501 272 438 z "},"⁴":{"ha":833,"x_min":0,"x_max":0,"o":"m 458 449 l 550 449 l 550 574 l 625 574 l 625 654 l 550 654 l 550 986 l 464 986 l 208 644 l 208 574 l 458 574 z m 306 654 l 458 853 l 458 654 z "},"⁵":{"ha":833,"x_min":0,"x_max":0,"o":"m 411 438 b 608 622 531 438 608 506 b 439 806 608 726 553 806 b 332 767 394 806 354 792 l 350 906 l 572 906 l 572 986 l 269 986 l 236 674 l 321 674 b 425 728 343 707 372 728 b 519 622 489 728 519 682 b 414 518 519 554 478 518 b 315 583 358 518 326 539 l 226 579 b 411 438 235 489 306 438 z "},"⁶":{"ha":833,"x_min":0,"x_max":0,"o":"m 415 438 b 618 628 532 438 618 507 b 429 817 618 756 536 817 b 307 758 371 817 326 792 b 432 917 313 858 360 917 b 525 856 488 917 514 897 l 611 864 b 432 997 590 953 543 997 b 215 688 276 997 215 857 b 415 438 215 525 296 438 z m 417 518 b 307 631 347 518 306 563 b 418 736 308 697 353 736 b 529 631 492 736 529 697 b 417 518 529 563 489 518 z "},"⁷":{"ha":833,"x_min":0,"x_max":0,"o":"m 333 447 l 422 447 b 597 925 422 639 489 786 l 597 986 l 236 986 l 236 906 l 493 906 b 333 447 390 772 333 615 z "},"⁸":{"ha":833,"x_min":0,"x_max":0,"o":"m 417 438 b 618 593 547 438 618 494 b 510 739 618 658 575 711 b 592 857 560 757 592 790 b 417 997 592 944 532 997 b 242 857 303 997 242 944 b 324 739 242 790 274 757 b 215 593 257 713 215 658 b 417 438 215 494 286 438 z m 417 776 b 333 851 363 776 333 801 b 417 917 333 892 363 917 b 500 851 471 917 500 892 b 417 776 500 801 471 776 z m 417 518 b 307 599 347 518 307 544 b 417 693 307 651 347 693 b 526 599 486 693 526 651 b 417 518 526 544 486 518 z "},"⁹":{"ha":833,"x_min":0,"x_max":0,"o":"m 418 997 b 215 807 301 997 215 928 b 404 618 215 679 297 618 b 526 676 463 618 507 643 b 401 518 521 576 474 518 b 308 579 346 518 319 538 l 222 571 b 401 438 243 482 290 438 b 618 747 557 438 618 578 b 418 997 618 910 538 997 z m 417 917 b 526 804 486 917 528 872 b 415 699 525 738 481 699 b 304 804 342 699 304 738 b 417 917 304 872 344 917 z "}," ":{"ha":833,"x_min":0,"x_max":0,"o":""}," ":{"ha":833,"x_min":0,"x_max":0,"o":""},".":{"ha":833,"x_min":0,"x_max":0,"o":"m 331 0 l 503 0 l 503 169 l 331 169 z "},",":{"ha":833,"x_min":0,"x_max":0,"o":"m 343 -217 l 413 -217 l 500 19 l 500 169 l 333 169 l 333 0 l 408 0 z "},":":{"ha":833,"x_min":0,"x_max":0,"o":"m 331 536 l 503 536 l 503 706 l 331 706 z m 331 0 l 503 0 l 503 169 l 331 169 z "},";":{"ha":833,"x_min":0,"x_max":0,"o":"m 331 536 l 503 536 l 503 706 l 331 706 z m 343 -217 l 413 -217 l 500 19 l 500 169 l 333 169 l 333 0 l 408 0 z "},"…":{"ha":833,"x_min":0,"x_max":0,"o":"m 69 0 l 242 0 l 242 169 l 69 169 z m 329 0 l 501 0 l 501 169 l 329 169 z m 592 0 l 764 0 l 764 169 l 592 169 z "},"!":{"ha":833,"x_min":0,"x_max":0,"o":"m 379 290 l 456 290 b 476 667 464 388 476 556 l 476 986 l 357 986 l 357 667 b 379 290 357 556 371 388 z m 331 0 l 503 0 l 503 169 l 331 169 z "},"¡":{"ha":833,"x_min":0,"x_max":0,"o":"m 331 761 l 331 592 l 503 592 l 503 761 z m 379 471 b 357 94 371 374 357 206 l 357 -225 l 476 -225 l 476 94 b 456 471 476 206 464 374 z "},"?":{"ha":833,"x_min":0,"x_max":0,"o":"m 353 279 l 472 279 b 568 469 472 376 493 421 b 742 725 688 547 742 608 b 438 1008 742 890 618 1008 b 92 694 235 1008 108 878 l 217 686 b 438 892 231 819 300 892 b 617 725 550 892 617 821 b 488 542 617 642 596 608 b 353 279 392 482 353 413 z m 326 0 l 499 0 l 499 169 l 326 169 z "},"¿":{"ha":833,"x_min":0,"x_max":0,"o":"m 507 756 l 335 756 l 335 586 l 507 586 z m 396 -225 b 742 89 599 -225 725 -94 l 617 97 b 396 -108 603 -36 533 -108 b 217 35 283 -108 217 -56 b 346 226 217 124 238 160 b 481 489 442 286 481 356 l 361 489 b 265 299 361 392 340 347 b 92 35 146 221 92 157 b 396 -225 92 -125 215 -225 z "},"·":{"ha":833,"x_min":0,"x_max":0,"o":"m 331 338 l 503 338 l 503 507 l 331 507 z "},"•":{"ha":833,"x_min":0,"x_max":0,"o":"m 417 282 b 567 432 499 282 567 350 b 417 582 567 515 499 582 b 267 432 335 582 267 515 b 417 282 267 350 335 282 z "},"*":{"ha":833,"x_min":0,"x_max":0,"o":"m 325 531 l 417 678 l 510 531 l 582 578 l 488 719 l 653 719 l 653 808 l 488 808 l 582 950 l 510 997 l 417 849 l 325 997 l 253 950 l 346 808 l 181 808 l 181 719 l 346 719 l 253 578 z "},"〃":{"ha":833,"x_min":0,"x_max":0,"o":"m 396 390 l 486 390 l 611 668 l 482 668 z m 222 390 l 313 390 l 438 668 l 310 668 z "},"#":{"ha":833,"x_min":0,"x_max":0,"o":"m 139 0 l 239 0 l 290 274 l 464 274 l 413 0 l 513 0 l 564 274 l 692 274 l 708 371 l 582 371 l 626 611 l 747 611 l 764 708 l 644 708 l 696 986 l 596 986 l 544 708 l 371 708 l 422 986 l 322 986 l 271 708 l 142 708 l 125 611 l 253 611 l 208 371 l 86 371 l 69 274 l 190 274 z m 308 371 l 353 611 l 526 611 l 482 371 z "},"/":{"ha":833,"x_min":0,"x_max":0,"o":"m 150 -153 l 261 -153 l 683 1042 l 572 1042 z "},"\\":{"ha":833,"x_min":0,"x_max":0,"o":"m 683 -153 l 261 1042 l 150 1042 l 572 -153 z "},"-":{"ha":833,"x_min":0,"x_max":0,"o":"m 194 350 l 639 350 l 639 460 l 194 460 z "},"–":{"ha":833,"x_min":0,"x_max":0,"o":"m 139 351 l 694 351 l 694 460 l 139 460 z "},"—":{"ha":833,"x_min":0,"x_max":0,"o":"m 28 351 l 806 351 l 806 460 l 28 460 z "},"_":{"ha":833,"x_min":0,"x_max":0,"o":"m 111 -108 l 722 -108 l 722 0 l 111 0 z "},"〜":{"ha":833,"x_min":0,"x_max":0,"o":"m 586 301 b 825 451 679 301 772 358 l 744 532 b 586 418 694 460 640 418 b 417 482 543 418 486 439 b 247 542 353 522 296 542 b 8 392 154 542 63 485 l 89 311 b 247 425 139 385 193 425 b 417 361 290 425 347 404 b 586 301 481 321 538 301 z "},"(":{"ha":833,"x_min":0,"x_max":0,"o":"m 461 -153 l 565 -153 b 389 444 449 47 389 246 b 565 1042 389 643 449 843 l 461 1042 b 268 444 333 850 268 647 b 461 -153 268 242 333 39 z "},")":{"ha":833,"x_min":0,"x_max":0,"o":"m 372 -153 b 565 444 500 39 565 242 b 372 1042 565 647 500 850 l 268 1042 b 444 444 385 843 444 643 b 268 -153 444 246 385 47 z "},"{":{"ha":833,"x_min":0,"x_max":0,"o":"m 568 -160 l 644 -160 l 644 -51 b 443 76 497 -56 443 -19 l 443 204 b 288 442 443 343 375 422 l 288 443 b 443 678 372 463 443 539 l 443 806 b 644 933 443 903 497 939 l 644 1042 l 568 1042 b 332 803 421 1042 332 943 l 332 688 b 189 499 332 568 281 499 l 189 383 b 332 194 281 383 332 314 l 332 79 b 568 -160 332 -61 421 -160 z "},"}":{"ha":833,"x_min":0,"x_max":0,"o":"m 265 -160 b 501 79 413 -160 501 -61 l 501 194 b 644 383 501 314 553 383 l 644 499 b 501 688 553 499 501 568 l 501 803 b 265 1042 501 943 413 1042 l 189 1042 l 189 933 b 390 806 336 939 390 903 l 390 678 b 546 443 390 539 461 463 l 546 442 b 390 204 458 422 390 343 l 390 76 b 189 -51 390 -19 336 -56 l 189 -160 z "},"[":{"ha":833,"x_min":0,"x_max":0,"o":"m 583 -153 l 583 -56 l 361 -56 l 361 944 l 583 944 l 583 1042 l 250 1042 l 250 -153 z "},"]":{"ha":833,"x_min":0,"x_max":0,"o":"m 250 -153 l 583 -153 l 583 1042 l 250 1042 l 250 944 l 472 944 l 472 -56 l 250 -56 z "},"〈":{"ha":833,"x_min":0,"x_max":0,"o":"m 492 -158 l 603 -158 l 349 492 l 603 1140 l 492 1140 l 238 492 z "},"〉":{"ha":833,"x_min":0,"x_max":0,"o":"m 342 -158 l 596 492 l 342 1140 l 231 1140 l 485 492 l 231 -158 z "},"【":{"ha":833,"x_min":0,"x_max":0,"o":"m 638 -87 b 638 1146 388 311 388 749 l 257 1146 l 257 -87 z "},"】":{"ha":833,"x_min":0,"x_max":0,"o":"m 196 -87 l 576 -87 l 576 1146 l 196 1146 b 196 -87 446 749 446 311 z "},"「":{"ha":833,"x_min":0,"x_max":0,"o":"m 236 326 l 349 326 l 349 1039 l 657 1039 l 657 1147 l 236 1147 z "},"」":{"ha":833,"x_min":0,"x_max":0,"o":"m 597 678 l 485 678 l 485 -35 l 176 -35 l 176 -143 l 597 -143 z "},"《":{"ha":833,"x_min":0,"x_max":0,"o":"m 371 -158 l 482 -158 l 228 492 l 482 1140 l 371 1140 l 117 492 z m 603 -158 l 714 -158 l 460 492 l 714 1140 l 603 1140 l 349 492 z "},"》":{"ha":833,"x_min":0,"x_max":0,"o":"m 463 -158 l 717 492 l 463 1140 l 351 1140 l 606 492 l 351 -158 z m 231 -158 l 485 492 l 231 1140 l 119 1140 l 374 492 l 119 -158 z "},"〔":{"ha":833,"x_min":0,"x_max":0,"o":"m 593 -203 l 665 -124 l 356 156 l 356 826 l 663 1101 l 590 1181 l 244 871 l 244 111 z "},"〕":{"ha":833,"x_min":0,"x_max":0,"o":"m 240 -203 l 589 111 l 589 871 l 243 1181 l 171 1101 l 478 826 l 478 156 l 168 -124 z "},"『":{"ha":833,"x_min":0,"x_max":0,"o":"m 236 324 l 458 324 l 458 925 l 657 925 l 657 1147 l 236 1147 z m 292 379 l 292 1092 l 603 1092 l 603 981 l 404 981 l 404 379 z "},"』":{"ha":833,"x_min":0,"x_max":0,"o":"m 597 681 l 375 681 l 375 79 l 176 79 l 176 -143 l 597 -143 z m 542 625 l 542 -87 l 231 -87 l 231 24 l 429 24 l 429 625 z "},"〖":{"ha":833,"x_min":0,"x_max":0,"o":"m 625 -87 b 625 1146 375 311 375 749 l 257 1146 l 257 -87 z m 528 -32 l 313 -32 l 313 1090 l 528 1090 b 528 -32 335 718 335 342 z "},"〗":{"ha":833,"x_min":0,"x_max":0,"o":"m 208 -87 l 576 -87 l 576 1146 l 208 1146 b 208 -87 458 749 458 311 z m 306 -32 b 306 1090 499 342 499 718 l 521 1090 l 521 -32 z "},"‚":{"ha":833,"x_min":0,"x_max":0,"o":"m 343 -217 l 413 -217 l 500 19 l 500 169 l 333 169 l 333 0 l 408 0 z "},"„":{"ha":833,"x_min":0,"x_max":0,"o":"m 204 -217 l 274 -217 l 361 19 l 361 169 l 194 169 l 194 0 l 269 0 z m 482 -217 l 551 -217 l 639 19 l 639 169 l 472 169 l 472 0 l 547 0 z "},"“":{"ha":833,"x_min":0,"x_max":0,"o":"m 629 1008 l 560 1008 l 472 772 l 472 622 l 639 622 l 639 792 l 564 792 z m 351 1008 l 282 1008 l 194 772 l 194 622 l 361 622 l 361 792 l 286 792 z "},"”":{"ha":833,"x_min":0,"x_max":0,"o":"m 204 600 l 274 600 l 361 836 l 361 986 l 194 986 l 194 817 l 269 817 z m 482 600 l 551 600 l 639 836 l 639 986 l 472 986 l 472 817 l 547 817 z "},"‘":{"ha":833,"x_min":0,"x_max":0,"o":"m 499 1007 l 429 1007 l 342 771 l 342 621 l 508 621 l 508 790 l 433 790 z "},"’":{"ha":833,"x_min":0,"x_max":0,"o":"m 335 600 l 404 600 l 492 836 l 492 986 l 325 986 l 325 817 l 400 817 z "},"«":{"ha":833,"x_min":0,"x_max":0,"o":"m 444 106 l 208 383 l 444 661 l 301 661 l 111 435 l 111 332 l 301 106 z m 722 106 l 486 383 l 722 661 l 579 661 l 389 435 l 389 332 l 579 106 z "},"»":{"ha":833,"x_min":0,"x_max":0,"o":"m 389 106 l 532 106 l 722 332 l 722 435 l 532 661 l 389 661 l 625 383 z m 111 106 l 254 106 l 444 332 l 444 435 l 254 661 l 111 661 l 347 383 z "},"‹":{"ha":833,"x_min":0,"x_max":0,"o":"m 583 106 l 347 383 l 583 661 l 440 661 l 250 435 l 250 332 l 440 106 z "},"›":{"ha":833,"x_min":0,"x_max":0,"o":"m 250 106 l 393 106 l 583 332 l 583 435 l 393 661 l 250 661 l 486 383 z "},"\"":{"ha":833,"x_min":0,"x_max":0,"o":"m 479 532 l 564 532 l 597 875 l 597 986 l 474 986 z m 269 532 l 354 532 l 360 986 l 236 986 l 236 875 z "},"'":{"ha":833,"x_min":0,"x_max":0,"o":"m 375 532 l 458 532 l 478 881 l 478 986 l 356 986 l 356 881 z "},"ƒ":{"ha":833,"x_min":0,"x_max":0,"o":"m 111 0 l 228 -1 b 438 185 354 -3 424 61 l 488 633 l 722 633 l 722 736 l 499 736 l 507 806 b 592 883 513 856 542 883 l 722 883 l 722 985 l 601 986 b 393 800 476 988 407 924 l 386 736 l 226 736 l 226 633 l 375 633 l 325 179 b 239 103 319 129 290 103 l 111 103 z "},"฿":{"ha":833,"x_min":0,"x_max":0,"o":"m 93 0 l 321 0 l 321 -126 l 418 -126 l 418 0 b 740 275 619 4 740 107 b 519 508 740 403 658 490 b 699 717 628 528 699 610 b 418 985 699 871 604 971 l 418 1118 l 321 1118 l 321 986 l 93 986 z m 213 560 l 213 869 l 321 869 l 321 560 z m 574 714 b 418 561 574 626 525 572 l 418 868 b 574 714 525 857 574 803 z m 213 117 l 213 443 l 321 443 l 321 117 z m 615 275 b 418 117 615 178 553 119 l 418 443 b 615 275 547 439 615 378 z "},"":{"ha":833,"x_min":0,"x_max":0,"o":"m 146 0 l 688 0 b 822 135 765 0 822 57 l 822 676 b 688 811 822 754 765 811 l 146 811 b 11 676 68 811 11 754 l 11 135 b 146 0 11 57 68 0 z m 119 172 l 415 688 l 713 172 z "},"@":{"ha":833,"x_min":0,"x_max":0,"o":"m 594 -97 l 558 -6 b 383 -58 497 -40 436 -58 b 125 342 224 -58 125 64 b 453 889 125 711 269 889 b 708 524 632 889 708 749 b 625 200 708 281 675 200 b 578 303 599 200 578 235 b 614 694 578 374 593 500 l 517 694 l 508 626 b 407 696 494 668 457 696 b 200 350 292 696 200 532 b 347 111 200 204 254 111 b 492 226 410 111 463 151 b 608 106 510 154 553 106 b 806 531 718 106 806 194 b 458 986 806 799 686 986 b 28 340 213 986 28 769 b 381 -153 28 -7 175 -153 b 594 -97 453 -153 521 -135 z m 381 197 b 308 361 333 197 308 261 b 419 601 308 486 358 601 b 493 464 468 601 493 556 b 381 197 493 324 440 197 z "},"&":{"ha":833,"x_min":0,"x_max":0,"o":"m 333 -22 b 614 63 467 -22 560 11 l 665 0 l 806 0 l 688 143 b 781 431 742 208 779 319 l 664 442 b 614 231 664 347 647 276 l 389 518 b 594 797 538 617 594 692 b 364 1008 594 928 511 1008 b 122 781 214 1008 122 922 b 222 547 122 693 158 631 b 28 242 75 443 28 368 b 333 -22 28 72 144 -22 z m 325 603 b 247 781 267 678 247 724 b 364 892 247 850 290 892 b 469 789 431 892 469 856 b 325 603 469 718 431 668 z m 347 89 b 153 242 211 89 153 149 b 292 456 153 328 192 386 l 536 147 b 347 89 504 114 442 89 z "},"¶":{"ha":833,"x_min":0,"x_max":0,"o":"m 375 0 l 486 0 l 486 881 l 583 881 l 583 0 l 694 0 l 694 986 l 382 986 b 111 706 231 986 111 878 b 375 425 111 533 224 425 z "},"§":{"ha":833,"x_min":0,"x_max":0,"o":"m 431 -89 b 719 117 599 -89 719 -3 b 606 292 719 201 683 254 b 722 447 683 322 722 374 b 438 681 722 571 653 624 b 261 800 300 717 261 743 b 411 897 261 856 324 897 b 601 764 517 897 586 849 l 721 772 b 424 1008 700 921 590 1008 b 138 794 253 1008 138 925 b 265 639 138 729 181 676 b 135 461 179 601 135 542 b 399 254 135 356 208 294 b 599 125 544 224 599 182 b 431 22 599 63 557 22 b 232 168 310 22 246 79 l 111 160 b 431 -89 125 17 242 -89 z m 471 344 b 246 474 299 344 246 411 b 386 582 246 533 310 582 b 613 453 490 582 613 544 b 471 344 613 388 557 344 z "},"©":{"ha":833,"x_min":0,"x_max":0,"o":"m 415 -17 b 819 496 657 -17 819 194 b 415 1008 819 797 657 1008 b 14 496 174 1008 14 797 b 415 -17 14 194 174 -17 z m 415 69 b 106 496 222 69 106 240 b 415 922 106 753 222 922 b 728 496 608 922 728 753 b 415 69 728 240 608 69 z m 417 200 b 651 421 538 200 635 285 l 556 428 b 417 296 543 340 492 296 b 276 494 325 296 276 375 b 417 693 276 614 325 693 b 551 572 490 693 540 651 l 647 579 b 417 789 633 708 533 789 b 181 494 278 789 181 665 b 417 200 181 322 278 200 z "},"®":{"ha":833,"x_min":0,"x_max":0,"o":"m 418 249 b 794 629 628 249 794 419 b 418 1008 794 839 628 1008 b 39 629 207 1008 39 839 b 418 249 39 419 207 249 z m 418 324 b 119 629 240 324 119 463 b 418 933 119 796 240 933 b 714 629 594 933 714 796 b 418 324 714 463 594 324 z m 267 421 l 344 421 l 344 583 l 408 583 l 504 421 l 592 421 l 485 593 b 575 708 542 608 575 650 b 404 835 575 788 511 835 l 267 835 z m 344 647 l 344 769 l 415 769 b 500 711 469 769 500 749 b 415 647 500 672 469 647 z "},"℗":{"ha":833,"x_min":0,"x_max":0,"o":"m 418 249 b 794 629 628 249 794 419 b 418 1008 794 839 628 1008 b 39 629 207 1008 39 839 b 418 249 39 419 207 249 z m 418 324 b 119 629 240 324 119 463 b 418 933 119 796 240 933 b 714 629 594 933 714 796 b 418 324 714 463 594 324 z m 292 421 l 369 421 l 369 583 l 429 583 b 600 708 536 583 600 624 b 429 835 600 788 536 835 l 292 835 z m 369 647 l 369 769 l 440 769 b 525 711 494 769 525 749 b 440 647 525 672 494 647 z "},"™":{"ha":833,"x_min":0,"x_max":0,"o":"m 379 499 l 461 499 l 461 767 l 551 499 l 633 499 l 724 765 l 724 499 l 806 499 l 806 986 l 718 986 l 592 607 l 468 986 l 379 986 z m 142 499 l 224 499 l 224 908 l 339 908 l 339 986 l 28 986 l 28 908 l 142 908 z "},"°":{"ha":833,"x_min":0,"x_max":0,"o":"m 417 569 b 636 789 536 569 636 664 b 417 1008 636 914 536 1008 b 197 789 297 1008 197 914 b 417 569 197 664 297 569 z m 417 672 b 300 789 353 672 300 719 b 417 908 300 860 354 908 b 533 789 479 908 533 860 b 417 672 533 719 481 672 z "},"′":{"ha":833,"x_min":0,"x_max":0,"o":"m 326 669 l 432 669 l 508 986 l 390 986 z "},"″":{"ha":833,"x_min":0,"x_max":0,"o":"m 242 669 l 347 669 l 424 986 l 306 986 z m 411 669 l 517 669 l 593 986 l 475 986 z "},"|":{"ha":833,"x_min":0,"x_max":0,"o":"m 361 -153 l 472 -153 l 472 1042 l 361 1042 z "},"¦":{"ha":833,"x_min":0,"x_max":0,"o":"m 363 549 l 471 549 l 471 1042 l 363 1042 z m 363 -153 l 471 -153 l 471 340 l 363 340 z "},"†":{"ha":833,"x_min":0,"x_max":0,"o":"m 361 0 l 472 0 l 472 631 l 694 631 l 694 736 l 472 736 l 472 986 l 361 986 l 361 736 l 139 736 l 139 631 l 361 631 z "},"‡":{"ha":833,"x_min":0,"x_max":0,"o":"m 139 239 l 361 239 l 361 0 l 472 0 l 472 239 l 694 239 l 694 344 l 472 344 l 472 631 l 694 631 l 694 736 l 472 736 l 472 986 l 361 986 l 361 736 l 139 736 l 139 631 l 361 631 l 361 344 l 139 344 z "},"№":{"ha":833,"x_min":0,"x_max":0,"o":"m 644 522 b 819 765 760 522 819 617 b 644 1008 819 911 760 1008 b 469 765 528 1008 469 913 b 644 522 469 617 528 522 z m 14 0 l 125 0 l 125 792 l 264 0 l 431 0 l 431 986 l 319 986 l 319 194 l 181 986 l 14 986 z m 644 613 b 581 765 594 613 581 671 b 644 918 581 857 594 918 b 708 765 692 918 708 860 b 644 613 708 669 692 613 z m 492 292 l 797 292 l 797 394 l 492 394 z "},"␣":{"ha":833,"x_min":0,"x_max":0,"o":"m 53 -264 l 781 -264 l 781 0 l 671 0 l 671 -156 l 163 -156 l 163 0 l 53 0 z "},"␌":{"ha":833,"x_min":0,"x_max":0,"o":"m 110 417 l 181 417 l 181 607 l 381 607 l 381 675 l 181 675 l 181 807 l 393 807 l 393 875 l 110 875 z m 461 99 l 531 99 l 531 289 l 732 289 l 732 357 l 531 357 l 531 489 l 744 489 l 744 557 l 461 557 z "},"⌧":{"ha":833,"x_min":0,"x_max":0,"o":"m 19 0 l 814 0 l 814 986 l 19 986 z m 115 96 l 115 890 l 718 890 l 718 96 z m 290 289 l 417 415 l 543 288 l 621 365 l 494 493 l 619 618 l 543 694 l 418 569 l 290 696 l 213 618 l 340 492 l 214 365 z "},"⌫":{"ha":833,"x_min":0,"x_max":0,"o":"m 219 0 l 822 0 l 822 986 l 219 986 l 6 490 z m 285 96 l 111 492 l 285 890 l 726 890 l 726 96 z m 328 289 l 453 415 l 581 288 l 657 365 l 531 493 l 656 618 l 581 694 l 454 568 l 328 696 l 250 618 l 378 492 l 251 365 z "},"⌦":{"ha":833,"x_min":0,"x_max":0,"o":"m 614 0 l 828 490 l 614 986 l 11 986 l 11 0 z m 549 96 l 107 96 l 107 890 l 549 890 l 722 492 z m 253 288 l 381 415 l 506 289 l 582 365 l 457 492 l 583 618 l 506 696 l 379 568 l 253 694 l 178 618 l 303 493 l 176 365 z "},"⏎":{"ha":833,"x_min":0,"x_max":0,"o":"m 419 -11 l 419 258 l 824 258 l 824 986 l 501 986 l 501 581 l 419 581 l 419 847 l 6 419 z m 332 472 l 610 472 l 610 878 l 715 878 l 715 367 l 332 367 l 332 229 l 150 418 l 332 608 z "},"␋":{"ha":833,"x_min":0,"x_max":0,"o":"m 213 417 l 288 417 l 428 875 l 354 875 l 250 521 l 146 875 l 72 875 z m 558 99 l 629 99 l 629 489 l 761 489 l 761 557 l 426 557 l 426 489 l 558 489 z "},"¢":{"ha":833,"x_min":0,"x_max":0,"o":"m 314 -17 l 411 -17 l 422 108 b 429 108 424 108 426 108 b 743 378 593 108 713 214 l 621 386 b 432 219 599 276 525 221 l 478 761 b 615 614 547 746 597 693 l 738 622 b 488 874 711 767 619 854 l 499 1008 l 401 1008 l 390 876 b 90 493 207 858 90 711 b 326 122 90 301 181 165 z m 213 493 b 381 763 213 642 274 740 l 336 239 b 213 493 257 276 213 367 z "},"¤":{"ha":833,"x_min":0,"x_max":0,"o":"m 124 154 l 251 282 b 417 231 299 250 356 231 b 582 282 478 231 535 250 l 710 154 l 788 231 l 658 360 b 710 524 690 406 710 463 b 658 689 710 585 690 642 l 788 818 l 710 894 l 581 767 b 417 817 533 799 478 817 b 253 767 356 817 300 799 l 124 894 l 46 818 l 175 689 b 124 524 143 642 124 585 b 175 360 124 463 143 406 l 46 231 z m 417 328 b 221 524 308 328 221 415 b 417 719 221 632 308 719 b 613 524 522 719 613 632 b 417 328 613 415 522 328 z "},"$":{"ha":833,"x_min":0,"x_max":0,"o":"m 365 -125 l 468 -125 l 468 -21 b 772 242 650 -8 772 96 b 468 535 772 400 692 469 l 468 864 b 629 672 564 844 615 772 l 754 681 b 468 983 735 844 636 963 l 468 1111 l 365 1111 l 365 985 b 85 714 190 968 85 865 b 365 443 85 582 164 497 l 365 103 b 186 324 265 126 203 203 l 61 315 b 365 -17 76 138 193 8 z m 210 719 b 365 867 210 801 269 854 l 365 567 b 210 719 244 607 210 642 z m 647 244 b 468 96 647 157 585 104 l 468 414 b 647 244 617 367 647 324 z "},"€":{"ha":833,"x_min":0,"x_max":0,"o":"m 14 326 l 99 326 b 439 -22 135 108 247 -22 b 792 325 625 -22 756 108 l 665 332 b 439 94 638 175 553 94 b 224 326 319 94 250 176 l 486 326 l 501 429 l 213 429 b 211 492 211 449 211 469 b 213 540 211 508 211 525 l 514 540 l 529 643 l 221 643 b 439 892 246 804 317 892 b 656 676 542 892 624 818 l 783 685 b 439 1008 742 889 613 1008 b 96 643 243 1008 129 871 l 14 643 l 14 540 l 88 540 b 86 492 86 525 86 508 b 88 429 86 471 86 450 l 14 429 z "},"₴":{"ha":833,"x_min":0,"x_max":0,"o":"m 28 540 l 806 540 l 806 643 l 728 643 b 756 742 742 665 756 700 b 439 1008 756 897 644 1008 b 89 742 235 1008 132 906 l 219 729 b 442 892 250 833 314 892 b 642 742 589 892 642 828 b 611 643 642 703 626 668 l 28 643 z m 407 -17 b 764 232 583 -17 719 79 l 628 243 b 400 100 590 156 503 100 b 192 253 278 100 192 161 b 211 326 192 276 197 304 l 806 326 l 806 429 l 28 429 l 28 326 l 89 326 b 72 244 78 307 72 272 b 407 -17 72 88 207 -17 z "},"₽":{"ha":833,"x_min":0,"x_max":0,"o":"m 153 0 l 272 0 l 272 169 l 514 169 l 514 272 l 272 272 l 272 383 l 453 383 b 792 685 658 383 792 496 b 453 986 792 874 658 986 l 153 986 l 153 272 l 42 272 l 42 169 l 153 169 z m 272 500 l 272 869 l 439 869 b 667 685 594 869 667 804 b 439 500 667 565 594 500 z "},"₹":{"ha":833,"x_min":0,"x_max":0,"o":"m 467 0 l 636 0 l 203 383 l 322 383 b 665 632 519 383 643 475 l 792 632 l 792 736 l 667 736 b 601 883 658 794 636 844 l 792 883 l 792 986 l 42 986 l 42 869 l 321 869 b 540 736 449 869 521 825 l 42 736 l 42 632 l 539 632 b 321 500 518 544 446 500 l 42 500 l 42 383 z "},"₪":{"ha":833,"x_min":0,"x_max":0,"o":"m 247 0 l 597 0 b 806 208 725 0 806 81 l 806 986 l 692 986 l 692 201 b 607 114 692 147 658 114 l 361 114 l 361 771 l 247 771 z m 28 0 l 142 0 l 142 872 l 386 872 b 471 785 438 872 471 838 l 471 215 l 585 215 l 585 778 b 378 986 585 906 504 986 l 28 986 z "},"£":{"ha":833,"x_min":0,"x_max":0,"o":"m 64 0 l 753 0 l 753 121 l 183 121 b 333 440 300 181 333 275 l 564 440 l 564 543 l 317 543 b 281 715 294 617 281 672 b 456 892 281 818 350 892 b 631 754 536 892 607 846 l 769 764 b 450 1008 749 893 657 1008 b 157 735 282 1008 157 890 b 197 543 157 678 174 615 l 64 543 l 64 440 l 221 440 b 226 386 224 421 226 403 b 64 114 226 269 168 176 z "},"¥":{"ha":833,"x_min":0,"x_max":0,"o":"m 108 199 l 358 199 l 358 0 l 478 0 l 478 199 l 728 199 l 728 307 l 478 307 l 478 403 l 479 404 l 728 404 l 728 513 l 535 513 l 778 986 l 642 986 l 417 525 l 192 986 l 56 986 l 301 513 l 108 513 l 108 404 l 357 404 l 358 403 l 358 307 l 108 307 z "},"+":{"ha":833,"x_min":0,"x_max":0,"o":"m 85 356 l 363 356 l 363 78 l 471 78 l 471 356 l 749 356 l 749 464 l 471 464 l 471 742 l 363 742 l 363 464 l 85 464 z "},"−":{"ha":833,"x_min":0,"x_max":0,"o":"m 111 356 l 722 356 l 722 464 l 111 464 z "},"×":{"ha":833,"x_min":0,"x_max":0,"o":"m 124 193 l 200 117 l 417 333 l 633 117 l 710 193 l 493 410 l 710 626 l 633 703 l 417 486 l 200 703 l 124 626 l 340 410 z "},"÷":{"ha":833,"x_min":0,"x_max":0,"o":"m 417 575 b 506 661 472 575 506 611 b 417 747 506 711 472 747 b 328 661 361 747 328 711 b 417 575 328 611 361 575 z m 97 356 l 736 356 l 736 464 l 97 464 z m 417 72 b 506 158 472 72 506 108 b 417 244 506 208 472 244 b 328 158 361 244 328 208 b 417 72 328 108 361 72 z "},"=":{"ha":833,"x_min":0,"x_max":0,"o":"m 111 506 l 722 506 l 722 614 l 111 614 z m 111 218 l 722 218 l 722 326 l 111 326 z "},"≠":{"ha":833,"x_min":0,"x_max":0,"o":"m 111 218 l 310 218 l 260 51 l 357 51 l 407 218 l 722 218 l 722 326 l 439 326 l 492 506 l 722 506 l 722 614 l 525 614 l 574 779 l 476 779 l 428 614 l 111 614 l 111 506 l 394 506 l 342 326 l 111 326 z "},">":{"ha":833,"x_min":0,"x_max":0,"o":"m 100 46 l 733 328 l 733 475 l 100 757 l 100 638 l 629 401 l 100 165 z "},"<":{"ha":833,"x_min":0,"x_max":0,"o":"m 733 46 l 733 165 l 204 401 l 733 638 l 733 757 l 100 475 l 100 328 z "},"≥":{"ha":833,"x_min":0,"x_max":0,"o":"m 101 156 l 732 383 l 732 531 l 101 758 l 101 642 l 635 457 l 101 272 z m 101 0 l 732 0 l 732 103 l 101 103 z "},"≤":{"ha":833,"x_min":0,"x_max":0,"o":"m 686 156 l 686 272 l 153 457 l 686 642 l 686 758 l 56 531 l 56 383 z m 686 0 l 686 103 l 56 103 l 56 0 z "},"±":{"ha":833,"x_min":0,"x_max":0,"o":"m 363 147 l 471 147 l 471 411 l 735 411 l 735 519 l 471 519 l 471 783 l 363 783 l 363 519 l 99 519 l 99 411 l 363 411 z m 99 0 l 735 0 l 735 103 l 99 103 z "},"≈":{"ha":833,"x_min":0,"x_max":0,"o":"m 597 481 b 779 736 706 481 779 583 l 669 736 b 596 588 669 639 643 588 b 496 661 560 588 544 599 b 344 750 447 724 415 750 b 164 494 238 750 164 646 l 274 494 b 349 643 274 592 300 643 b 447 568 379 643 390 638 b 597 481 503 501 532 481 z m 597 175 b 779 431 706 175 779 278 l 669 431 b 596 282 669 333 643 282 b 496 356 560 282 544 293 b 344 444 447 418 415 444 b 164 189 238 444 164 340 l 274 189 b 349 338 274 286 300 338 b 447 263 379 338 390 332 b 597 175 503 196 532 175 z "},"~":{"ha":833,"x_min":0,"x_max":0,"o":"m 543 328 b 725 583 651 328 725 431 l 615 583 b 542 435 615 486 589 435 b 442 508 506 435 490 446 b 290 597 393 571 361 597 b 110 342 183 597 110 493 l 219 342 b 294 490 219 439 246 490 b 393 415 325 490 336 485 b 543 328 449 349 478 328 z "},"¬":{"ha":833,"x_min":0,"x_max":0,"o":"m 606 92 l 708 92 l 708 439 l 125 439 l 125 336 l 606 336 z "},"^":{"ha":833,"x_min":0,"x_max":0,"o":"m 176 532 l 290 532 l 417 831 l 543 532 l 657 532 l 490 935 l 343 935 z "},"∞":{"ha":833,"x_min":0,"x_max":0,"o":"m 210 160 b 417 299 285 160 371 210 b 626 160 463 207 551 160 b 822 376 739 160 822 257 b 626 592 822 496 739 593 b 417 454 547 592 464 542 b 210 593 371 539 288 593 b 11 376 94 593 11 496 b 210 160 11 257 94 160 z m 210 265 b 117 376 154 265 117 311 b 210 488 117 442 154 488 b 367 376 265 486 331 440 b 210 265 331 311 265 265 z m 626 265 b 465 376 571 264 504 310 b 626 486 506 442 571 488 b 717 376 679 485 717 439 b 626 265 717 313 679 267 z "},"∫":{"ha":833,"x_min":0,"x_max":0,"o":"m 218 -208 b 428 -22 349 -208 414 -146 l 519 806 b 606 883 525 856 554 883 l 671 883 l 681 986 l 615 986 b 406 800 490 986 419 924 l 315 -28 b 231 -106 308 -89 281 -106 l 163 -106 l 153 -208 z "},"∆":{"ha":833,"x_min":0,"x_max":0,"o":"m 14 0 l 819 0 l 819 111 l 492 986 l 342 986 l 14 111 z m 108 108 l 417 892 l 725 108 z "},"∏":{"ha":833,"x_min":0,"x_max":0,"o":"m 179 -208 l 288 -208 l 288 878 l 551 878 l 551 -208 l 660 -208 l 660 878 l 806 878 l 806 986 l 28 986 l 28 878 l 179 878 z "},"∑":{"ha":833,"x_min":0,"x_max":0,"o":"m 86 0 l 747 0 l 747 117 l 224 117 l 475 493 l 224 869 l 747 869 l 747 986 l 86 986 l 86 869 l 339 493 l 86 117 z "},"√":{"ha":833,"x_min":0,"x_max":0,"o":"m 178 -208 l 317 -208 l 515 883 l 819 883 l 819 986 l 421 986 l 242 -10 l 126 467 l 14 467 z "},"µ":{"ha":833,"x_min":0,"x_max":0,"o":"m 129 -208 l 246 -208 l 246 71 b 397 -17 269 17 328 -17 b 593 122 483 -17 558 36 l 593 0 l 704 0 l 704 736 l 588 736 l 588 297 b 397 86 588 168 515 86 b 246 297 296 86 246 157 l 246 736 l 129 736 z "},"∂":{"ha":833,"x_min":0,"x_max":0,"o":"m 404 -15 b 719 385 586 -15 719 128 b 224 1008 719 704 613 936 l 196 903 b 604 568 436 857 558 751 b 410 646 554 613 489 646 b 114 315 232 646 114 517 b 404 -15 114 114 221 -15 z m 404 82 b 225 315 282 82 225 168 b 418 549 225 463 296 549 b 610 357 538 549 610 482 b 404 82 610 146 525 82 z "},"%":{"ha":833,"x_min":0,"x_max":0,"o":"m 214 508 b 414 753 325 508 414 594 b 214 997 414 911 325 997 b 14 753 103 997 14 911 b 214 508 14 594 103 508 z m 68 0 l 174 0 l 765 986 l 660 986 z m 214 594 b 114 753 153 594 114 653 b 214 911 114 853 153 911 b 314 753 275 911 314 853 b 214 594 314 653 275 594 z m 619 -11 b 819 233 731 -11 819 75 b 619 478 819 392 731 478 b 419 233 508 478 419 392 b 619 -11 419 75 508 -11 z m 619 75 b 519 233 558 75 519 133 b 619 392 519 333 558 392 b 719 233 681 392 719 333 b 619 75 719 133 681 75 z "},"‰":{"ha":833,"x_min":0,"x_max":0,"o":"m 186 508 b 372 753 297 508 372 594 b 186 997 372 911 297 997 b 0 753 75 997 0 911 b 186 508 0 594 75 508 z m 0 0 l 97 0 l 678 986 l 581 986 z m 186 594 b 100 753 125 594 100 653 b 186 911 100 853 125 911 b 272 753 247 911 272 853 b 186 594 272 653 247 594 z m 458 -11 b 574 58 503 -11 544 13 b 689 -11 603 13 644 -11 b 833 233 772 -11 833 75 b 689 478 833 392 772 478 b 574 408 644 478 603 454 b 458 478 544 454 503 478 b 314 233 375 478 314 392 b 458 -11 314 75 375 -11 z m 472 75 b 414 233 439 75 414 106 b 472 392 414 347 439 392 b 531 233 506 392 531 347 b 472 75 531 106 506 75 z m 675 75 b 617 233 642 75 617 106 b 675 392 617 347 642 392 b 733 233 708 392 733 347 b 675 75 733 106 708 75 z "},"↑":{"ha":833,"x_min":0,"x_max":0,"o":"m 363 25 l 471 25 l 471 761 l 793 440 l 793 588 l 417 964 l 40 589 l 40 442 l 363 764 z "},"↗":{"ha":833,"x_min":0,"x_max":0,"o":"m 33 360 l 110 283 l 631 804 l 632 349 l 736 453 l 736 986 l 204 986 l 100 882 l 556 882 z "},"→":{"ha":833,"x_min":0,"x_max":0,"o":"m 314 75 l 463 76 l 824 438 l 463 800 l 315 800 l 622 492 l 24 492 l 24 383 l 622 383 z "},"↘":{"ha":833,"x_min":0,"x_max":0,"o":"m 117 104 l 221 0 l 754 0 l 754 532 l 650 636 l 650 181 l 128 703 l 51 626 l 572 106 z "},"↓":{"ha":833,"x_min":0,"x_max":0,"o":"m 793 549 l 471 228 l 471 964 l 363 964 l 363 225 l 40 547 l 40 400 l 417 25 l 793 401 z "},"↙":{"ha":833,"x_min":0,"x_max":0,"o":"m 717 104 l 261 106 l 782 626 l 706 703 l 183 181 l 183 636 l 79 532 l 79 0 l 613 0 z "},"←":{"ha":833,"x_min":0,"x_max":0,"o":"m 519 75 l 211 383 l 810 383 l 810 492 l 211 492 l 518 800 l 371 800 l 10 438 l 371 76 z "},"↖":{"ha":833,"x_min":0,"x_max":0,"o":"m 201 349 l 203 804 l 724 283 l 800 360 l 278 882 l 733 882 l 629 986 l 97 986 l 97 453 z "},"↔":{"ha":833,"x_min":0,"x_max":0,"o":"m 229 249 l 375 249 l 204 422 l 629 422 l 458 249 l 604 249 l 831 476 l 606 701 l 460 701 l 629 531 l 204 531 l 374 701 l 228 701 l 3 476 z "},"↕":{"ha":833,"x_min":0,"x_max":0,"o":"m 418 -12 l 656 225 l 656 372 l 472 189 l 472 892 l 656 708 l 656 856 l 418 1093 l 178 854 l 178 707 l 364 892 l 364 189 l 178 374 l 178 226 z "},"↝":{"ha":833,"x_min":0,"x_max":0,"o":"m 403 257 b 683 382 497 203 608 257 l 804 311 l 774 640 l 476 503 l 589 436 b 454 351 549 364 500 325 b 406 464 414 374 410 417 b 318 617 399 518 389 575 b 25 431 208 679 50 578 l 140 431 b 268 521 167 510 222 547 b 319 389 314 494 310 443 b 403 257 326 340 343 292 z "},"⇤":{"ha":833,"x_min":0,"x_max":0,"o":"m 28 165 l 136 165 l 136 707 l 28 707 z m 442 213 l 442 382 l 806 382 l 806 490 l 440 490 l 440 660 l 172 436 z "},"⇥":{"ha":833,"x_min":0,"x_max":0,"o":"m 806 165 l 806 707 l 697 707 l 697 165 z m 392 213 l 661 436 l 393 660 l 393 490 l 28 490 l 28 382 l 392 382 z "},"↩":{"ha":833,"x_min":0,"x_max":0,"o":"m 403 164 l 226 342 l 504 342 b 810 632 675 342 810 468 b 504 924 810 796 675 924 l 94 924 l 94 815 l 504 815 b 700 632 614 815 700 735 b 504 450 700 531 614 450 l 224 450 l 401 626 l 253 626 l 24 396 l 256 164 z "},"↪":{"ha":833,"x_min":0,"x_max":0,"o":"m 431 164 l 578 164 l 810 396 l 581 626 l 432 626 l 610 450 l 329 450 b 133 632 219 450 133 531 b 329 815 133 735 219 815 l 739 815 l 739 924 l 329 924 b 24 632 158 924 24 796 b 329 342 24 468 158 342 l 607 342 z "},"↰":{"ha":833,"x_min":0,"x_max":0,"o":"m 294 394 l 294 564 l 683 564 l 683 0 l 792 0 l 792 672 l 293 672 l 293 842 l 25 618 z "},"↱":{"ha":833,"x_min":0,"x_max":0,"o":"m 150 0 l 150 564 l 539 564 l 539 394 l 808 618 l 540 842 l 540 672 l 42 672 l 42 0 z "},"↳":{"ha":833,"x_min":0,"x_max":0,"o":"m 539 592 l 539 422 l 150 422 l 150 986 l 42 986 l 42 314 l 540 314 l 540 144 l 808 368 z "},"↴":{"ha":833,"x_min":0,"x_max":0,"o":"m 597 0 l 821 268 l 653 268 l 653 985 l 19 985 l 19 876 l 543 876 l 543 269 l 375 269 z "},"↵":{"ha":833,"x_min":0,"x_max":0,"o":"m 294 592 l 25 368 l 293 144 l 293 314 l 792 314 l 792 986 l 683 986 l 683 422 l 294 422 z "},"⇧":{"ha":833,"x_min":0,"x_max":0,"o":"m 197 0 l 639 0 l 639 550 l 831 550 l 418 985 l 3 550 l 197 550 z m 306 108 l 306 632 l 228 632 l 418 835 l 607 632 l 531 632 l 531 108 z "},"●":{"ha":833,"x_min":0,"x_max":0,"o":"m 418 110 b 813 494 640 110 813 271 b 418 882 813 721 640 882 b 22 494 194 882 22 721 b 418 110 22 271 194 110 z "},"○":{"ha":833,"x_min":0,"x_max":0,"o":"m 418 110 b 813 494 640 110 813 272 b 418 882 813 719 640 882 b 22 494 194 882 22 719 b 418 110 22 272 194 110 z m 418 214 b 131 494 256 214 131 331 b 418 778 131 661 256 778 b 704 494 579 778 704 661 b 418 214 704 331 579 214 z "},"◌":{"ha":833,"x_min":0,"x_max":0,"o":"m 342 815 b 415 822 365 819 390 822 l 414 904 b 326 894 383 903 354 900 z m 544 800 l 572 875 b 486 899 544 886 517 894 l 474 818 b 544 800 497 814 522 808 z m 222 765 b 286 799 243 779 264 790 l 258 874 b 178 833 229 863 203 850 z m 653 732 l 710 790 b 638 844 688 811 663 829 l 596 775 b 653 732 617 763 636 749 z m 133 675 b 178 729 146 694 161 713 l 122 788 b 65 718 100 767 82 744 z m 725 625 l 799 656 b 757 735 788 685 772 711 l 689 688 b 725 625 704 668 715 647 z m 89 554 b 108 624 93 578 99 601 l 32 653 b 8 567 21 626 14 597 z m 749 499 l 829 499 b 819 588 829 529 826 558 l 740 571 b 749 499 746 547 749 522 z m 13 407 l 92 424 b 83 496 86 447 83 471 l 3 496 b 13 407 3 464 6 435 z m 800 340 b 824 428 811 368 818 397 l 744 440 b 725 371 740 417 733 392 z m 78 258 l 143 307 b 108 369 129 325 118 346 l 33 339 b 78 258 46 310 60 283 z m 710 206 b 767 276 731 226 751 251 l 699 319 b 653 265 686 300 671 282 z m 197 150 l 239 221 b 181 263 218 232 197 247 l 125 206 b 197 150 146 185 171 165 z m 574 121 b 653 161 601 132 628 144 l 608 229 b 544 196 589 215 568 206 z m 347 97 l 360 178 b 290 194 336 181 311 188 l 261 119 b 347 97 289 110 318 101 z m 415 92 b 504 101 446 92 476 96 l 489 179 b 415 174 467 175 440 174 z "},"◊":{"ha":833,"x_min":0,"x_max":0,"o":"m 344 0 l 488 0 l 722 447 l 488 894 l 344 894 l 110 447 z m 229 447 l 417 801 l 603 447 l 417 93 z "},"▲":{"ha":833,"x_min":0,"x_max":0,"o":"m 11 0 l 821 0 l 415 701 z "},"▶":{"ha":833,"x_min":0,"x_max":0,"o":"m -75 901 l -75 92 l 626 497 z "},"▼":{"ha":833,"x_min":0,"x_max":0,"o":"m 11 986 l 415 285 l 821 986 z "},"◀":{"ha":833,"x_min":0,"x_max":0,"o":"m 908 901 l 207 497 l 908 92 z "},"△":{"ha":833,"x_min":0,"x_max":0,"o":"m 11 136 l 821 136 l 415 838 z m 188 239 l 415 635 l 644 239 z "},"▷":{"ha":833,"x_min":0,"x_max":0,"o":"m 61 901 l 61 92 l 763 497 z m 164 725 l 560 497 l 164 268 z "},"▽":{"ha":833,"x_min":0,"x_max":0,"o":"m 11 861 l 415 160 l 821 861 z m 188 758 l 644 758 l 415 363 z "},"◁":{"ha":833,"x_min":0,"x_max":0,"o":"m 772 901 l 71 497 l 772 92 z m 669 725 l 669 268 l 274 497 z "},"┌":{"ha":833,"x_min":0,"x_max":0,"o":"m 357 -343 l 476 -343 l 476 443 l 833 443 l 833 563 l 357 563 z "},"─":{"ha":833,"x_min":0,"x_max":0,"o":"m -56 443 l 833 443 l 833 563 l -56 563 z "},"└":{"ha":833,"x_min":0,"x_max":0,"o":"m 357 443 l 833 443 l 833 563 l 476 563 l 476 1404 l 357 1404 z "},"│":{"ha":833,"x_min":0,"x_max":0,"o":"m 357 -343 l 476 -343 l 476 1406 l 357 1406 z "},"├":{"ha":833,"x_min":0,"x_max":0,"o":"m 357 -343 l 476 -343 l 476 443 l 833 443 l 833 563 l 476 563 l 476 1406 l 357 1406 z "},"̈":{"ha":0,"x_min":0,"x_max":0,"o":"m 222 851 l 344 851 l 344 988 l 222 988 z m 489 851 l 611 851 l 611 988 l 489 988 z "},"̇":{"ha":0,"x_min":0,"x_max":0,"o":"m 356 851 l 478 851 l 478 988 l 356 988 z "},"̀":{"ha":0,"x_min":0,"x_max":0,"o":"m 431 833 l 528 833 l 436 1011 l 306 1011 z "},"́":{"ha":0,"x_min":0,"x_max":0,"o":"m 306 833 l 403 833 l 528 1011 l 397 1011 z "},"̋":{"ha":0,"x_min":0,"x_max":0,"o":"m 208 831 l 306 831 l 431 1008 l 300 1008 z m 403 831 l 500 831 l 625 1008 l 494 1008 z "},"̂":{"ha":0,"x_min":0,"x_max":0,"o":"m 222 831 l 319 831 l 417 956 l 514 831 l 611 831 l 482 1015 l 351 1015 z "},"̌":{"ha":0,"x_min":0,"x_max":0,"o":"m 222 1015 l 351 831 l 482 831 l 611 1015 l 514 1015 l 417 890 l 319 1015 z "},"̆":{"ha":0,"x_min":0,"x_max":0,"o":"m 417 838 b 611 1015 531 838 606 907 l 531 1015 b 417 924 522 951 481 924 b 303 1015 353 924 311 951 l 222 1015 b 417 838 228 907 303 838 z "},"̊":{"ha":0,"x_min":0,"x_max":0,"o":"m 417 800 b 544 928 489 800 544 856 b 417 1056 544 1000 489 1056 b 289 928 344 1056 289 1000 b 417 800 289 856 344 800 z m 417 869 b 358 928 383 869 358 894 b 417 986 358 961 383 986 b 475 928 450 986 475 961 b 417 869 475 894 450 869 z "},"̃":{"ha":0,"x_min":0,"x_max":0,"o":"m 500 847 b 636 1014 579 847 631 908 l 564 1014 b 506 922 558 944 540 922 b 436 956 483 922 465 932 b 331 1000 404 982 375 1000 b 197 838 256 1000 200 944 l 269 838 b 331 925 272 904 297 925 b 403 889 358 925 371 915 b 500 847 433 864 464 847 z "},"̄":{"ha":0,"x_min":0,"x_max":0,"o":"m 231 868 l 603 868 l 603 968 l 231 968 z "},"̒":{"ha":0,"x_min":0,"x_max":0,"o":"m 514 1096 l 436 1096 l 347 957 l 347 838 l 486 838 l 486 963 l 439 963 z "},"̦":{"ha":0,"x_min":0,"x_max":0,"o":"m 319 -333 l 397 -333 l 486 -194 l 486 -75 l 347 -75 l 347 -200 l 394 -200 z "},"̧":{"ha":0,"x_min":0,"x_max":0,"o":"m 419 -306 b 575 -175 510 -306 575 -253 b 442 -50 575 -103 532 -54 l 489 14 l 400 14 l 347 -69 l 386 -111 b 492 -172 475 -111 492 -137 b 417 -228 492 -207 464 -228 b 328 -169 371 -228 344 -211 l 257 -197 b 419 -306 276 -258 331 -306 z "},"̨":{"ha":0,"x_min":0,"x_max":0,"o":"m 419 -292 b 539 -256 472 -292 517 -278 l 506 -178 b 442 -197 489 -192 461 -197 b 400 -156 415 -197 400 -183 b 443 -62 400 -133 407 -110 l 492 0 l 396 14 l 351 -42 b 294 -181 313 -90 294 -133 b 419 -292 294 -250 342 -292 z "},"̵":{"ha":0,"x_min":0,"x_max":0,"o":"m 208 439 l 625 439 l 625 533 l 208 533 z "},"̶":{"ha":0,"x_min":0,"x_max":0,"o":"m 28 738 l 806 738 l 806 849 l 28 849 z "},"̷":{"ha":0,"x_min":0,"x_max":0,"o":"m 208 411 l 625 578 l 625 669 l 208 503 z "},"̸":{"ha":0,"x_min":0,"x_max":0,"o":"m 111 -22 l 211 -22 l 722 753 l 622 753 z "},"¨":{"ha":833,"x_min":0,"x_max":0,"o":"m 222 851 l 344 851 l 344 988 l 222 988 z m 489 851 l 611 851 l 611 988 l 489 988 z "},"˙":{"ha":833,"x_min":0,"x_max":0,"o":"m 356 851 l 478 851 l 478 988 l 356 988 z "},"`":{"ha":833,"x_min":0,"x_max":0,"o":"m 431 833 l 528 833 l 436 1011 l 306 1011 z "},"´":{"ha":833,"x_min":0,"x_max":0,"o":"m 306 833 l 403 833 l 528 1011 l 397 1011 z "},"˝":{"ha":833,"x_min":0,"x_max":0,"o":"m 208 831 l 306 831 l 431 1008 l 300 1008 z m 403 831 l 500 831 l 625 1008 l 494 1008 z "},"ˆ":{"ha":833,"x_min":0,"x_max":0,"o":"m 222 831 l 319 831 l 417 956 l 514 831 l 611 831 l 482 1015 l 351 1015 z "},"ˇ":{"ha":833,"x_min":0,"x_max":0,"o":"m 222 1015 l 351 831 l 482 831 l 611 1015 l 514 1015 l 417 890 l 319 1015 z "},"˘":{"ha":833,"x_min":0,"x_max":0,"o":"m 417 838 b 611 1015 531 838 606 907 l 531 1015 b 417 924 522 951 481 924 b 303 1015 353 924 311 951 l 222 1015 b 417 838 228 907 303 838 z "},"˚":{"ha":833,"x_min":0,"x_max":0,"o":"m 417 800 b 544 928 489 800 544 856 b 417 1056 544 1000 489 1056 b 289 928 344 1056 289 1000 b 417 800 289 856 344 800 z m 417 869 b 358 928 383 869 358 894 b 417 986 358 961 383 986 b 475 928 450 986 475 961 b 417 869 475 894 450 869 z "},"˜":{"ha":833,"x_min":0,"x_max":0,"o":"m 500 847 b 636 1014 579 847 631 908 l 564 1014 b 506 922 558 944 540 922 b 436 956 483 922 465 932 b 331 1000 404 982 375 1000 b 197 838 256 1000 200 944 l 269 838 b 331 925 272 904 297 925 b 403 889 358 925 371 915 b 500 847 433 864 464 847 z "},"¯":{"ha":833,"x_min":0,"x_max":0,"o":"m 231 868 l 603 868 l 603 968 l 231 968 z "},"¸":{"ha":833,"x_min":0,"x_max":0,"o":"m 419 -306 b 575 -175 510 -306 575 -253 b 442 -50 575 -103 532 -54 l 489 14 l 400 14 l 347 -69 l 386 -111 b 492 -172 475 -111 492 -137 b 417 -228 492 -207 464 -228 b 328 -169 371 -228 344 -211 l 257 -197 b 419 -306 276 -258 331 -306 z "},"˛":{"ha":833,"x_min":0,"x_max":0,"o":"m 419 -292 b 539 -256 472 -292 517 -278 l 506 -178 b 442 -197 489 -192 461 -197 b 400 -156 415 -197 400 -183 b 443 -62 400 -133 407 -110 l 492 0 l 396 14 l 351 -42 b 294 -181 313 -90 294 -133 b 419 -292 294 -250 342 -292 z "},"ʼ":{"ha":833,"x_min":0,"x_max":0,"o":"m 328 600 l 397 600 l 485 836 l 485 986 l 318 986 l 318 817 l 393 817 z "},"ʹ":{"ha":833,"x_min":0,"x_max":0,"o":"m 306 833 l 403 833 l 528 1011 l 397 1011 z "},"ˈ":{"ha":833,"x_min":0,"x_max":0,"o":"m 375 593 l 458 593 l 478 881 l 478 986 l 356 986 l 356 881 z "}}}
